<svg width="19" height="18" viewBox="0 0 19 18" fill="none" xmlns="http://www.w3.org/2000/svg">
<path d="M11.75 5.625L13.25 7.125M13.25 7.125V3.375M13.25 7.125L14.75 5.625" stroke="#141B34" stroke-width="0.75" stroke-linecap="round" stroke-linejoin="round"/>
<path d="M17 5.25C17 7.32107 15.321 9 13.25 9C11.179 9 9.5 7.32107 9.5 5.25C9.5 3.17893 11.179 1.5 13.25 1.5C15.321 1.5 17 3.17893 17 5.25Z" stroke="#141B34" stroke-width="1.125" stroke-linecap="round"/>
<path d="M17.5625 9.93313C17.562 9.62241 17.3097 9.37101 16.999 9.37161C16.6884 9.37213 16.437 9.62443 16.4375 9.93508L17.5625 9.93313ZM7.29936 5.06445C7.61002 5.06268 7.86043 4.80942 7.85868 4.49877C7.85692 4.18812 7.60365 3.93771 7.293 3.93946L7.29936 5.06445ZM10.625 15.9376H8.375V17.0626H10.625V15.9376ZM8.375 15.9376C6.95233 15.9376 5.93265 15.9367 5.14921 15.8482C4.37612 15.7609 3.90769 15.5946 3.55422 15.3154L2.85697 16.1983C3.4445 16.6624 4.15132 16.8676 5.02294 16.9661C5.88422 17.0634 6.97874 17.0626 8.375 17.0626V15.9376ZM1.4375 10.5001C1.4375 11.8117 1.43643 12.8488 1.54072 13.6667C1.64699 14.5 1.87011 15.1793 2.36974 15.7397L3.20947 14.9911C2.91949 14.6658 2.74781 14.239 2.65669 13.5244C2.56357 12.7942 2.5625 11.8415 2.5625 10.5001H1.4375ZM3.55422 15.3154C3.42909 15.2167 3.31378 15.1081 3.20947 14.9911L2.36974 15.7397C2.51801 15.9061 2.68108 16.0594 2.85697 16.1983L3.55422 15.3154ZM16.4375 10.5001C16.4375 11.8415 16.4364 12.7942 16.3433 13.5244C16.2522 14.239 16.0805 14.6658 15.7905 14.9911L16.6302 15.7397C17.1299 15.1793 17.353 14.5 17.4593 13.6667C17.5635 12.8488 17.5625 11.8117 17.5625 10.5001H16.4375ZM10.625 17.0626C12.0213 17.0626 13.1157 17.0634 13.977 16.9661C14.8487 16.8676 15.5555 16.6624 16.143 16.1983L15.4458 15.3154C15.0923 15.5946 14.6238 15.7609 13.8507 15.8482C13.0674 15.9367 12.0477 15.9376 10.625 15.9376V17.0626ZM15.7905 14.9911C15.6862 15.1081 15.5709 15.2167 15.4458 15.3154L16.143 16.1983C16.3189 16.0594 16.482 15.9061 16.6302 15.7397L15.7905 14.9911ZM2.5625 10.5001C2.5625 9.15861 2.56357 8.20588 2.65669 7.47575C2.74781 6.76115 2.91949 6.3343 3.20947 6.00906L2.36974 5.26041C1.87011 5.82081 1.64699 6.50007 1.54072 7.33344C1.43643 8.15128 1.4375 9.18838 1.4375 10.5001H2.5625ZM2.85697 4.80177C2.68108 4.94067 2.51801 5.09409 2.36974 5.26041L3.20947 6.00906C3.31378 5.89206 3.42909 5.78346 3.55422 5.68465L2.85697 4.80177ZM17.5625 10.5001C17.5625 10.3057 17.5628 10.1154 17.5625 9.93313L16.4375 9.93508C16.4378 10.1161 16.4375 10.303 16.4375 10.5001H17.5625ZM7.293 3.93946C6.23733 3.94544 5.37808 3.96975 4.67419 4.08084C3.95976 4.19359 3.36397 4.40137 2.85697 4.80177L3.55422 5.68465C3.85967 5.44342 4.25093 5.28656 4.84957 5.19209C5.45873 5.09595 6.23854 5.07045 7.29936 5.06445L7.293 3.93946Z" fill="#141B34"/>
<path d="M8 13.5H9.125" stroke="#141B34" stroke-width="1.125" stroke-miterlimit="10" stroke-linecap="round" stroke-linejoin="round"/>
<path d="M11.375 13.5H14" stroke="#141B34" stroke-width="1.125" stroke-miterlimit="10" stroke-linecap="round" stroke-linejoin="round"/>
<path d="M2.375 8.25H8" stroke="#141B34" stroke-width="1.125" stroke-linecap="round" stroke-linejoin="round"/>
</svg>
