<svg width="26" height="26" viewBox="0 0 26 26" fill="none" xmlns="http://www.w3.org/2000/svg">
<path d="M14.7102 12.0611C14.6111 11.2984 13.7354 10.0662 12.1608 10.0662C10.3312 10.0662 9.56136 11.0795 9.40515 11.5861C9.16145 12.2638 9.21019 13.6571 11.3547 13.809C14.0354 13.999 15.1093 14.3154 14.9727 15.956C14.836 17.5965 13.3417 17.951 12.1608 17.9129C10.9798 17.875 9.04764 17.3325 8.97266 15.8733M11.9734 8.99805V10.0698M11.9734 17.9031V18.998" stroke="#141B34" stroke-width="1.5" stroke-linecap="round"/>
<path d="M21.6177 4.38236L18.25 7.75M21.6177 4.38236C21.3229 4.0876 19.9327 4.37635 19.5129 4.38236M21.6177 4.38236C21.9124 4.67712 21.6236 6.06732 21.6177 6.48714" stroke="#141B34" stroke-width="0.875" stroke-linecap="round" stroke-linejoin="round"/>
<path d="M22 14C22 19.5228 17.5228 24 12 24C6.47715 24 2 19.5228 2 14C2 8.47715 6.47715 4 12 4" stroke="#141B34" stroke-width="1.5"/>
<path d="M25 6C25 8.7614 22.7614 11 20 11C17.2386 11 15 8.7614 15 6C15 3.23858 17.2386 1 20 1C22.7614 1 25 3.23858 25 6Z" stroke="#141B34"/>
</svg>
