<svg width="14" height="15" viewBox="0 0 14 15" fill="none" xmlns="http://www.w3.org/2000/svg">
<path d="M11.6666 13.3335V10.4168C11.6666 9.3169 11.6666 8.76693 11.3249 8.42521C10.9832 8.0835 10.4332 8.0835 9.33325 8.0835L6.99992 13.3335L4.66659 8.0835C3.56664 8.0835 3.01667 8.0835 2.67496 8.42521C2.33325 8.76693 2.33325 9.3169 2.33325 10.4168V13.3335" stroke="#6D6D6D" stroke-width="0.875" stroke-linecap="round" stroke-linejoin="round"/>
<path d="M7.00008 9.24992L6.70841 11.5833L7.00008 12.4583L7.29175 11.5833L7.00008 9.24992ZM7.00008 9.24992L6.41675 8.08325H7.58341L7.00008 9.24992Z" stroke="#6D6D6D" stroke-width="0.875" stroke-linecap="round" stroke-linejoin="round"/>
<path d="M9.04159 4.29175V3.70841C9.04159 2.58084 8.1275 1.66675 6.99992 1.66675C5.87234 1.66675 4.95825 2.58084 4.95825 3.70841V4.29175C4.95825 5.41933 5.87234 6.3334 6.99992 6.3334C8.1275 6.3334 9.04159 5.41933 9.04159 4.29175Z" stroke="#6D6D6D" stroke-width="0.875" stroke-linecap="round" stroke-linejoin="round"/>
</svg>
