<svg width="14" height="14" viewBox="0 0 14 14" fill="none" xmlns="http://www.w3.org/2000/svg">
<path d="M12.2166 9.82057C11.8337 7.5171 10.6419 5.80183 9.60575 4.79434C9.30422 4.50116 9.15349 4.35458 8.82047 4.21892C8.48744 4.08325 8.2012 4.08325 7.62872 4.08325H6.37128C5.7988 4.08325 5.51256 4.08325 5.17954 4.21892C4.84653 4.35458 4.69578 4.50116 4.39427 4.79434C3.35814 5.80183 2.16627 7.5171 1.78341 9.82057C1.49854 11.5344 3.07957 12.8333 4.84652 12.8333H9.15349C10.9204 12.8333 12.5015 11.5344 12.2166 9.82057Z" stroke="#141B34" stroke-width="0.875" stroke-linecap="round"/>
<path d="M4.23295 2.59176C4.1126 2.41659 3.93817 2.17883 4.2985 2.12461C4.66887 2.06888 5.05346 2.32241 5.42991 2.3172C5.77047 2.31249 5.94397 2.16144 6.13011 1.94578C6.32611 1.71868 6.62962 1.16675 6.99992 1.16675C7.37022 1.16675 7.67373 1.71868 7.86973 1.94578C8.05587 2.16144 8.22935 2.31249 8.5699 2.3172C8.94639 2.32241 9.33098 2.06888 9.70134 2.12461C10.0617 2.17883 9.88724 2.41659 9.7669 2.59176L9.22271 3.38379C8.98996 3.7226 8.87359 3.89201 8.62999 3.98771C8.38644 4.08341 8.07168 4.08341 7.4422 4.08341H6.55764C5.92816 4.08341 5.61339 4.08341 5.36983 3.98771C5.12626 3.89201 5.00988 3.7226 4.7771 3.38379L4.23295 2.59176Z" stroke="#141B34" stroke-width="0.875"/>
</svg>
