<svg width="33" height="24" viewBox="0 0 33 24" fill="none" xmlns="http://www.w3.org/2000/svg">
<path d="M14.9051 16.1903L23.286 7.8094M14.9051 7.8094L23.286 16.1903M12.4494 22.4761H27.4765C28.5879 22.4761 29.6537 22.0346 30.4396 21.2487C31.2255 20.4628 31.667 19.397 31.667 18.2856V5.71416C31.667 4.60277 31.2255 3.53691 30.4396 2.75104C29.6537 1.96518 28.5879 1.52368 27.4765 1.52368H12.4494C11.3381 1.52392 10.2725 1.96557 9.48677 2.75149L1.71972 10.5185C1.32692 10.9115 1.10626 11.4443 1.10626 11.9999C1.10626 12.5555 1.32692 13.0883 1.71972 13.4812L9.48677 21.2483C10.2725 22.0342 11.3381 22.4758 12.4494 22.4761Z" stroke="black" stroke-width="2.09524" stroke-linecap="round" stroke-linejoin="round"/>
</svg>
