<svg width="20" height="20" viewBox="0 0 20 20" fill="none" xmlns="http://www.w3.org/2000/svg">
<path d="M1.66663 7.14073C1.66663 6.14391 2.06861 5.53302 2.90048 5.07007L6.32485 3.16437C8.11921 2.1658 9.01638 1.6665 9.99996 1.6665C10.9835 1.6665 11.8807 2.1658 13.675 3.16437L17.0995 5.07007C17.9313 5.53302 18.3333 6.14392 18.3333 7.14073C18.3333 7.41103 18.3333 7.54618 18.3038 7.65729C18.1487 8.24105 17.6197 8.33317 17.1089 8.33317H2.89103C2.38018 8.33317 1.85123 8.24104 1.69614 7.65729C1.66663 7.54618 1.66663 7.41103 1.66663 7.14073Z" stroke="white" stroke-width="1.25"/>
<path d="M9.99658 5.8335H10.0041" stroke="white" stroke-width="1.66667" stroke-linecap="round" stroke-linejoin="round"/>
<path d="M3.33337 8.3335V15.4168M6.66671 8.3335V15.4168" stroke="white" stroke-width="1.25"/>
<path d="M13.3334 8.3335V15.4168M16.6667 8.3335V15.4168" stroke="white" stroke-width="1.25"/>
<path d="M15.8333 15.4165H4.16663C2.78592 15.4165 1.66663 16.5358 1.66663 17.9165C1.66663 18.1466 1.85318 18.3332 2.08329 18.3332H17.9166C18.1467 18.3332 18.3333 18.1466 18.3333 17.9165C18.3333 16.5358 17.214 15.4165 15.8333 15.4165Z" stroke="white" stroke-width="1.25"/>
</svg>
