<svg width="44" height="34" viewBox="0 0 44 34" fill="none" xmlns="http://www.w3.org/2000/svg">
<path d="M28.875 18.375C28.875 20.1984 28.1507 21.947 26.8614 23.2364C25.572 24.5257 23.8234 25.25 22 25.25C20.1766 25.25 18.428 24.5257 17.1386 23.2364C15.8493 21.947 15.125 20.1984 15.125 18.375C15.125 16.5516 15.8493 14.803 17.1386 13.5136C18.428 12.2243 20.1766 11.5 22 11.5C23.8234 11.5 25.572 12.2243 26.8614 13.5136C28.1507 14.803 28.875 16.5516 28.875 18.375Z" fill="white"/>
<path d="M5.5 6C4.04131 6 2.64236 6.57946 1.61091 7.61091C0.579463 8.64236 0 10.0413 0 11.5L0 28C0 29.4587 0.579463 30.8576 1.61091 31.8891C2.64236 32.9205 4.04131 33.5 5.5 33.5H38.5C39.9587 33.5 41.3576 32.9205 42.3891 31.8891C43.4205 30.8576 44 29.4587 44 28V11.5C44 10.0413 43.4205 8.64236 42.3891 7.61091C41.3576 6.57946 39.9587 6 38.5 6H35.277C33.8184 5.99969 32.4197 5.42002 31.3885 4.3885L29.1115 2.1115C28.0803 1.07998 26.6816 0.500312 25.223 0.5H18.777C17.3184 0.500312 15.9197 1.07998 14.8885 2.1115L12.6115 4.3885C11.5803 5.42002 10.1816 5.99969 8.723 6H5.5ZM6.875 11.5C6.51033 11.5 6.16059 11.3551 5.90273 11.0973C5.64487 10.8394 5.5 10.4897 5.5 10.125C5.5 9.76033 5.64487 9.41059 5.90273 9.15273C6.16059 8.89487 6.51033 8.75 6.875 8.75C7.23967 8.75 7.58941 8.89487 7.84727 9.15273C8.10513 9.41059 8.25 9.76033 8.25 10.125C8.25 10.4897 8.10513 10.8394 7.84727 11.0973C7.58941 11.3551 7.23967 11.5 6.875 11.5ZM31.625 18.375C31.625 20.9277 30.6109 23.3759 28.8059 25.1809C27.0009 26.9859 24.5527 28 22 28C19.4473 28 16.9991 26.9859 15.1941 25.1809C13.3891 23.3759 12.375 20.9277 12.375 18.375C12.375 15.8223 13.3891 13.3741 15.1941 11.5691C16.9991 9.76406 19.4473 8.75 22 8.75C24.5527 8.75 27.0009 9.76406 28.8059 11.5691C30.6109 13.3741 31.625 15.8223 31.625 18.375Z" fill="white"/>
</svg>
