<svg width="268" height="120" viewBox="0 0 268 120" fill="none" xmlns="http://www.w3.org/2000/svg">
<g clip-path="url(#clip0_2723_7089)">
<mask id="mask0_2723_7089" style="mask-type:luminance" maskUnits="userSpaceOnUse" x="-46" y="-17" width="120" height="237">
<path d="M-46 220L-38.5 208.75L-31 220L-23.5 208.75L-16 220L-8.5 208.75L-1 220L6.5 208.75L14 220L21.5 208.75L29 220L36.5 208.75L44 220L51.5 208.75L59 220L66.5 208.75L74 220V215L66.5 203.75L59 215L51.5 203.75L44 215L36.5 203.75L29 215L21.5 203.75L14 215L6.5 203.75L-1 215L-8.5 203.75L-16 215L-23.5 203.75L-31 215L-38.5 203.75L-46 215V220ZM-46 210L-38.5 198.75L-31 210L-23.5 198.75L-16 210L-8.5 198.75L-1 210L6.5 198.75L14 210L21.5 198.75L29 210L36.5 198.75L44 210L51.5 198.75L59 210L66.5 198.75L74 210V205L66.5 193.75L59 205L51.5 193.75L44 205L36.5 193.75L29 205L21.5 193.75L14 205L6.5 193.75L-1 205L-8.5 193.75L-16 205L-23.5 193.75L-31 205L-38.5 193.75L-46 205V210ZM-46 200L-38.5 188.75L-31 200L-23.5 188.75L-16 200L-8.5 188.75L-1 200L6.5 188.75L14 200L21.5 188.75L29 200L36.5 188.75L44 200L51.5 188.75L59 200L66.5 188.75L74 200V195L66.5 183.75L59 195L51.5 183.75L44 195L36.5 183.75L29 195L21.5 183.75L14 195L6.5 183.75L-1 195L-8.5 183.75L-16 195L-23.5 183.75L-31 195L-38.5 183.75L-46 195V200ZM-46 190L-38.5 178.75L-31 190L-23.5 178.75L-16 190L-8.5 178.75L-1 190L6.5 178.75L14 190L21.5 178.75L29 190L36.5 178.75L44 190L51.5 178.75L59 190L66.5 178.75L74 190V185L66.5 173.75L59 185L51.5 173.75L44 185L36.5 173.75L29 185L21.5 173.75L14 185L6.5 173.75L-1 185L-8.5 173.75L-16 185L-23.5 173.75L-31 185L-38.5 173.75L-46 185V190ZM-46 180L-38.5 168.75L-31 180L-23.5 168.75L-16 180L-8.5 168.75L-1 180L6.5 168.75L14 180L21.5 168.75L29 180L36.5 168.75L44 180L51.5 168.75L59 180L66.5 168.75L74 180V175L66.5 163.75L59 175L51.5 163.75L44 175L36.5 163.75L29 175L21.5 163.75L14 175L6.5 163.75L-1 175L-8.5 163.75L-16 175L-23.5 163.75L-31 175L-38.5 163.75L-46 175V180ZM-46 170L-38.5 158.75L-31 170L-23.5 158.75L-16 170L-8.5 158.75L-1 170L6.5 158.75L14 170L21.5 158.75L29 170L36.5 158.75L44 170L51.5 158.75L59 170L66.5 158.75L74 170V165L66.5 153.75L59 165L51.5 153.75L44 165L36.5 153.75L29 165L21.5 153.75L14 165L6.5 153.75L-1 165L-8.5 153.75L-16 165L-23.5 153.75L-31 165L-38.5 153.75L-46 165V170ZM-46 160L-38.5 148.75L-31 160L-23.5 148.75L-16 160L-8.5 148.75L-1 160L6.5 148.75L14 160L21.5 148.75L29 160L36.5 148.75L44 160L51.5 148.75L59 160L66.5 148.75L74 160V155L66.5 143.75L59 155L51.5 143.75L44 155L36.5 143.75L29 155L21.5 143.75L14 155L6.5 143.75L-1 155L-8.5 143.75L-16 155L-23.5 143.75L-31 155L-38.5 143.75L-46 155V160ZM-46 150L-38.5 138.75L-31 150L-23.5 138.75L-16 150L-8.5 138.75L-1 150L6.5 138.75L14 150L21.5 138.75L29 150L36.5 138.75L44 150L51.5 138.75L59 150L66.5 138.75L74 150V145L66.5 133.75L59 145L51.5 133.75L44 145L36.5 133.75L29 145L21.5 133.75L14 145L6.5 133.75L-1 145L-8.5 133.75L-16 145L-23.5 133.75L-31 145L-38.5 133.75L-46 145V150ZM-46 140L-38.5 128.75L-31 140L-23.5 128.75L-16 140L-8.5 128.75L-1 140L6.5 128.75L14 140L21.5 128.75L29 140L36.5 128.75L44 140L51.5 128.75L59 140L66.5 128.75L74 140V135L66.5 123.75L59 135L51.5 123.75L44 135L36.5 123.75L29 135L21.5 123.75L14 135L6.5 123.75L-1 135L-8.5 123.75L-16 135L-23.5 123.75L-31 135L-38.5 123.75L-46 135V140ZM-46 130L-38.5 118.75L-31 130L-23.5 118.75L-16 130L-8.5 118.75L-1 130L6.5 118.75L14 130L21.5 118.75L29 130L36.5 118.75L44 130L51.5 118.75L59 130L66.5 118.75L74 130V125L66.5 113.75L59 125L51.5 113.75L44 125L36.5 113.75L29 125L21.5 113.75L14 125L6.5 113.75L-1 125L-8.5 113.75L-16 125L-23.5 113.75L-31 125L-38.5 113.75L-46 125V130ZM-46 120L-38.5 108.75L-31 120L-23.5 108.75L-16 120L-8.5 108.75L-1 120L6.5 108.75L14 120L21.5 108.75L29 120L36.5 108.75L44 120L51.5 108.75L59 120L66.5 108.75L74 120V115L66.5 103.75L59 115L51.5 103.75L44 115L36.5 103.75L29 115L21.5 103.75L14 115L6.5 103.75L-1 115L-8.5 103.75L-16 115L-23.5 103.75L-31 115L-38.5 103.75L-46 115V120ZM-46 110L-38.5 98.75L-31 110L-23.5 98.75L-16 110L-8.5 98.75L-1 110L6.5 98.75L14 110L21.5 98.75L29 110L36.5 98.75L44 110L51.5 98.75L59 110L66.5 98.75L74 110V105L66.5 93.75L59 105L51.5 93.75L44 105L36.5 93.75L29 105L21.5 93.75L14 105L6.5 93.75L-1 105L-8.5 93.75L-16 105L-23.5 93.75L-31 105L-38.5 93.75L-46 105V110ZM-46 100L-38.5 88.75L-31 100L-23.5 88.75L-16 100L-8.5 88.75L-1 100L6.5 88.75L14 100L21.5 88.75L29 100L36.5 88.75L44 100L51.5 88.75L59 100L66.5 88.75L74 100V95L66.5 83.75L59 95L51.5 83.75L44 95L36.5 83.75L29 95L21.5 83.75L14 95L6.5 83.75L-1 95L-8.5 83.75L-16 95L-23.5 83.75L-31 95L-38.5 83.75L-46 95V100ZM-46 90L-38.5 78.75L-31 90L-23.5 78.75L-16 90L-8.5 78.75L-1 90L6.5 78.75L14 90L21.5 78.75L29 90L36.5 78.75L44 90L51.5 78.75L59 90L66.5 78.75L74 90V85L66.5 73.75L59 85L51.5 73.75L44 85L36.5 73.75L29 85L21.5 73.75L14 85L6.5 73.75L-1 85L-8.5 73.75L-16 85L-23.5 73.75L-31 85L-38.5 73.75L-46 85V90ZM-46 80L-38.5 68.75L-31 80L-23.5 68.75L-16 80L-8.5 68.75L-1 80L6.5 68.75L14 80L21.5 68.75L29 80L36.5 68.75L44 80L51.5 68.75L59 80L66.5 68.75L74 80V75L66.5 63.75L59 75L51.5 63.75L44 75L36.5 63.75L29 75L21.5 63.75L14 75L6.5 63.75L-1 75L-8.5 63.75L-16 75L-23.5 63.75L-31 75L-38.5 63.75L-46 75V80ZM-46 70L-38.5 58.75L-31 70L-23.5 58.75L-16 70L-8.5 58.75L-1 70L6.5 58.75L14 70L21.5 58.75L29 70L36.5 58.75L44 70L51.5 58.75L59 70L66.5 58.75L74 70V65L66.5 53.75L59 65L51.5 53.75L44 65L36.5 53.75L29 65L21.5 53.75L14 65L6.5 53.75L-1 65L-8.5 53.75L-16 65L-23.5 53.75L-31 65L-38.5 53.75L-46 65V70ZM-46 60L-38.5 48.75L-31 60L-23.5 48.75L-16 60L-8.5 48.75L-1 60L6.5 48.75L14 60L21.5 48.75L29 60L36.5 48.75L44 60L51.5 48.75L59 60L66.5 48.75L74 60V55L66.5 43.75L59 55L51.5 43.75L44 55L36.5 43.75L29 55L21.5 43.75L14 55L6.5 43.75L-1 55L-8.5 43.75L-16 55L-23.5 43.75L-31 55L-38.5 43.75L-46 55V60ZM-46 50L-38.5 38.75L-31 50L-23.5 38.75L-16 50L-8.5 38.75L-1 50L6.5 38.75L14 50L21.5 38.75L29 50L36.5 38.75L44 50L51.5 38.75L59 50L66.5 38.75L74 50V45L66.5 33.75L59 45L51.5 33.75L44 45L36.5 33.75L29 45L21.5 33.75L14 45L6.5 33.75L-1 45L-8.5 33.75L-16 45L-23.5 33.75L-31 45L-38.5 33.75L-46 45V50ZM-46 40L-38.5 28.75L-31 40L-23.5 28.75L-16 40L-8.5 28.75L-1 40L6.5 28.75L14 40L21.5 28.75L29 40L36.5 28.75L44 40L51.5 28.75L59 40L66.5 28.75L74 40V35L66.5 23.75L59 35L51.5 23.75L44 35L36.5 23.75L29 35L21.5 23.75L14 35L6.5 23.75L-1 35L-8.5 23.75L-16 35L-23.5 23.75L-31 35L-38.5 23.75L-46 35V40ZM-46 30L-38.5 18.75L-31 30L-23.5 18.75L-16 30L-8.5 18.75L-1 30L6.5 18.75L14 30L21.5 18.75L29 30L36.5 18.75L44 30L51.5 18.75L59 30L66.5 18.75L74 30V25L66.5 13.75L59 25L51.5 13.75L44 25L36.5 13.75L29 25L21.5 13.75L14 25L6.5 13.75L-1 25L-8.5 13.75L-16 25L-23.5 13.75L-31 25L-38.5 13.75L-46 25V30ZM-46 20L-38.5 8.75L-31 20L-23.5 8.75L-16 20L-8.5 8.75L-1 20L6.5 8.75L14 20L21.5 8.75L29 20L36.5 8.75L44 20L51.5 8.75L59 20L66.5 8.75L74 20V15L66.5 3.75L59 15L51.5 3.75L44 15L36.5 3.75L29 15L21.5 3.75L14 15L6.5 3.75L-1 15L-8.5 3.75L-16 15L-23.5 3.75L-31 15L-38.5 3.75L-46 15V20ZM-46 10L-38.5 -1.25L-31 10L-23.5 -1.25L-16 10L-8.5 -1.25L-1 10L6.5 -1.25L14 10L21.5 -1.25L29 10L36.5 -1.25L44 10L51.5 -1.25L59 10L66.5 -1.25L74 10V5L66.5 -6.25L59 5L51.5 -6.25L44 5L36.5 -6.25L29 5L21.5 -6.25L14 5L6.5 -6.25L-1 5L-8.5 -6.25L-16 5L-23.5 -6.25L-31 5L-38.5 -6.25L-46 5V10ZM-46 0L-38.5 -11.25L-31 0L-23.5 -11.25L-16 0L-8.5 -11.25L-1 0L6.5 -11.25L14 0L21.5 -11.25L29 0L36.5 -11.25L44 0L51.5 -11.25L59 0L66.5 -11.25L74 0V-5L66.5 -16.25L59 -5L51.5 -16.25L44 -5L36.5 -16.25L29 -5L21.5 -16.25L14 -5L6.5 -16.25L-1 -5L-8.5 -16.25L-16 -5L-23.5 -16.25L-31 -5L-38.5 -16.25L-46 -5V0Z" fill="white"/>
</mask>
<g mask="url(#mask0_2723_7089)">
<path d="M74 0H-46V120H74V0Z" fill="white" fill-opacity="0.1"/>
</g>
</g>
<g clip-path="url(#clip1_2723_7089)">
<mask id="mask1_2723_7089" style="mask-type:luminance" maskUnits="userSpaceOnUse" x="74" y="-17" width="120" height="237">
<path d="M74 220L81.5 208.75L89 220L96.5 208.75L104 220L111.5 208.75L119 220L126.5 208.75L134 220L141.5 208.75L149 220L156.5 208.75L164 220L171.5 208.75L179 220L186.5 208.75L194 220V215L186.5 203.75L179 215L171.5 203.75L164 215L156.5 203.75L149 215L141.5 203.75L134 215L126.5 203.75L119 215L111.5 203.75L104 215L96.5 203.75L89 215L81.5 203.75L74 215V220ZM74 210L81.5 198.75L89 210L96.5 198.75L104 210L111.5 198.75L119 210L126.5 198.75L134 210L141.5 198.75L149 210L156.5 198.75L164 210L171.5 198.75L179 210L186.5 198.75L194 210V205L186.5 193.75L179 205L171.5 193.75L164 205L156.5 193.75L149 205L141.5 193.75L134 205L126.5 193.75L119 205L111.5 193.75L104 205L96.5 193.75L89 205L81.5 193.75L74 205V210ZM74 200L81.5 188.75L89 200L96.5 188.75L104 200L111.5 188.75L119 200L126.5 188.75L134 200L141.5 188.75L149 200L156.5 188.75L164 200L171.5 188.75L179 200L186.5 188.75L194 200V195L186.5 183.75L179 195L171.5 183.75L164 195L156.5 183.75L149 195L141.5 183.75L134 195L126.5 183.75L119 195L111.5 183.75L104 195L96.5 183.75L89 195L81.5 183.75L74 195V200ZM74 190L81.5 178.75L89 190L96.5 178.75L104 190L111.5 178.75L119 190L126.5 178.75L134 190L141.5 178.75L149 190L156.5 178.75L164 190L171.5 178.75L179 190L186.5 178.75L194 190V185L186.5 173.75L179 185L171.5 173.75L164 185L156.5 173.75L149 185L141.5 173.75L134 185L126.5 173.75L119 185L111.5 173.75L104 185L96.5 173.75L89 185L81.5 173.75L74 185V190ZM74 180L81.5 168.75L89 180L96.5 168.75L104 180L111.5 168.75L119 180L126.5 168.75L134 180L141.5 168.75L149 180L156.5 168.75L164 180L171.5 168.75L179 180L186.5 168.75L194 180V175L186.5 163.75L179 175L171.5 163.75L164 175L156.5 163.75L149 175L141.5 163.75L134 175L126.5 163.75L119 175L111.5 163.75L104 175L96.5 163.75L89 175L81.5 163.75L74 175V180ZM74 170L81.5 158.75L89 170L96.5 158.75L104 170L111.5 158.75L119 170L126.5 158.75L134 170L141.5 158.75L149 170L156.5 158.75L164 170L171.5 158.75L179 170L186.5 158.75L194 170V165L186.5 153.75L179 165L171.5 153.75L164 165L156.5 153.75L149 165L141.5 153.75L134 165L126.5 153.75L119 165L111.5 153.75L104 165L96.5 153.75L89 165L81.5 153.75L74 165V170ZM74 160L81.5 148.75L89 160L96.5 148.75L104 160L111.5 148.75L119 160L126.5 148.75L134 160L141.5 148.75L149 160L156.5 148.75L164 160L171.5 148.75L179 160L186.5 148.75L194 160V155L186.5 143.75L179 155L171.5 143.75L164 155L156.5 143.75L149 155L141.5 143.75L134 155L126.5 143.75L119 155L111.5 143.75L104 155L96.5 143.75L89 155L81.5 143.75L74 155V160ZM74 150L81.5 138.75L89 150L96.5 138.75L104 150L111.5 138.75L119 150L126.5 138.75L134 150L141.5 138.75L149 150L156.5 138.75L164 150L171.5 138.75L179 150L186.5 138.75L194 150V145L186.5 133.75L179 145L171.5 133.75L164 145L156.5 133.75L149 145L141.5 133.75L134 145L126.5 133.75L119 145L111.5 133.75L104 145L96.5 133.75L89 145L81.5 133.75L74 145V150ZM74 140L81.5 128.75L89 140L96.5 128.75L104 140L111.5 128.75L119 140L126.5 128.75L134 140L141.5 128.75L149 140L156.5 128.75L164 140L171.5 128.75L179 140L186.5 128.75L194 140V135L186.5 123.75L179 135L171.5 123.75L164 135L156.5 123.75L149 135L141.5 123.75L134 135L126.5 123.75L119 135L111.5 123.75L104 135L96.5 123.75L89 135L81.5 123.75L74 135V140ZM74 130L81.5 118.75L89 130L96.5 118.75L104 130L111.5 118.75L119 130L126.5 118.75L134 130L141.5 118.75L149 130L156.5 118.75L164 130L171.5 118.75L179 130L186.5 118.75L194 130V125L186.5 113.75L179 125L171.5 113.75L164 125L156.5 113.75L149 125L141.5 113.75L134 125L126.5 113.75L119 125L111.5 113.75L104 125L96.5 113.75L89 125L81.5 113.75L74 125V130ZM74 120L81.5 108.75L89 120L96.5 108.75L104 120L111.5 108.75L119 120L126.5 108.75L134 120L141.5 108.75L149 120L156.5 108.75L164 120L171.5 108.75L179 120L186.5 108.75L194 120V115L186.5 103.75L179 115L171.5 103.75L164 115L156.5 103.75L149 115L141.5 103.75L134 115L126.5 103.75L119 115L111.5 103.75L104 115L96.5 103.75L89 115L81.5 103.75L74 115V120ZM74 110L81.5 98.75L89 110L96.5 98.75L104 110L111.5 98.75L119 110L126.5 98.75L134 110L141.5 98.75L149 110L156.5 98.75L164 110L171.5 98.75L179 110L186.5 98.75L194 110V105L186.5 93.75L179 105L171.5 93.75L164 105L156.5 93.75L149 105L141.5 93.75L134 105L126.5 93.75L119 105L111.5 93.75L104 105L96.5 93.75L89 105L81.5 93.75L74 105V110ZM74 100L81.5 88.75L89 100L96.5 88.75L104 100L111.5 88.75L119 100L126.5 88.75L134 100L141.5 88.75L149 100L156.5 88.75L164 100L171.5 88.75L179 100L186.5 88.75L194 100V95L186.5 83.75L179 95L171.5 83.75L164 95L156.5 83.75L149 95L141.5 83.75L134 95L126.5 83.75L119 95L111.5 83.75L104 95L96.5 83.75L89 95L81.5 83.75L74 95V100ZM74 90L81.5 78.75L89 90L96.5 78.75L104 90L111.5 78.75L119 90L126.5 78.75L134 90L141.5 78.75L149 90L156.5 78.75L164 90L171.5 78.75L179 90L186.5 78.75L194 90V85L186.5 73.75L179 85L171.5 73.75L164 85L156.5 73.75L149 85L141.5 73.75L134 85L126.5 73.75L119 85L111.5 73.75L104 85L96.5 73.75L89 85L81.5 73.75L74 85V90ZM74 80L81.5 68.75L89 80L96.5 68.75L104 80L111.5 68.75L119 80L126.5 68.75L134 80L141.5 68.75L149 80L156.5 68.75L164 80L171.5 68.75L179 80L186.5 68.75L194 80V75L186.5 63.75L179 75L171.5 63.75L164 75L156.5 63.75L149 75L141.5 63.75L134 75L126.5 63.75L119 75L111.5 63.75L104 75L96.5 63.75L89 75L81.5 63.75L74 75V80ZM74 70L81.5 58.75L89 70L96.5 58.75L104 70L111.5 58.75L119 70L126.5 58.75L134 70L141.5 58.75L149 70L156.5 58.75L164 70L171.5 58.75L179 70L186.5 58.75L194 70V65L186.5 53.75L179 65L171.5 53.75L164 65L156.5 53.75L149 65L141.5 53.75L134 65L126.5 53.75L119 65L111.5 53.75L104 65L96.5 53.75L89 65L81.5 53.75L74 65V70ZM74 60L81.5 48.75L89 60L96.5 48.75L104 60L111.5 48.75L119 60L126.5 48.75L134 60L141.5 48.75L149 60L156.5 48.75L164 60L171.5 48.75L179 60L186.5 48.75L194 60V55L186.5 43.75L179 55L171.5 43.75L164 55L156.5 43.75L149 55L141.5 43.75L134 55L126.5 43.75L119 55L111.5 43.75L104 55L96.5 43.75L89 55L81.5 43.75L74 55V60ZM74 50L81.5 38.75L89 50L96.5 38.75L104 50L111.5 38.75L119 50L126.5 38.75L134 50L141.5 38.75L149 50L156.5 38.75L164 50L171.5 38.75L179 50L186.5 38.75L194 50V45L186.5 33.75L179 45L171.5 33.75L164 45L156.5 33.75L149 45L141.5 33.75L134 45L126.5 33.75L119 45L111.5 33.75L104 45L96.5 33.75L89 45L81.5 33.75L74 45V50ZM74 40L81.5 28.75L89 40L96.5 28.75L104 40L111.5 28.75L119 40L126.5 28.75L134 40L141.5 28.75L149 40L156.5 28.75L164 40L171.5 28.75L179 40L186.5 28.75L194 40V35L186.5 23.75L179 35L171.5 23.75L164 35L156.5 23.75L149 35L141.5 23.75L134 35L126.5 23.75L119 35L111.5 23.75L104 35L96.5 23.75L89 35L81.5 23.75L74 35V40ZM74 30L81.5 18.75L89 30L96.5 18.75L104 30L111.5 18.75L119 30L126.5 18.75L134 30L141.5 18.75L149 30L156.5 18.75L164 30L171.5 18.75L179 30L186.5 18.75L194 30V25L186.5 13.75L179 25L171.5 13.75L164 25L156.5 13.75L149 25L141.5 13.75L134 25L126.5 13.75L119 25L111.5 13.75L104 25L96.5 13.75L89 25L81.5 13.75L74 25V30ZM74 20L81.5 8.75L89 20L96.5 8.75L104 20L111.5 8.75L119 20L126.5 8.75L134 20L141.5 8.75L149 20L156.5 8.75L164 20L171.5 8.75L179 20L186.5 8.75L194 20V15L186.5 3.75L179 15L171.5 3.75L164 15L156.5 3.75L149 15L141.5 3.75L134 15L126.5 3.75L119 15L111.5 3.75L104 15L96.5 3.75L89 15L81.5 3.75L74 15V20ZM74 10L81.5 -1.25L89 10L96.5 -1.25L104 10L111.5 -1.25L119 10L126.5 -1.25L134 10L141.5 -1.25L149 10L156.5 -1.25L164 10L171.5 -1.25L179 10L186.5 -1.25L194 10V5L186.5 -6.25L179 5L171.5 -6.25L164 5L156.5 -6.25L149 5L141.5 -6.25L134 5L126.5 -6.25L119 5L111.5 -6.25L104 5L96.5 -6.25L89 5L81.5 -6.25L74 5V10ZM74 0L81.5 -11.25L89 0L96.5 -11.25L104 0L111.5 -11.25L119 0L126.5 -11.25L134 0L141.5 -11.25L149 0L156.5 -11.25L164 0L171.5 -11.25L179 0L186.5 -11.25L194 0V-5L186.5 -16.25L179 -5L171.5 -16.25L164 -5L156.5 -16.25L149 -5L141.5 -16.25L134 -5L126.5 -16.25L119 -5L111.5 -16.25L104 -5L96.5 -16.25L89 -5L81.5 -16.25L74 -5V0Z" fill="white"/>
</mask>
<g mask="url(#mask1_2723_7089)">
<path d="M194 0H74V120H194V0Z" fill="white" fill-opacity="0.1"/>
</g>
</g>
<g clip-path="url(#clip2_2723_7089)">
<mask id="mask2_2723_7089" style="mask-type:luminance" maskUnits="userSpaceOnUse" x="194" y="-17" width="120" height="237">
<path d="M194 220L201.5 208.75L209 220L216.5 208.75L224 220L231.5 208.75L239 220L246.5 208.75L254 220L261.5 208.75L269 220L276.5 208.75L284 220L291.5 208.75L299 220L306.5 208.75L314 220V215L306.5 203.75L299 215L291.5 203.75L284 215L276.5 203.75L269 215L261.5 203.75L254 215L246.5 203.75L239 215L231.5 203.75L224 215L216.5 203.75L209 215L201.5 203.75L194 215V220ZM194 210L201.5 198.75L209 210L216.5 198.75L224 210L231.5 198.75L239 210L246.5 198.75L254 210L261.5 198.75L269 210L276.5 198.75L284 210L291.5 198.75L299 210L306.5 198.75L314 210V205L306.5 193.75L299 205L291.5 193.75L284 205L276.5 193.75L269 205L261.5 193.75L254 205L246.5 193.75L239 205L231.5 193.75L224 205L216.5 193.75L209 205L201.5 193.75L194 205V210ZM194 200L201.5 188.75L209 200L216.5 188.75L224 200L231.5 188.75L239 200L246.5 188.75L254 200L261.5 188.75L269 200L276.5 188.75L284 200L291.5 188.75L299 200L306.5 188.75L314 200V195L306.5 183.75L299 195L291.5 183.75L284 195L276.5 183.75L269 195L261.5 183.75L254 195L246.5 183.75L239 195L231.5 183.75L224 195L216.5 183.75L209 195L201.5 183.75L194 195V200ZM194 190L201.5 178.75L209 190L216.5 178.75L224 190L231.5 178.75L239 190L246.5 178.75L254 190L261.5 178.75L269 190L276.5 178.75L284 190L291.5 178.75L299 190L306.5 178.75L314 190V185L306.5 173.75L299 185L291.5 173.75L284 185L276.5 173.75L269 185L261.5 173.75L254 185L246.5 173.75L239 185L231.5 173.75L224 185L216.5 173.75L209 185L201.5 173.75L194 185V190ZM194 180L201.5 168.75L209 180L216.5 168.75L224 180L231.5 168.75L239 180L246.5 168.75L254 180L261.5 168.75L269 180L276.5 168.75L284 180L291.5 168.75L299 180L306.5 168.75L314 180V175L306.5 163.75L299 175L291.5 163.75L284 175L276.5 163.75L269 175L261.5 163.75L254 175L246.5 163.75L239 175L231.5 163.75L224 175L216.5 163.75L209 175L201.5 163.75L194 175V180ZM194 170L201.5 158.75L209 170L216.5 158.75L224 170L231.5 158.75L239 170L246.5 158.75L254 170L261.5 158.75L269 170L276.5 158.75L284 170L291.5 158.75L299 170L306.5 158.75L314 170V165L306.5 153.75L299 165L291.5 153.75L284 165L276.5 153.75L269 165L261.5 153.75L254 165L246.5 153.75L239 165L231.5 153.75L224 165L216.5 153.75L209 165L201.5 153.75L194 165V170ZM194 160L201.5 148.75L209 160L216.5 148.75L224 160L231.5 148.75L239 160L246.5 148.75L254 160L261.5 148.75L269 160L276.5 148.75L284 160L291.5 148.75L299 160L306.5 148.75L314 160V155L306.5 143.75L299 155L291.5 143.75L284 155L276.5 143.75L269 155L261.5 143.75L254 155L246.5 143.75L239 155L231.5 143.75L224 155L216.5 143.75L209 155L201.5 143.75L194 155V160ZM194 150L201.5 138.75L209 150L216.5 138.75L224 150L231.5 138.75L239 150L246.5 138.75L254 150L261.5 138.75L269 150L276.5 138.75L284 150L291.5 138.75L299 150L306.5 138.75L314 150V145L306.5 133.75L299 145L291.5 133.75L284 145L276.5 133.75L269 145L261.5 133.75L254 145L246.5 133.75L239 145L231.5 133.75L224 145L216.5 133.75L209 145L201.5 133.75L194 145V150ZM194 140L201.5 128.75L209 140L216.5 128.75L224 140L231.5 128.75L239 140L246.5 128.75L254 140L261.5 128.75L269 140L276.5 128.75L284 140L291.5 128.75L299 140L306.5 128.75L314 140V135L306.5 123.75L299 135L291.5 123.75L284 135L276.5 123.75L269 135L261.5 123.75L254 135L246.5 123.75L239 135L231.5 123.75L224 135L216.5 123.75L209 135L201.5 123.75L194 135V140ZM194 130L201.5 118.75L209 130L216.5 118.75L224 130L231.5 118.75L239 130L246.5 118.75L254 130L261.5 118.75L269 130L276.5 118.75L284 130L291.5 118.75L299 130L306.5 118.75L314 130V125L306.5 113.75L299 125L291.5 113.75L284 125L276.5 113.75L269 125L261.5 113.75L254 125L246.5 113.75L239 125L231.5 113.75L224 125L216.5 113.75L209 125L201.5 113.75L194 125V130ZM194 120L201.5 108.75L209 120L216.5 108.75L224 120L231.5 108.75L239 120L246.5 108.75L254 120L261.5 108.75L269 120L276.5 108.75L284 120L291.5 108.75L299 120L306.5 108.75L314 120V115L306.5 103.75L299 115L291.5 103.75L284 115L276.5 103.75L269 115L261.5 103.75L254 115L246.5 103.75L239 115L231.5 103.75L224 115L216.5 103.75L209 115L201.5 103.75L194 115V120ZM194 110L201.5 98.75L209 110L216.5 98.75L224 110L231.5 98.75L239 110L246.5 98.75L254 110L261.5 98.75L269 110L276.5 98.75L284 110L291.5 98.75L299 110L306.5 98.75L314 110V105L306.5 93.75L299 105L291.5 93.75L284 105L276.5 93.75L269 105L261.5 93.75L254 105L246.5 93.75L239 105L231.5 93.75L224 105L216.5 93.75L209 105L201.5 93.75L194 105V110ZM194 100L201.5 88.75L209 100L216.5 88.75L224 100L231.5 88.75L239 100L246.5 88.75L254 100L261.5 88.75L269 100L276.5 88.75L284 100L291.5 88.75L299 100L306.5 88.75L314 100V95L306.5 83.75L299 95L291.5 83.75L284 95L276.5 83.75L269 95L261.5 83.75L254 95L246.5 83.75L239 95L231.5 83.75L224 95L216.5 83.75L209 95L201.5 83.75L194 95V100ZM194 90L201.5 78.75L209 90L216.5 78.75L224 90L231.5 78.75L239 90L246.5 78.75L254 90L261.5 78.75L269 90L276.5 78.75L284 90L291.5 78.75L299 90L306.5 78.75L314 90V85L306.5 73.75L299 85L291.5 73.75L284 85L276.5 73.75L269 85L261.5 73.75L254 85L246.5 73.75L239 85L231.5 73.75L224 85L216.5 73.75L209 85L201.5 73.75L194 85V90ZM194 80L201.5 68.75L209 80L216.5 68.75L224 80L231.5 68.75L239 80L246.5 68.75L254 80L261.5 68.75L269 80L276.5 68.75L284 80L291.5 68.75L299 80L306.5 68.75L314 80V75L306.5 63.75L299 75L291.5 63.75L284 75L276.5 63.75L269 75L261.5 63.75L254 75L246.5 63.75L239 75L231.5 63.75L224 75L216.5 63.75L209 75L201.5 63.75L194 75V80ZM194 70L201.5 58.75L209 70L216.5 58.75L224 70L231.5 58.75L239 70L246.5 58.75L254 70L261.5 58.75L269 70L276.5 58.75L284 70L291.5 58.75L299 70L306.5 58.75L314 70V65L306.5 53.75L299 65L291.5 53.75L284 65L276.5 53.75L269 65L261.5 53.75L254 65L246.5 53.75L239 65L231.5 53.75L224 65L216.5 53.75L209 65L201.5 53.75L194 65V70ZM194 60L201.5 48.75L209 60L216.5 48.75L224 60L231.5 48.75L239 60L246.5 48.75L254 60L261.5 48.75L269 60L276.5 48.75L284 60L291.5 48.75L299 60L306.5 48.75L314 60V55L306.5 43.75L299 55L291.5 43.75L284 55L276.5 43.75L269 55L261.5 43.75L254 55L246.5 43.75L239 55L231.5 43.75L224 55L216.5 43.75L209 55L201.5 43.75L194 55V60ZM194 50L201.5 38.75L209 50L216.5 38.75L224 50L231.5 38.75L239 50L246.5 38.75L254 50L261.5 38.75L269 50L276.5 38.75L284 50L291.5 38.75L299 50L306.5 38.75L314 50V45L306.5 33.75L299 45L291.5 33.75L284 45L276.5 33.75L269 45L261.5 33.75L254 45L246.5 33.75L239 45L231.5 33.75L224 45L216.5 33.75L209 45L201.5 33.75L194 45V50ZM194 40L201.5 28.75L209 40L216.5 28.75L224 40L231.5 28.75L239 40L246.5 28.75L254 40L261.5 28.75L269 40L276.5 28.75L284 40L291.5 28.75L299 40L306.5 28.75L314 40V35L306.5 23.75L299 35L291.5 23.75L284 35L276.5 23.75L269 35L261.5 23.75L254 35L246.5 23.75L239 35L231.5 23.75L224 35L216.5 23.75L209 35L201.5 23.75L194 35V40ZM194 30L201.5 18.75L209 30L216.5 18.75L224 30L231.5 18.75L239 30L246.5 18.75L254 30L261.5 18.75L269 30L276.5 18.75L284 30L291.5 18.75L299 30L306.5 18.75L314 30V25L306.5 13.75L299 25L291.5 13.75L284 25L276.5 13.75L269 25L261.5 13.75L254 25L246.5 13.75L239 25L231.5 13.75L224 25L216.5 13.75L209 25L201.5 13.75L194 25V30ZM194 20L201.5 8.75L209 20L216.5 8.75L224 20L231.5 8.75L239 20L246.5 8.75L254 20L261.5 8.75L269 20L276.5 8.75L284 20L291.5 8.75L299 20L306.5 8.75L314 20V15L306.5 3.75L299 15L291.5 3.75L284 15L276.5 3.75L269 15L261.5 3.75L254 15L246.5 3.75L239 15L231.5 3.75L224 15L216.5 3.75L209 15L201.5 3.75L194 15V20ZM194 10L201.5 -1.25L209 10L216.5 -1.25L224 10L231.5 -1.25L239 10L246.5 -1.25L254 10L261.5 -1.25L269 10L276.5 -1.25L284 10L291.5 -1.25L299 10L306.5 -1.25L314 10V5L306.5 -6.25L299 5L291.5 -6.25L284 5L276.5 -6.25L269 5L261.5 -6.25L254 5L246.5 -6.25L239 5L231.5 -6.25L224 5L216.5 -6.25L209 5L201.5 -6.25L194 5V10ZM194 0L201.5 -11.25L209 0L216.5 -11.25L224 0L231.5 -11.25L239 0L246.5 -11.25L254 0L261.5 -11.25L269 0L276.5 -11.25L284 0L291.5 -11.25L299 0L306.5 -11.25L314 0V-5L306.5 -16.25L299 -5L291.5 -16.25L284 -5L276.5 -16.25L269 -5L261.5 -16.25L254 -5L246.5 -16.25L239 -5L231.5 -16.25L224 -5L216.5 -16.25L209 -5L201.5 -16.25L194 -5V0Z" fill="white"/>
</mask>
<g mask="url(#mask2_2723_7089)">
<path d="M314 0H194V120H314V0Z" fill="white" fill-opacity="0.1"/>
</g>
</g>
<defs>
<clipPath id="clip0_2723_7089">
<rect width="120" height="120" fill="white" transform="translate(-46)"/>
</clipPath>
<clipPath id="clip1_2723_7089">
<rect width="120" height="120" fill="white" transform="translate(74)"/>
</clipPath>
<clipPath id="clip2_2723_7089">
<rect width="120" height="120" fill="white" transform="translate(194)"/>
</clipPath>
</defs>
</svg>
