<svg width="50" height="50" viewBox="0 0 50 50" fill="none" xmlns="http://www.w3.org/2000/svg">
<g clip-path="url(#clip0_4675_3120)">
<rect width="50" height="50" rx="25" fill="white"/>
<circle cx="24.9997" cy="25" r="25" fill="#F9F9F9"/>
<path d="M15.5 25C15.5 20.5217 15.5 18.2825 16.8912 16.8912C18.2825 15.5 20.5217 15.5 25 15.5C29.4783 15.5 31.7175 15.5 33.1088 16.8912C34.5 18.2825 34.5 20.5217 34.5 25C34.5 29.4783 34.5 31.7175 33.1088 33.1088C31.7175 34.5 29.4783 34.5 25 34.5C20.5217 34.5 18.2825 34.5 16.8912 33.1088C15.5 31.7175 15.5 29.4783 15.5 25Z" stroke="black" stroke-width="1.5"/>
<path d="M20.5 30C22.8317 27.5578 27.1432 27.4428 29.5 30M27.4951 22.5C27.4951 23.8807 26.3742 25 24.9915 25C23.6089 25 22.488 23.8807 22.488 22.5C22.488 21.1193 23.6089 20 24.9915 20C26.3742 20 27.4951 21.1193 27.4951 22.5Z" stroke="black" stroke-width="1.5" stroke-linecap="round"/>
</g>
<rect x="0.625" y="0.625" width="48.75" height="48.75" rx="24.375" stroke="#E8E8E8" stroke-width="1.25"/>
<defs>
<clipPath id="clip0_4675_3120">
<rect width="50" height="50" rx="25" fill="white"/>
</clipPath>
</defs>
</svg>
