<svg width="222" height="222" viewBox="0 0 222 222" fill="none" xmlns="http://www.w3.org/2000/svg">
<path d="M134.41 183.201C135.008 185.433 133.686 187.726 131.456 188.324C129.228 188.921 126.936 187.598 126.339 185.367C125.743 183.136 127.065 180.842 129.294 180.245C131.524 179.646 133.814 180.971 134.41 183.201Z" fill="#0057B8"/>
<path d="M146.475 177.979C147.45 180.073 146.546 182.56 144.454 183.538C142.363 184.513 139.877 183.609 138.901 181.515C137.927 179.422 138.831 176.933 140.923 175.956C143.014 174.98 145.5 175.885 146.475 177.979Z" fill="#0057B8"/>
<path d="M157.448 170.738C158.772 172.631 158.313 175.237 156.423 176.564C154.532 177.888 151.928 177.429 150.604 175.537C149.281 173.645 149.74 171.037 151.631 169.712C153.52 168.386 156.125 168.846 157.448 170.738Z" fill="#0057B8"/>
<path d="M166.999 161.7C168.631 163.334 168.631 165.981 166.999 167.616C165.367 169.249 162.722 169.249 161.091 167.616C159.46 165.983 159.459 163.334 161.091 161.7C162.722 160.067 165.367 160.067 166.999 161.7Z" fill="#0057B8"/>
<path d="M174.838 151.138C176.729 152.463 177.187 155.07 175.864 156.964C174.541 158.856 171.936 159.316 170.046 157.991C168.156 156.666 167.696 154.058 169.02 152.165C170.344 150.273 172.948 149.814 174.838 151.138Z" fill="#0057B8"/>
<path d="M180.726 139.375C182.818 140.352 183.722 142.84 182.747 144.934C181.771 147.028 179.286 147.934 177.195 146.957C175.104 145.981 174.199 143.492 175.174 141.398C176.149 139.304 178.634 138.399 180.726 139.375Z" fill="#0057B8"/>
<path d="M184.485 126.767C186.713 127.365 188.035 129.658 187.438 131.889C186.841 134.121 184.551 135.445 182.322 134.847C180.094 134.249 178.771 131.956 179.368 129.724C179.964 127.493 182.255 126.169 184.485 126.767Z" fill="#0057B8"/>
<path d="M185.997 113.697C188.295 113.898 189.996 115.926 189.796 118.228C189.594 120.529 187.569 122.232 185.27 122.03C182.972 121.829 181.271 119.801 181.471 117.499C181.672 115.197 183.699 113.495 185.997 113.697Z" fill="#0057B8"/>
<path d="M185.221 100.562C187.52 100.36 189.546 102.062 189.747 104.364C189.947 106.665 188.248 108.694 185.949 108.895C183.652 109.096 181.625 107.394 181.423 105.092C181.222 102.791 182.922 100.763 185.221 100.562Z" fill="#0057B8"/>
<path d="M182.179 87.7618C184.407 87.1637 186.698 88.4874 187.296 90.7194C187.892 92.9505 186.572 95.244 184.342 95.8413C182.114 96.4394 179.823 95.1157 179.225 92.8837C178.627 90.6526 179.95 88.3595 182.179 87.7618Z" fill="#0057B8"/>
<path d="M176.961 75.685C179.052 74.7086 181.537 75.614 182.513 77.7082C183.487 79.8016 182.585 82.2898 180.492 83.2657C178.402 84.2421 175.916 83.3366 174.94 81.2429C173.964 79.1491 174.869 76.6614 176.961 75.685Z" fill="#0057B8"/>
<path d="M169.729 64.6987C171.619 63.3738 174.224 63.8333 175.548 65.7262C176.871 67.6183 176.413 70.2256 174.522 71.551C172.633 72.8759 170.027 72.416 168.702 70.5239C167.379 68.6314 167.839 66.0236 169.729 64.6987Z" fill="#0057B8"/>
<path d="M160.701 55.1367C162.332 53.5032 164.976 53.5032 166.609 55.1371C168.241 56.7705 168.241 59.4179 166.609 61.0513C164.979 62.684 162.333 62.6844 160.7 61.0513C159.068 59.4183 159.069 56.7701 160.701 55.1367Z" fill="#0057B8"/>
<path d="M150.151 47.2893C151.473 45.3973 154.078 44.9373 155.969 46.2627C157.859 47.5876 158.319 50.1945 156.994 52.0874C155.672 53.9787 153.067 54.4394 151.176 53.1145C149.285 51.7896 148.827 49.1814 150.151 47.2893Z" fill="#0057B8"/>
<path d="M138.4 41.3953C139.374 39.3019 141.859 38.3961 143.953 39.3724C146.043 40.3488 146.949 42.8361 145.972 44.9303C144.999 47.0229 142.513 47.9291 140.42 46.9536C138.328 45.9772 137.425 43.4891 138.4 41.3953Z" fill="#0057B8"/>
<path d="M125.806 37.6328C126.402 35.4021 128.692 34.078 130.923 34.6757C133.151 35.2738 134.474 37.566 133.876 39.798C133.28 42.0279 130.989 43.3524 128.759 42.7555C126.53 42.1583 125.208 39.8648 125.806 37.6328Z" fill="#0057B8"/>
<path d="M112.751 36.1178C112.951 33.8174 114.976 32.115 117.277 32.3159C119.575 32.5176 121.276 34.545 121.073 36.8471C120.874 39.1467 118.847 40.8495 116.547 40.649C114.249 40.4485 112.549 38.4191 112.751 36.1178Z" fill="#0057B8"/>
<path d="M99.63 36.895C99.4281 34.5946 101.128 32.566 103.429 32.3643C105.727 32.1634 107.753 33.8645 107.953 36.167C108.155 38.4662 106.455 40.4952 104.156 40.6978C101.857 40.8995 99.8311 39.1967 99.63 36.895Z" fill="#0057B8"/>
<path d="M86.8442 39.9412C86.2468 37.7109 87.569 35.4175 89.7989 34.8189C92.0272 34.2217 94.3181 35.5445 94.9143 37.7773C95.5121 40.0064 94.1903 42.3002 91.9604 42.8996C89.7313 43.4977 87.4412 42.1728 86.8442 39.9412Z" fill="#0057B8"/>
<path d="M74.78 45.1643C73.8047 43.0717 74.7091 40.5836 76.8014 39.606C78.8925 38.6305 81.3779 39.5351 82.3523 41.6301C83.3276 43.7218 82.424 46.2104 80.3322 47.188C78.2403 48.1647 75.7549 47.2581 74.78 45.1643Z" fill="#0057B8"/>
<path d="M63.8067 52.4041C62.4833 50.5133 62.9423 47.9055 64.8335 46.579C66.7231 45.2545 69.328 45.7132 70.651 47.6073C71.9745 49.4977 71.5159 52.1055 69.6255 53.4321C67.7351 54.7578 65.1306 54.297 63.8067 52.4041Z" fill="#0057B8"/>
<path d="M54.2545 61.4426C52.6233 59.8104 52.6229 57.1627 54.255 55.5276C55.8862 53.8949 58.531 53.8941 60.1623 55.5292C61.7935 57.1606 61.7943 59.8088 60.1627 61.4435C58.5314 63.0773 55.8862 63.0765 54.2545 61.4426Z" fill="#0057B8"/>
<path d="M46.4157 72.0039C44.5262 70.6799 44.0667 68.0725 45.3902 66.1788C46.7141 64.2871 49.3181 63.8264 51.2085 65.1533C53.0981 66.4766 53.5579 69.0839 52.2349 70.9781C50.911 72.8706 48.3062 73.3293 46.4157 72.0039Z" fill="#0057B8"/>
<path d="M40.5292 83.7677C38.4385 82.7922 37.5337 80.3041 38.509 78.209C39.4847 76.1161 41.9692 75.2098 44.0607 76.1878C46.1509 77.1621 47.0562 79.6503 46.0817 81.7453C45.1064 83.8395 42.6206 84.7445 40.5292 83.7677Z" fill="#0057B8"/>
<path d="M36.771 96.3763C34.5431 95.7794 33.2201 93.4864 33.8171 91.2536C34.415 89.0229 36.7042 87.6984 38.9342 88.2977C41.1616 88.8938 42.4847 91.1868 41.888 93.4196C41.291 95.6515 39.0001 96.9744 36.771 96.3763Z" fill="#0057B8"/>
<path d="M35.2567 109.446C32.9588 109.246 31.2588 107.218 31.4594 104.915C31.6609 102.614 33.6861 100.912 35.9856 101.115C38.2827 101.315 39.9836 103.343 39.7833 105.645C39.5827 107.947 37.5559 109.648 35.2567 109.446Z" fill="#0057B8"/>
<path d="M36.0336 122.581C33.7361 122.783 31.7097 121.081 31.5078 118.778C31.3071 116.477 33.0064 114.449 35.3063 114.249C37.6034 114.047 39.6298 115.748 39.8321 118.051C40.034 120.353 38.3327 122.38 36.0336 122.581Z" fill="#0057B8"/>
<path d="M39.0766 135.381C36.8492 135.979 34.5587 134.656 33.9604 132.423C33.3638 130.192 34.6848 127.899 36.9155 127.302C39.1425 126.704 41.4335 128.027 42.0321 130.259C42.6296 132.491 41.3061 134.783 39.0766 135.381Z" fill="#0057B8"/>
<path d="M44.2921 147.458C42.2023 148.434 39.7169 147.529 38.7404 145.434C37.7659 143.341 38.6691 140.853 40.7622 139.877C42.8517 138.901 45.3371 139.806 46.314 141.9C47.2897 143.994 46.3844 146.482 44.2921 147.458Z" fill="#0057B8"/>
<path d="M51.5263 158.444C49.638 159.769 47.0327 159.31 45.7076 157.417C44.3849 155.524 44.8427 152.917 46.7352 151.593C48.6235 150.268 51.228 150.726 52.5535 152.619C53.8774 154.512 53.4171 157.118 51.5263 158.444Z" fill="#0057B8"/>
<path d="M60.5544 168.007C58.924 169.64 56.2795 169.64 54.6462 168.006C53.0154 166.372 53.0142 163.725 54.6479 162.092C56.2779 160.459 58.9223 160.458 60.5556 162.091C62.1881 163.725 62.1868 166.372 60.5544 168.007Z" fill="#0057B8"/>
<path d="M71.1031 175.854C69.7809 177.746 67.1765 178.205 65.2844 176.881C63.3948 175.555 62.9342 172.948 64.2601 171.056C65.5819 169.164 68.1864 168.704 70.078 170.028C71.9692 171.353 72.4274 173.961 71.1031 175.854Z" fill="#0057B8"/>
<path d="M82.8535 181.748C81.8794 183.841 79.3941 184.747 77.3013 183.771C75.2103 182.794 74.305 180.306 75.2824 178.212C76.256 176.12 78.741 175.213 80.8337 176.189C82.926 177.165 83.8292 179.654 82.8535 181.748Z" fill="#0057B8"/>
<path d="M95.4489 185.51C94.8527 187.741 92.5626 189.064 90.3319 188.467C88.1032 187.869 86.7802 185.576 87.3797 183.344C87.9755 181.114 90.2655 179.789 92.4955 180.387C94.7254 180.985 96.046 183.278 95.4489 185.51Z" fill="#0057B8"/>
<path d="M108.505 187.025C108.305 189.326 106.279 191.028 103.979 190.827C101.68 190.625 99.9793 188.598 100.182 186.296C100.383 183.996 102.408 182.293 104.707 182.494C107.007 182.694 108.706 184.724 108.505 187.025Z" fill="#0057B8"/>
<path d="M121.625 186.248C121.826 188.549 120.126 190.577 117.826 190.779C115.528 190.98 113.501 189.278 113.301 186.975C113.099 184.676 114.798 182.647 117.098 182.445C119.398 182.243 121.423 183.946 121.625 186.248Z" fill="#0057B8"/>
<path d="M117.209 200.258C115.495 200.258 114.035 198.917 113.887 197.204C113.809 196.315 114.082 195.448 114.655 194.764C115.229 194.079 116.034 193.659 116.923 193.581C117.023 193.572 117.122 193.568 117.22 193.568C118.962 193.568 120.39 194.881 120.543 196.622C120.704 198.458 119.341 200.084 117.506 200.244C117.407 200.254 117.308 200.258 117.209 200.258Z" fill="#0057B8"/>
<path d="M132.619 197.82C130.931 198.119 129.261 197.051 128.818 195.391C128.586 194.527 128.705 193.627 129.151 192.854C129.597 192.08 130.318 191.526 131.18 191.295C131.276 191.269 131.374 191.247 131.47 191.23C133.184 190.928 134.82 191.972 135.272 193.661C135.748 195.441 134.689 197.278 132.909 197.757C132.813 197.782 132.716 197.803 132.619 197.82Z" fill="#0057B8"/>
<path d="M147.371 192.742C145.76 193.329 143.93 192.568 143.206 191.01C142.83 190.2 142.789 189.293 143.094 188.454C143.398 187.614 144.012 186.944 144.822 186.565C144.912 186.523 145.003 186.486 145.095 186.452C146.732 185.856 148.523 186.6 149.261 188.184C150.04 189.854 149.315 191.849 147.645 192.629C147.555 192.67 147.463 192.708 147.371 192.742Z" fill="#0057B8"/>
<path d="M161.018 185.175C159.534 186.034 157.6 185.602 156.616 184.193C156.104 183.462 155.907 182.574 156.062 181.695C156.217 180.816 156.705 180.049 157.436 179.536C157.518 179.478 157.602 179.425 157.686 179.376C159.194 178.504 161.087 178.926 162.089 180.358C163.146 181.867 162.777 183.957 161.267 185.016C161.187 185.073 161.104 185.126 161.018 185.175Z" fill="#0057B8"/>
<path d="M173.146 175.351C171.832 176.455 169.854 176.366 168.64 175.15C168.009 174.518 167.662 173.679 167.662 172.786C167.661 171.893 168.009 171.054 168.64 170.42C168.71 170.35 168.784 170.283 168.859 170.22C170.193 169.099 172.13 169.186 173.365 170.421C174.668 171.725 174.667 173.847 173.364 175.152C173.294 175.221 173.221 175.288 173.146 175.351Z" fill="#0057B8"/>
<path d="M183.387 163.568C182.284 164.883 180.32 165.139 178.915 164.153C178.183 163.641 177.695 162.875 177.54 161.995C177.385 161.115 177.582 160.228 178.093 159.495C178.151 159.414 178.211 159.335 178.274 159.26C179.394 157.924 181.316 157.673 182.747 158.674C184.255 159.732 184.623 161.821 183.566 163.333C183.51 163.415 183.449 163.493 183.387 163.568Z" fill="#0057B8"/>
<path d="M191.425 150.185C190.568 151.671 188.678 152.265 187.123 151.538C186.315 151.161 185.701 150.491 185.396 149.651C185.09 148.812 185.13 147.904 185.507 147.093C185.55 147.003 185.596 146.914 185.645 146.83C186.515 145.32 188.365 144.738 189.948 145.476C191.617 146.255 192.341 148.249 191.563 149.921C191.521 150.011 191.474 150.099 191.425 150.185Z" fill="#0057B8"/>
<path d="M197.022 135.606C196.435 137.219 194.677 138.133 193.019 137.687C192.157 137.456 191.436 136.903 190.991 136.129C190.544 135.356 190.426 134.455 190.656 133.591C190.682 133.495 190.712 133.4 190.746 133.308C191.341 131.669 193.062 130.775 194.749 131.226C196.527 131.703 197.586 133.541 197.111 135.324C197.085 135.419 197.055 135.514 197.022 135.606Z" fill="#0057B8"/>
<path d="M200.005 120.277C199.707 121.967 198.133 123.172 196.424 123.021C195.535 122.944 194.73 122.524 194.156 121.84C193.582 121.157 193.309 120.29 193.386 119.399C193.396 119.3 193.409 119.2 193.426 119.104C193.728 117.387 195.267 116.207 197.007 116.359C198.841 116.519 200.203 118.145 200.043 119.983C200.034 120.082 200.021 120.18 200.005 120.277Z" fill="#0057B8"/>
<path d="M200.283 104.661C200.283 106.378 198.942 107.838 197.232 107.987C196.344 108.065 195.478 107.792 194.794 107.218C194.11 106.644 193.692 105.838 193.613 104.947C193.605 104.848 193.6 104.749 193.6 104.651C193.6 102.908 194.911 101.478 196.651 101.324C198.485 101.163 200.108 102.528 200.27 104.365C200.278 104.464 200.283 104.563 200.283 104.661Z" fill="#0057B8"/>
<path d="M197.848 89.2346C198.146 90.9249 197.079 92.5963 195.422 93.0402C194.56 93.272 193.659 93.1532 192.886 92.7069C192.113 92.2606 191.561 91.5391 191.33 90.6758C191.304 90.5797 191.282 90.4823 191.266 90.3858C190.964 88.669 192.007 87.0327 193.693 86.5798C195.471 86.1021 197.307 87.1635 197.784 88.9454C197.81 89.0415 197.831 89.1385 197.848 89.2346Z" fill="#0057B8"/>
<path d="M192.774 74.4662C193.361 76.079 192.599 77.9109 191.044 78.6352C190.236 79.0139 189.329 79.053 188.489 78.7478C187.651 78.443 186.982 77.8284 186.604 77.0182C186.562 76.9279 186.524 76.8363 186.492 76.7439C185.895 75.1059 186.639 73.3133 188.221 72.5737C189.889 71.7941 191.881 72.5205 192.66 74.1923C192.702 74.2822 192.74 74.3742 192.774 74.4662Z" fill="#0057B8"/>
<path d="M185.216 60.8037C186.074 62.2903 185.642 64.2265 184.235 65.2107C183.505 65.7239 182.618 65.9206 181.739 65.7655C180.86 65.6108 180.095 65.122 179.583 64.3899C179.525 64.3078 179.472 64.2245 179.424 64.1395C178.553 62.6298 178.974 60.7352 180.404 59.732C181.911 58.6744 183.998 59.0436 185.056 60.5541C185.114 60.6354 185.167 60.7187 185.216 60.8037Z" fill="#0057B8"/>
<path d="M175.403 48.6624C176.505 49.9775 176.416 51.9595 175.202 53.173C174.572 53.8053 173.733 54.1531 172.84 54.1531C171.947 54.1535 171.11 53.8053 170.477 53.1734C170.407 53.1025 170.34 53.0294 170.278 52.9544C169.158 51.6191 169.244 49.68 170.478 48.4434C171.78 47.1399 173.899 47.1404 175.203 48.4442C175.272 48.5144 175.34 48.5874 175.403 48.6624Z" fill="#0057B8"/>
<path d="M163.633 38.4121C164.947 39.5151 165.203 41.4826 164.218 42.8892C163.706 43.621 162.941 44.1094 162.061 44.2649C161.183 44.4208 160.297 44.2232 159.565 43.7109C159.484 43.6536 159.405 43.5933 159.33 43.5298C157.995 42.4095 157.745 40.4848 158.745 39.0522C159.801 37.5421 161.888 37.1746 163.398 38.2318C163.479 38.2887 163.558 38.349 163.633 38.4121Z" fill="#0057B8"/>
<path d="M150.265 30.3632C151.749 31.2216 152.343 33.1141 151.617 34.6704C151.24 35.4801 150.57 36.0943 149.732 36.4C148.893 36.706 147.987 36.6656 147.177 36.2882C147.087 36.2461 146.999 36.2007 146.914 36.1508C145.406 35.2797 144.825 33.4276 145.562 31.8432C146.339 30.1726 148.331 29.4475 150.001 30.2263C150.092 30.2683 150.179 30.3141 150.265 30.3632Z" fill="#0057B8"/>
<path d="M135.702 24.7608C137.313 25.3478 138.226 27.1087 137.78 28.7677C137.55 29.6306 136.997 30.3521 136.224 30.7992C135.451 31.2464 134.551 31.3639 133.689 31.1333C133.593 31.1069 133.498 31.0776 133.407 31.0434C131.769 30.4478 130.876 28.7248 131.327 27.0365C131.803 25.2562 133.639 24.1957 135.419 24.6721C135.514 24.6977 135.61 24.7274 135.702 24.7608Z" fill="#0057B8"/>
<path d="M120.389 21.7749C122.077 22.0732 123.282 23.6485 123.129 25.3599C123.053 26.2496 122.634 27.056 121.95 27.6306C121.267 28.2056 120.401 28.4779 119.511 28.4007C119.412 28.3917 119.314 28.3789 119.218 28.3611C117.502 28.0592 116.323 26.5177 116.475 24.7762C116.635 22.9402 118.258 21.5769 120.094 21.7366C120.193 21.7457 120.292 21.7584 120.389 21.7749Z" fill="#0057B8"/>
<path d="M104.79 21.4963C106.504 21.4963 107.964 22.8386 108.111 24.55C108.19 25.4397 107.917 26.3064 107.344 26.9911C106.77 27.6762 105.965 28.0945 105.076 28.1733C104.976 28.1815 104.877 28.1861 104.779 28.1857C103.037 28.1861 101.609 26.8735 101.456 25.132C101.295 23.296 102.658 21.6712 104.494 21.5095C104.592 21.5013 104.692 21.4968 104.79 21.4963Z" fill="#0057B8"/>
<path d="M89.3813 23.9338C91.0699 23.636 92.7398 24.7039 93.1823 26.3638C93.4143 27.2259 93.2956 28.1276 92.849 28.9014C92.4036 29.6756 91.6834 30.2275 90.8206 30.4598C90.7246 30.4853 90.6277 30.5072 90.5313 30.5237C88.8156 30.8269 87.1819 29.7825 86.7291 28.0937C86.2519 26.3139 87.3121 24.4766 89.0917 23.9981C89.1877 23.973 89.2849 23.9507 89.3813 23.9338Z" fill="#0057B8"/>
<path d="M74.629 29.0127C76.2401 28.4261 78.0699 29.1876 78.7934 30.7452C79.1717 31.554 79.2108 32.4628 78.9055 33.3026C78.601 34.1424 77.9875 34.8115 77.1783 35.1897C77.088 35.2318 76.997 35.2697 76.9043 35.3027C75.2677 35.9 73.4774 35.1551 72.7386 33.5707C71.9599 31.901 72.6855 29.9078 74.355 29.127C74.4453 29.0853 74.5371 29.0465 74.629 29.0127Z" fill="#0057B8"/>
<path d="M60.982 36.5795C62.4666 35.7215 64.4011 36.1534 65.3838 37.5616C65.8968 38.2921 66.0929 39.1798 65.938 40.0605C65.7839 40.9403 65.2956 41.7063 64.5639 42.2194C64.4823 42.2764 64.399 42.3296 64.3137 42.3782C62.8057 43.2507 60.9132 42.8287 59.9112 41.3969C58.8547 39.8876 59.2231 37.7984 60.7324 36.7399C60.8135 36.6826 60.8972 36.6286 60.982 36.5795Z" fill="#0057B8"/>
<path d="M48.8541 46.4032C50.1673 45.3006 52.1475 45.3893 53.3597 46.6053C53.9914 47.2356 54.3387 48.0754 54.3387 48.9697C54.3395 49.8635 53.9914 50.7021 53.3601 51.3349C53.2897 51.405 53.2167 51.4723 53.1413 51.5345C51.8076 52.6561 49.8706 52.5691 48.6354 51.3337C47.3329 50.031 47.3337 47.9096 48.6362 46.6045C48.7062 46.5343 48.7796 46.4663 48.8541 46.4032Z" fill="#0057B8"/>
<path d="M38.6145 58.1861C39.7163 56.8715 41.6817 56.6149 43.0863 57.6016C43.8177 58.1127 44.3059 58.8795 44.4608 59.7597C44.6166 60.64 44.4196 61.5264 43.9075 62.259C43.8498 62.3403 43.7901 62.4191 43.7266 62.4937C42.6075 63.8302 40.685 64.0814 39.254 63.079C37.7455 62.0227 37.378 59.9334 38.4344 58.4216C38.4913 58.3408 38.5515 58.2616 38.6145 58.1861Z" fill="#0057B8"/>
<path d="M30.5753 71.57C31.4327 70.0838 33.3235 69.4898 34.8781 70.217C35.6869 70.5936 36.3005 71.2639 36.6054 72.1038C36.9115 72.9432 36.8715 73.8502 36.4941 74.6612C36.4517 74.7515 36.4068 74.8394 36.3569 74.9239C35.4867 76.4349 33.6371 77.0161 32.0541 76.2781C30.3853 75.5002 29.661 73.5062 30.4393 71.8336C30.4809 71.7441 30.5262 71.655 30.5753 71.57Z" fill="#0057B8"/>
<path d="M24.9782 86.1487C25.5645 84.5363 27.3239 83.6222 28.9811 84.0685C29.8431 84.2983 30.5633 84.8518 31.0096 85.6256C31.4566 86.3995 31.5744 87.2995 31.3437 88.1641C31.3173 88.2602 31.2881 88.3547 31.2539 88.4466C30.6589 90.0855 28.9383 90.9801 27.2514 90.5281C25.4731 90.052 24.4141 88.214 24.89 86.432C24.9156 86.3364 24.9448 86.2407 24.9782 86.1487Z" fill="#0057B8"/>
<path d="M21.9966 101.478C22.2941 99.7884 23.868 98.5823 25.5775 98.7341C26.4663 98.8104 27.2718 99.2303 27.8454 99.915C28.4202 100.599 28.6917 101.466 28.6146 102.357C28.6056 102.456 28.5928 102.554 28.5751 102.651C28.2735 104.368 26.7341 105.548 24.9945 105.396C23.1606 105.237 21.7988 103.611 21.9582 101.773C21.9673 101.674 21.9797 101.575 21.9966 101.478Z" fill="#0057B8"/>
<path d="M21.7183 117.094C21.7183 115.378 23.059 113.916 24.769 113.768C25.6573 113.69 26.5234 113.963 27.207 114.537C27.8913 115.111 28.3096 115.917 28.3883 116.808C28.3965 116.907 28.401 117.006 28.4002 117.104C28.401 118.848 27.0899 120.277 25.3499 120.43C23.5164 120.592 21.893 119.227 21.7319 117.39C21.7236 117.292 21.7183 117.192 21.7183 117.094Z" fill="#0057B8"/>
<path d="M24.1517 132.52C23.8543 130.83 24.9214 129.158 26.5794 128.715C27.4406 128.483 28.3409 128.602 29.1139 129.049C29.8877 129.495 30.439 130.215 30.6709 131.08C30.6961 131.175 30.7179 131.272 30.7344 131.37C31.0376 133.086 29.9944 134.722 28.3075 135.176C26.5296 135.653 24.6944 134.592 24.2168 132.811C24.1909 132.714 24.169 132.617 24.1517 132.52Z" fill="#0057B8"/>
<path d="M29.2263 147.289C28.64 145.676 29.401 143.844 30.9568 143.12C31.7644 142.741 32.6717 142.702 33.5106 143.008C34.3499 143.312 35.0178 143.927 35.3965 144.737C35.4385 144.827 35.4764 144.918 35.509 145.011C36.106 146.65 35.3619 148.442 33.7792 149.181C32.1118 149.961 30.12 149.235 29.3404 147.563C29.2988 147.474 29.2601 147.381 29.2263 147.289Z" fill="#0057B8"/>
<path d="M36.7846 160.951C35.9272 159.464 36.3586 157.528 37.7656 156.545C38.4954 156.031 39.3816 155.834 40.2609 155.989C41.1406 156.144 41.9049 156.632 42.4183 157.365C42.4748 157.447 42.5283 157.53 42.5766 157.615C43.4484 159.125 43.0265 161.019 41.5967 162.023C40.0895 163.08 38.0022 162.712 36.9449 161.201C36.8876 161.12 36.8336 161.035 36.7846 160.951Z" fill="#0057B8"/>
<path d="M46.5968 173.093C45.4951 171.778 45.584 169.796 46.7987 168.581C47.4283 167.95 48.2672 167.601 49.1601 167.602C50.053 167.601 50.8906 167.95 51.5231 168.581C51.5927 168.652 51.6599 168.725 51.7221 168.8C52.8428 170.136 52.7559 172.074 51.5214 173.311C50.2207 174.615 48.1012 174.615 46.7979 173.311C46.7279 173.241 46.6603 173.167 46.5968 173.093Z" fill="#0057B8"/>
<path d="M58.3668 183.343C57.0532 182.24 56.7974 180.273 57.783 178.866C58.2935 178.134 59.059 177.646 59.9387 177.49C60.8176 177.335 61.703 177.532 62.4356 178.044C62.5168 178.102 62.5955 178.162 62.6697 178.225C64.0051 179.346 64.2556 181.27 63.2543 182.703C62.1995 184.212 60.1122 184.582 58.6025 183.523C58.5213 183.466 58.4418 183.406 58.3668 183.343Z" fill="#0057B8"/>
<path d="M71.7364 191.392C70.2515 190.533 69.6586 188.641 70.385 187.084C70.7608 186.274 71.4303 185.66 72.2692 185.355C73.1081 185.049 74.0137 185.089 74.8242 185.466C74.9145 185.509 75.0018 185.555 75.0863 185.604C76.5956 186.475 77.1765 188.327 76.439 189.912C75.6623 191.583 73.6701 192.308 72.0001 191.529C71.9099 191.487 71.8213 191.44 71.7364 191.392Z" fill="#0057B8"/>
<path d="M86.2989 196.994C84.6878 196.407 83.7752 194.646 84.2206 192.986C84.4501 192.123 85.003 191.403 85.7764 190.956C86.549 190.508 87.4484 190.39 88.3117 190.622C88.4077 190.648 88.5016 190.678 88.5939 190.712C90.2309 191.307 91.1242 193.029 90.673 194.719C90.1975 196.499 88.3619 197.56 86.5819 197.083C86.4859 197.057 86.3908 197.027 86.2989 196.994Z" fill="#0057B8"/>
<path d="M101.612 199.98C99.9234 199.682 98.7195 198.107 98.8699 196.395C98.9465 195.505 99.3659 194.7 100.05 194.125C100.733 193.55 101.598 193.278 102.489 193.354C102.588 193.364 102.686 193.377 102.782 193.395C104.498 193.696 105.676 195.237 105.525 196.98C105.365 198.815 103.741 200.178 101.906 200.018C101.807 200.009 101.708 199.997 101.612 199.98Z" fill="#0057B8"/>
<path d="M117.927 209.182C116.737 209.182 115.726 208.25 115.623 207.062C115.569 206.442 115.758 205.84 116.156 205.366C116.554 204.891 117.113 204.599 117.731 204.544C117.8 204.539 117.87 204.536 117.939 204.536C119.147 204.536 120.137 205.448 120.244 206.658C120.356 207.932 119.409 209.06 118.134 209.173C118.067 209.177 117.997 209.182 117.927 209.182Z" fill="#0057B8"/>
<path d="M134.483 206.518C133.447 206.518 132.503 205.794 132.236 204.797C132.076 204.196 132.159 203.57 132.468 203.033C132.777 202.496 133.277 202.112 133.877 201.951C133.939 201.934 134.008 201.919 134.075 201.908C134.218 201.882 134.357 201.87 134.495 201.87C135.548 201.87 136.441 202.563 136.718 203.595C137.049 204.831 136.312 206.108 135.076 206.44C135.011 206.456 134.944 206.472 134.876 206.484C134.745 206.506 134.613 206.518 134.483 206.518Z" fill="#0057B8"/>
<path d="M150.324 201.016C149.415 201.016 148.584 200.491 148.206 199.678C147.943 199.114 147.915 198.485 148.127 197.902C148.339 197.319 148.764 196.854 149.327 196.59C149.388 196.563 149.456 196.534 149.523 196.509C149.78 196.416 150.05 196.368 150.322 196.368C151.222 196.368 152.022 196.884 152.41 197.716C152.951 198.875 152.446 200.26 151.285 200.802C151.226 200.83 151.161 200.857 151.094 200.881C150.847 200.971 150.587 201.016 150.324 201.016Z" fill="#0057B8"/>
<path d="M164.958 192.846C164.19 192.846 163.474 192.478 163.043 191.861C162.687 191.352 162.55 190.736 162.657 190.125C162.765 189.515 163.103 188.982 163.613 188.624C163.665 188.588 163.723 188.551 163.782 188.516C164.145 188.307 164.546 188.198 164.948 188.198C165.707 188.198 166.398 188.562 166.842 189.198C167.197 189.704 167.332 190.32 167.224 190.931C167.117 191.543 166.778 192.076 166.271 192.432C166.216 192.471 166.155 192.51 166.092 192.546C165.754 192.743 165.361 192.846 164.958 192.846Z" fill="#0057B8"/>
<path d="M177.946 182.257C177.318 182.257 176.733 182.018 176.3 181.584C175.861 181.145 175.62 180.562 175.619 179.942C175.619 179.322 175.861 178.738 176.3 178.298C176.346 178.253 176.399 178.203 176.453 178.158C176.879 177.801 177.393 177.611 177.938 177.611C178.553 177.611 179.136 177.856 179.58 178.301C180.484 179.206 180.483 180.679 179.578 181.586C179.531 181.633 179.479 181.681 179.426 181.726C179.018 182.069 178.492 182.257 177.946 182.257Z" fill="#0057B8"/>
<path d="M188.894 169.572C188.414 169.572 187.958 169.428 187.573 169.158C187.064 168.802 186.725 168.271 186.618 167.659C186.51 167.049 186.646 166.433 187.002 165.923C187.04 165.869 187.083 165.813 187.129 165.759C187.572 165.229 188.215 164.925 188.894 164.925C189.371 164.925 189.833 165.073 190.234 165.355C191.281 166.088 191.536 167.539 190.802 168.589C190.762 168.645 190.721 168.701 190.676 168.753C190.24 169.273 189.591 169.572 188.894 169.572Z" fill="#0057B8"/>
<path d="M197.482 155.174C197.145 155.174 196.821 155.102 196.518 154.961C195.956 154.699 195.53 154.234 195.317 153.651C195.106 153.068 195.133 152.437 195.396 151.874C195.422 151.819 195.453 151.756 195.488 151.695C195.911 150.962 196.655 150.529 197.483 150.529C197.825 150.529 198.16 150.604 198.479 150.752C199.638 151.293 200.141 152.677 199.6 153.839C199.571 153.9 199.538 153.964 199.503 154.025C199.094 154.733 198.32 155.174 197.482 155.174Z" fill="#0057B8"/>
<path d="M203.453 139.502C203.255 139.502 203.057 139.476 202.866 139.425C202.266 139.264 201.766 138.88 201.456 138.344C201.147 137.806 201.065 137.18 201.224 136.58C201.241 136.518 201.263 136.45 201.287 136.384C201.624 135.455 202.472 134.857 203.449 134.857C203.655 134.857 203.863 134.885 204.067 134.939C205.301 135.27 206.036 136.547 205.706 137.784C205.689 137.847 205.668 137.916 205.645 137.982C205.313 138.892 204.433 139.502 203.453 139.502Z" fill="#0057B8"/>
<path d="M206.619 123.03C206.553 123.03 206.486 123.028 206.42 123.022C205.802 122.968 205.243 122.677 204.845 122.201C204.447 121.728 204.257 121.125 204.311 120.506C204.317 120.44 204.325 120.371 204.338 120.303C204.534 119.191 205.49 118.386 206.612 118.386C206.683 118.386 206.754 118.39 206.825 118.396C208.098 118.507 209.044 119.636 208.933 120.913C208.927 120.978 208.918 121.047 208.906 121.115C208.714 122.209 207.73 123.03 206.619 123.03Z" fill="#0057B8"/>
<path d="M206.866 106.258C206.319 106.258 205.808 106.07 205.384 105.715C204.91 105.317 204.619 104.757 204.564 104.138C204.559 104.074 204.555 104.004 204.555 103.935C204.555 102.721 205.466 101.729 206.675 101.623C206.745 101.616 206.812 101.614 206.881 101.614C208.069 101.614 209.082 102.545 209.188 103.735C209.193 103.798 209.197 103.87 209.197 103.942C209.197 105.132 208.267 106.146 207.08 106.248C207.006 106.255 206.936 106.258 206.866 106.258Z" fill="#0057B8"/>
<path d="M204.206 89.6984C203.806 89.6984 203.407 89.5904 203.053 89.3858C202.517 89.0764 202.133 88.5752 201.972 87.9742C201.957 87.9153 201.941 87.8476 201.929 87.7812C201.717 86.5813 202.442 85.4457 203.614 85.1314C203.811 85.0786 204.012 85.0518 204.213 85.0518C205.261 85.0518 206.182 85.7604 206.454 86.7751C206.472 86.8399 206.487 86.908 206.499 86.9764C206.706 88.15 205.965 89.3091 204.814 89.6172C204.613 89.6716 204.409 89.6984 204.206 89.6984Z" fill="#0057B8"/>
<path d="M198.723 73.8518C198.454 73.8518 198.186 73.8039 197.928 73.7095C197.346 73.4979 196.881 73.0713 196.617 72.5075C196.591 72.4514 196.564 72.387 196.541 72.3227C196.126 71.1797 196.642 69.9356 197.742 69.422C198.05 69.2777 198.378 69.2051 198.715 69.2051C199.616 69.2051 200.444 69.7318 200.824 70.5469C200.853 70.6113 200.88 70.6752 200.903 70.7395C201.31 71.8566 200.783 73.127 199.702 73.6303C199.388 73.7779 199.06 73.8518 198.723 73.8518Z" fill="#0057B8"/>
<path d="M190.571 59.1996C190.435 59.1996 190.296 59.1872 190.16 59.1632C189.551 59.056 189.019 58.7165 188.662 58.2071C188.627 58.1572 188.59 58.1007 188.556 58.0417C187.947 56.9849 188.24 55.6703 189.234 54.9732C189.623 54.6997 190.082 54.5549 190.556 54.5549C191.317 54.5549 192.03 54.9253 192.464 55.5453C192.502 55.5994 192.541 55.6587 192.576 55.7194C193.17 56.7506 192.871 58.0933 191.894 58.7772C191.5 59.0539 191.043 59.1996 190.571 59.1996Z" fill="#0057B8"/>
<path d="M179.986 46.1986C179.368 46.1986 178.786 45.9507 178.346 45.5114C178.302 45.4669 178.255 45.4141 178.212 45.3617C177.43 44.4299 177.491 43.0823 178.349 42.2231C178.785 41.7862 179.367 41.5449 179.988 41.5449C180.609 41.5449 181.192 41.7858 181.629 42.2239C181.677 42.2721 181.725 42.3229 181.769 42.3757C182.534 43.2881 182.473 44.6683 181.629 45.5114C181.19 45.9515 180.608 46.199 179.988 46.199H179.986V46.1986Z" fill="#0057B8"/>
<path d="M167.308 35.2139C166.837 35.2139 166.379 35.0678 165.985 34.7923C165.931 34.7548 165.876 34.7131 165.824 34.6686C164.895 33.8885 164.721 32.5525 165.417 31.5576C165.849 30.9393 166.561 30.5701 167.321 30.5701C167.798 30.5701 168.256 30.7149 168.649 30.9892C168.702 31.0267 168.758 31.0692 168.811 31.1137C169.724 31.8801 169.901 33.2446 169.216 34.221C168.861 34.7308 168.33 35.0699 167.719 35.1776C167.582 35.2019 167.444 35.2139 167.308 35.2139Z" fill="#0057B8"/>
<path d="M152.933 26.6091C152.596 26.6091 152.266 26.5348 151.952 26.3888C151.894 26.3616 151.835 26.3311 151.778 26.2981C150.722 25.6884 150.32 24.4027 150.832 23.3013C151.21 22.4879 152.038 21.9624 152.939 21.9624C153.277 21.9624 153.605 22.0358 153.915 22.1798C153.976 22.2087 154.039 22.2404 154.098 22.2747C155.128 22.8703 155.54 24.1832 155.036 25.2644C154.773 25.8278 154.309 26.2539 153.726 26.4664C153.468 26.5616 153.2 26.6091 152.933 26.6091Z" fill="#0057B8"/>
<path d="M137.283 20.6348C137.081 20.6348 136.875 20.6076 136.675 20.5539C136.615 20.5379 136.551 20.5181 136.487 20.4945C135.342 20.0775 134.723 18.8813 135.036 17.7082C135.307 16.6959 136.229 15.9885 137.278 15.9885C137.479 15.9885 137.681 16.0157 137.878 16.0681C137.944 16.0859 138.012 16.1073 138.078 16.1312C139.194 16.5371 139.826 17.7585 139.516 18.9106C139.356 19.5116 138.973 20.0119 138.435 20.323C138.082 20.5271 137.684 20.6348 137.283 20.6348Z" fill="#0057B8"/>
<path d="M120.827 17.4722C120.757 17.4722 120.688 17.4693 120.618 17.4631C120.555 17.4573 120.487 17.4487 120.42 17.4367C119.223 17.2259 118.405 16.1555 118.51 14.9461C118.613 13.7577 119.628 12.8271 120.82 12.8271C120.887 12.8271 120.956 12.83 121.024 12.8358C121.091 12.842 121.163 12.8511 121.233 12.863C122.401 13.0693 123.236 14.162 123.131 15.3503C123.078 15.9699 122.786 16.5296 122.312 16.9289C121.889 17.2845 121.376 17.4722 120.827 17.4722Z" fill="#0057B8"/>
<path d="M104.069 17.3245C102.851 17.3245 101.861 16.3597 101.755 15.1507C101.643 13.8765 102.59 12.722 103.865 12.6094C103.931 12.604 104.004 12.5871 104.074 12.5867C105.261 12.5867 106.273 13.5111 106.376 14.699C106.431 15.3194 106.242 15.9175 105.843 16.3931C105.445 16.8679 104.886 17.2107 104.267 17.2655C104.208 17.2705 104.144 17.3249 104.079 17.3249H104.069V17.3245Z" fill="#0057B8"/>
<path d="M87.5051 19.8845C86.4528 19.8845 85.5599 19.1911 85.2834 18.1595C84.9522 16.9241 85.6889 15.6486 86.9254 15.3162C86.9901 15.2989 87.0605 15.2828 87.131 15.27C87.2558 15.2481 87.3873 15.2366 87.5171 15.2366C88.5533 15.2366 89.4985 15.9605 89.7643 16.9575C89.9258 17.5585 89.8438 18.1834 89.5336 18.7209C89.2241 19.2579 88.7239 19.6415 88.124 19.8032C88.0601 19.8206 87.995 19.8354 87.9295 19.8465C87.7828 19.8725 87.6427 19.8845 87.5051 19.8845Z" fill="#0057B8"/>
<path d="M71.6777 25.3865C70.7782 25.3865 69.9784 24.8701 69.5911 24.0385C69.0505 22.8794 69.5545 21.4955 70.7143 20.9531C70.7761 20.9247 70.8429 20.8962 70.91 20.8719C71.1527 20.7836 71.4119 20.7378 71.676 20.7378C72.5854 20.7378 73.4169 21.2629 73.7947 22.0759C74.0584 22.6394 74.0856 23.2692 73.8734 23.8529C73.662 24.4358 73.236 24.901 72.6731 25.1642C72.6163 25.1906 72.5549 25.2166 72.4923 25.2389C72.2199 25.3383 71.9496 25.3865 71.6777 25.3865Z" fill="#0057B8"/>
<path d="M57.0509 33.5559C56.3034 33.5559 55.5956 33.1822 55.1576 32.5564C54.8036 32.0507 54.6677 31.4353 54.7756 30.8236C54.8836 30.211 55.2223 29.6781 55.7286 29.3225C55.7847 29.2833 55.8453 29.2441 55.9066 29.2087C56.2458 29.0127 56.6392 28.908 57.0414 28.908C57.8107 28.908 58.5268 29.2763 58.9573 29.893C59.3146 30.402 59.4505 31.0174 59.343 31.6287C59.2359 32.2396 58.8972 32.7717 58.3883 33.129C58.3372 33.1644 58.2808 33.2011 58.2223 33.2341C57.8552 33.4466 57.4534 33.5559 57.0509 33.5559Z" fill="#0057B8"/>
<path d="M44.0624 44.1442C43.4481 44.1442 42.865 43.8992 42.4205 43.4545C41.9841 43.0177 41.7435 42.4357 41.7439 41.8145C41.7439 41.1929 41.9849 40.6092 42.4221 40.1711C42.4715 40.1216 42.5247 40.0726 42.5787 40.0268C42.9825 39.6877 43.5086 39.4988 44.0554 39.4988C44.6833 39.4988 45.2676 39.7376 45.7002 40.1715C46.1403 40.6113 46.3813 41.1937 46.3813 41.8141C46.3817 42.4336 46.1399 43.0173 45.7011 43.4574C45.6574 43.5012 45.6075 43.5474 45.556 43.5898C45.1213 43.9545 44.6079 44.1442 44.0624 44.1442Z" fill="#0057B8"/>
<path d="M33.107 56.8288C32.6307 56.8288 32.1675 56.6807 31.767 56.4002C30.7201 55.6672 30.4654 54.2161 31.1993 53.1659C31.2384 53.1106 31.2808 53.0537 31.3257 53.0001C31.7609 52.4812 32.4098 52.1833 33.1066 52.1833C33.5866 52.1833 34.0431 52.3265 34.4279 52.5967C34.9376 52.9526 35.2763 53.4843 35.3834 54.0956C35.4918 54.7061 35.355 55.3228 34.9986 55.8326C34.9628 55.8834 34.9224 55.937 34.8795 55.9873C34.4284 56.5252 33.7856 56.8288 33.107 56.8288Z" fill="#0057B8"/>
<path d="M24.5174 71.2255C24.175 71.2255 23.84 71.15 23.5215 71.0015C22.9624 70.7408 22.5376 70.276 22.3254 69.6923C22.1132 69.1082 22.1404 68.4771 22.4016 67.9157C22.4309 67.853 22.463 67.7895 22.4976 67.7289C22.9059 67.021 23.681 66.5801 24.5186 66.5801C24.8557 66.5801 25.1799 66.6519 25.482 66.7933C26.0456 67.0553 26.4708 67.5201 26.6826 68.1034C26.8952 68.6862 26.8672 69.3169 26.6052 69.8808C26.5792 69.9357 26.5491 69.9951 26.5158 70.052C26.0897 70.7916 25.3456 71.2255 24.5174 71.2255Z" fill="#0057B8"/>
<path d="M18.5526 86.8975C18.3457 86.8975 18.1377 86.8699 17.9337 86.8151C17.3375 86.6554 16.8385 86.2714 16.5283 85.7335C16.218 85.1952 16.1348 84.569 16.2951 83.9709C16.3128 83.9045 16.3338 83.8361 16.3577 83.7701C16.6873 82.8634 17.5678 82.2529 18.5476 82.2529C18.7454 82.2529 18.9428 82.2789 19.1344 82.3309C19.7351 82.4909 20.2345 82.8745 20.5444 83.412C20.8546 83.9491 20.9366 84.5748 20.7763 85.1762C20.7607 85.2331 20.7417 85.2975 20.7178 85.3598C20.3762 86.2986 19.5283 86.8975 18.5526 86.8975Z" fill="#0057B8"/>
<path d="M15.3875 103.368C15.3171 103.368 15.2458 103.366 15.1745 103.359C13.9013 103.248 12.9561 102.119 13.0669 100.843C13.0731 100.776 13.0814 100.705 13.0933 100.637C13.2853 99.5468 14.2676 98.7251 15.3789 98.7251C15.4452 98.7251 15.5115 98.728 15.5783 98.7338C16.1976 98.787 16.7559 99.0782 17.1543 99.5534C17.5532 100.028 17.7427 100.63 17.6891 101.25C17.6834 101.311 17.6751 101.378 17.6632 101.444C17.4666 102.564 16.5103 103.368 15.3875 103.368Z" fill="#0057B8"/>
<path d="M15.1199 120.141C13.9308 120.141 12.9176 119.209 12.8134 118.02C12.8076 117.953 12.8039 117.881 12.8035 117.81C12.8035 116.621 13.7334 115.609 14.9209 115.505C14.9943 115.499 15.0647 115.496 15.1343 115.496C15.6803 115.496 16.1924 115.684 16.6156 116.039C17.0899 116.437 17.3812 116.997 17.436 117.617C17.4409 117.677 17.4442 117.745 17.4438 117.812C17.4442 119.033 16.5332 120.025 15.3251 120.131C15.2563 120.138 15.1875 120.141 15.1199 120.141Z" fill="#0057B8"/>
<path d="M17.7852 136.703C16.7374 136.703 15.8157 135.995 15.5442 134.98C15.5265 134.913 15.51 134.843 15.4976 134.774C15.292 133.605 16.032 132.445 17.1837 132.138C17.3864 132.083 17.5903 132.056 17.7926 132.056C18.1923 132.056 18.5908 132.165 18.9451 132.369C19.4812 132.678 19.8652 133.179 20.0263 133.781C20.0415 133.839 20.0572 133.906 20.0683 133.972C20.2805 135.174 19.5553 136.308 18.3835 136.623C18.1874 136.676 17.9863 136.703 17.7852 136.703Z" fill="#0057B8"/>
<path d="M23.2829 152.55C22.3822 152.55 21.5548 152.023 21.1745 151.208C21.1449 151.144 21.1173 151.078 21.0934 151.014C20.6879 149.897 21.2153 148.627 22.2961 148.124C22.6105 147.977 22.9385 147.903 23.2743 147.903C23.5429 147.903 23.8107 147.95 24.0695 148.044C24.6525 148.257 25.1169 148.683 25.3806 149.247C25.4057 149.301 25.4317 149.362 25.4539 149.425C25.8721 150.574 25.355 151.818 24.2553 152.332C23.9475 152.476 23.6204 152.55 23.2829 152.55Z" fill="#0057B8"/>
<path d="M31.443 167.2C30.6828 167.2 29.97 166.831 29.5366 166.21C29.4945 166.151 29.4575 166.093 29.4237 166.035C28.8299 165.004 29.1291 163.661 30.106 162.979C30.4999 162.701 30.9556 162.556 31.4278 162.556C31.5642 162.556 31.7026 162.568 31.8394 162.592C32.4501 162.7 32.9816 163.039 33.3384 163.548C33.3726 163.598 33.4097 163.655 33.4431 163.714C34.0529 164.77 33.7595 166.085 32.7661 166.782C32.3763 167.055 31.9185 167.2 31.443 167.2Z" fill="#0057B8"/>
<path d="M42.0127 180.21C41.3913 180.21 40.8087 179.969 40.3711 179.531C40.3209 179.482 40.2722 179.428 40.2269 179.375C39.4659 178.467 39.5281 177.092 40.3716 176.248C40.8095 175.808 41.3909 175.568 42.0106 175.568C42.6328 175.568 43.2142 175.81 43.6538 176.248C43.6971 176.293 43.744 176.343 43.7873 176.396C44.5693 177.328 44.5084 178.674 43.6509 179.532C43.2146 179.97 42.6328 180.21 42.0127 180.21Z" fill="#0057B8"/>
<path d="M54.6806 191.185C54.2038 191.185 53.7453 191.041 53.3538 190.766C53.2928 190.723 53.2368 190.681 53.1836 190.636C52.2776 189.875 52.1 188.511 52.7848 187.534C53.14 187.024 53.6711 186.685 54.2817 186.578C54.4197 186.553 54.5578 186.541 54.6942 186.541C55.1651 186.541 55.6225 186.687 56.0172 186.963C56.0675 186.999 56.121 187.039 56.1713 187.082C57.1058 187.866 57.2793 189.202 56.5837 190.198C56.1515 190.816 55.4399 191.185 54.6806 191.185Z" fill="#0057B8"/>
<path d="M69.0613 199.792C68.723 199.792 68.3951 199.718 68.0856 199.574C68.0168 199.542 67.9542 199.509 67.894 199.475C66.8709 198.884 66.4597 197.571 66.9645 196.49C67.2261 195.926 67.6901 195.5 68.2723 195.288C68.5323 195.193 68.7997 195.146 69.0683 195.146C69.4049 195.146 69.735 195.22 70.049 195.366C70.1013 195.39 70.1631 195.422 70.222 195.458C71.2772 196.067 71.6798 197.352 71.1672 198.452C70.7894 199.266 69.9628 199.792 69.0613 199.792Z" fill="#0057B8"/>
<path d="M84.7228 205.766C84.5217 205.766 84.3198 205.74 84.1229 205.687C84.0537 205.668 83.9869 205.648 83.9226 205.625C82.8069 205.218 82.174 203.997 82.4834 202.845C82.6433 202.244 83.0265 201.744 83.5633 201.434C83.9181 201.229 84.3161 201.121 84.7166 201.121C84.9198 201.121 85.125 201.147 85.326 201.201C85.3854 201.217 85.4501 201.237 85.5131 201.261C86.6577 201.677 87.277 202.874 86.9639 204.047C86.6936 205.059 85.7719 205.766 84.7228 205.766Z" fill="#0057B8"/>
<path d="M101.181 208.928C101.113 208.928 101.045 208.925 100.976 208.919C100.904 208.912 100.836 208.904 100.77 208.893C99.5997 208.686 98.7645 207.593 98.8692 206.404C98.9224 205.785 99.2132 205.227 99.6879 204.828C100.112 204.471 100.626 204.283 101.175 204.283C101.245 204.283 101.314 204.286 101.384 204.292C101.442 204.298 101.51 204.306 101.576 204.318C102.778 204.53 103.595 205.6 103.49 206.81C103.387 207.997 102.372 208.928 101.181 208.928Z" fill="#0057B8"/>
<path d="M118.537 213.584C118.492 213.584 118.446 213.587 118.398 213.591C117.986 213.627 117.628 213.813 117.362 214.13C117.097 214.448 116.976 214.833 117.012 215.247C117.078 216.014 117.757 216.638 118.523 216.638C118.571 216.638 118.62 216.636 118.661 216.632C119.499 216.558 120.122 215.817 120.048 214.981C119.978 214.172 119.342 213.584 118.537 213.584Z" fill="#0057B8"/>
<path d="M136.515 210.689C136.425 210.689 136.333 210.698 136.23 210.716C136.185 210.724 136.138 210.734 136.103 210.744C135.704 210.851 135.383 211.096 135.176 211.455C134.969 211.813 134.917 212.215 135.025 212.615C135.199 213.27 135.821 213.745 136.503 213.745C136.583 213.745 136.666 213.738 136.766 213.72C136.805 213.714 136.844 213.705 136.89 213.693C137.281 213.588 137.611 213.335 137.815 212.98C138.019 212.627 138.073 212.218 137.969 211.825C137.782 211.136 137.213 210.689 136.515 210.689Z" fill="#0057B8"/>
<path d="M153.702 204.714C153.523 204.714 153.348 204.746 153.18 204.807C153.129 204.826 153.079 204.847 153.044 204.863C152.669 205.039 152.395 205.336 152.254 205.726C152.113 206.113 152.132 206.517 152.307 206.894C152.555 207.427 153.103 207.771 153.705 207.771C153.875 207.771 154.043 207.742 154.203 207.683C154.251 207.666 154.298 207.646 154.328 207.632C154.697 207.459 154.977 207.153 155.117 206.771C155.258 206.387 155.24 205.973 155.068 205.604C154.808 205.047 154.298 204.714 153.702 204.714Z" fill="#0057B8"/>
<path d="M169.587 195.843C169.324 195.843 169.057 195.918 168.819 196.055C168.778 196.079 168.737 196.105 168.708 196.126C168.367 196.365 168.15 196.706 168.079 197.112C168.008 197.519 168.095 197.914 168.333 198.253C168.614 198.658 169.087 198.899 169.598 198.899C169.857 198.899 170.115 198.831 170.329 198.708C170.375 198.681 170.42 198.651 170.452 198.63C170.791 198.392 171.008 198.05 171.078 197.643C171.151 197.233 171.064 196.84 170.829 196.504C170.535 196.084 170.082 195.843 169.587 195.843Z" fill="#0057B8"/>
<path d="M183.693 184.345C183.333 184.345 183.005 184.467 182.719 184.707C182.682 184.737 182.646 184.771 182.617 184.799C182.324 185.094 182.17 185.468 182.17 185.88C182.17 186.293 182.325 186.666 182.618 186.96C182.905 187.246 183.28 187.399 183.701 187.399C184.061 187.399 184.406 187.276 184.673 187.052C184.706 187.023 184.738 186.993 184.771 186.96C185.058 186.672 185.216 186.288 185.216 185.88C185.217 185.473 185.06 185.09 184.772 184.802C184.473 184.503 184.099 184.345 183.693 184.345Z" fill="#0057B8"/>
<path d="M196.475 170.855C196.209 170.668 195.902 170.569 195.589 170.569C195.148 170.569 194.726 170.769 194.432 171.12C194.402 171.157 194.372 171.196 194.351 171.226C194.113 171.567 194.026 171.962 194.098 172.368C194.17 172.775 194.388 173.117 194.726 173.353C194.976 173.529 195.275 173.622 195.591 173.622C196.052 173.622 196.48 173.427 196.766 173.085C196.796 173.048 196.825 173.01 196.846 172.98C197.079 172.646 197.17 172.241 197.1 171.84C197.03 171.438 196.807 171.087 196.475 170.855Z" fill="#0057B8"/>
<path d="M205.578 155.083C205.363 154.984 205.147 154.935 204.918 154.935C204.371 154.935 203.894 155.217 203.613 155.706C203.588 155.747 203.567 155.789 203.553 155.82C203.378 156.196 203.36 156.6 203.501 156.987C203.642 157.375 203.915 157.673 204.292 157.85C204.489 157.942 204.694 157.987 204.918 157.987C205.473 157.987 205.983 157.7 206.247 157.242C206.272 157.199 206.295 157.154 206.316 157.113C206.67 156.349 206.339 155.439 205.578 155.083Z" fill="#0057B8"/>
<path d="M211.811 137.971C211.675 137.934 211.536 137.915 211.398 137.915C210.751 137.915 210.209 138.3 209.983 138.921C209.966 138.969 209.951 139.019 209.943 139.046C209.836 139.447 209.888 139.848 210.095 140.207C210.302 140.565 210.623 140.811 211.022 140.917C211.145 140.951 211.273 140.968 211.402 140.968C212.049 140.968 212.63 140.567 212.847 139.972C212.864 139.926 212.877 139.878 212.887 139.842C213.105 139.027 212.622 138.188 211.811 137.971Z" fill="#0057B8"/>
<path d="M214.978 120.034C214.929 120.03 214.881 120.028 214.833 120.028C214.098 120.028 213.472 120.558 213.343 121.289C213.334 121.338 213.329 121.387 213.326 121.418C213.29 121.833 213.411 122.219 213.676 122.535C213.943 122.852 214.302 123.039 214.713 123.074C214.756 123.078 214.798 123.08 214.841 123.08C215.573 123.08 216.219 122.539 216.345 121.82C216.353 121.774 216.36 121.729 216.362 121.689C216.397 121.284 216.273 120.888 216.012 120.575C215.75 120.261 215.383 120.07 214.978 120.034Z" fill="#0057B8"/>
<path d="M213.599 103.471C213.636 103.884 213.823 104.243 214.139 104.509C214.417 104.742 214.752 104.865 215.108 104.865C215.154 104.865 215.2 104.863 215.254 104.858C216.02 104.792 216.644 104.114 216.644 103.347C216.644 103.3 216.64 103.253 216.637 103.209C216.57 102.439 215.89 101.814 215.123 101.814C215.079 101.814 215.034 101.816 214.987 101.82C214.18 101.891 213.594 102.532 213.594 103.34C213.594 103.38 213.596 103.421 213.599 103.471Z" fill="#0057B8"/>
<path d="M210.756 85.7476C210.864 86.1481 211.109 86.469 211.467 86.6753C211.7 86.8106 211.961 86.8819 212.221 86.8819C212.354 86.8819 212.49 86.8634 212.625 86.8271C213.369 86.6283 213.865 85.8507 213.732 85.0959C213.723 85.0476 213.713 84.9993 213.702 84.9614C213.523 84.294 212.917 83.8279 212.229 83.8279C212.098 83.8279 211.966 83.8452 211.837 83.8803C211.054 84.0906 210.589 84.8261 210.73 85.6317C210.738 85.675 210.749 85.7191 210.756 85.7476Z" fill="#0057B8"/>
<path d="M207.646 67.5016C207.396 66.9654 206.851 66.6189 206.257 66.6189C206.033 66.6189 205.825 66.6655 205.621 66.7616C204.886 67.1044 204.556 67.9092 204.833 68.6694C204.849 68.7168 204.87 68.7642 204.881 68.7869C205.057 69.1639 205.355 69.4374 205.742 69.5777C205.913 69.6404 206.09 69.6721 206.266 69.6721C206.486 69.6721 206.697 69.6239 206.91 69.5253C207.606 69.2002 207.961 68.3501 207.699 67.6291C207.683 67.5858 207.664 67.5429 207.646 67.5016Z" fill="#0057B8"/>
<path d="M198.655 51.3594C198.37 50.9519 197.899 50.7085 197.398 50.7085C197.084 50.7085 196.793 50.8005 196.533 50.9824C195.869 51.4481 195.684 52.3015 196.093 53.0077C196.115 53.0457 196.138 53.0824 196.155 53.1063C196.394 53.447 196.735 53.6644 197.14 53.7353C197.232 53.7518 197.324 53.7601 197.414 53.7601C197.726 53.7601 198.018 53.666 198.28 53.4812C198.911 53.0403 199.112 52.139 198.728 51.4733C198.704 51.4324 198.678 51.3916 198.655 51.3594Z" fill="#0057B8"/>
<path d="M187 37.0221C186.71 36.7321 186.326 36.5725 185.92 36.5725C185.507 36.5725 185.126 36.7276 184.845 37.0093C184.325 37.5291 184.245 38.3149 184.65 38.9196L184.695 38.9761L184.734 39.0107C184.748 39.0235 184.762 39.0404 184.777 39.0565L184.849 39.1733C184.942 39.2681 185.226 39.5989 185.919 39.5989H185.921C186.618 39.5989 186.902 39.2648 187 39.1634C187.549 38.6156 187.586 37.7328 187.088 37.1401C187.059 37.1042 187.026 37.0485 187 37.0221Z" fill="#0057B8"/>
<path d="M173.035 24.936C172.778 24.7558 172.477 24.6609 172.164 24.6609C171.664 24.6609 171.195 24.9026 170.912 25.3085C170.447 25.9738 170.56 26.8347 171.178 27.3528C171.213 27.3829 171.251 27.4114 171.283 27.4341C171.544 27.616 171.843 27.7125 172.15 27.7125C172.239 27.7125 172.331 27.7046 172.424 27.6881C172.83 27.6164 173.171 27.3982 173.409 27.0579C173.851 26.4276 173.731 25.5123 173.143 25.0185C173.106 24.9868 173.066 24.9575 173.035 24.936Z" fill="#0057B8"/>
<path d="M157.305 15.5204C157.264 15.4964 157.221 15.475 157.184 15.4581C156.978 15.362 156.769 15.3149 156.544 15.3149C155.951 15.3149 155.406 15.6598 155.158 16.1935C154.816 16.9294 155.082 17.7602 155.787 18.1677C155.823 18.1892 155.862 18.2081 155.893 18.2217C156.104 18.3199 156.314 18.3678 156.537 18.3678C156.713 18.3678 156.889 18.336 157.059 18.2733C157.447 18.1322 157.745 17.8588 157.92 17.4826C158.246 16.7846 157.969 15.904 157.305 15.5204Z" fill="#0057B8"/>
<path d="M140.069 8.92146C140.023 8.90496 139.975 8.89011 139.932 8.87856C139.802 8.84391 139.669 8.82617 139.538 8.82617C138.848 8.82617 138.242 9.29063 138.064 9.95515C137.855 10.7393 138.262 11.5115 139.033 11.792C139.071 11.806 139.11 11.8175 139.141 11.8258C139.274 11.8617 139.41 11.8798 139.544 11.8798C139.804 11.8798 140.065 11.8089 140.298 11.674C140.656 11.4665 140.902 11.1448 141.008 10.7447C141.208 10.0005 140.787 9.18298 140.069 8.92146Z" fill="#0057B8"/>
<path d="M121.941 5.41692C121.892 5.40867 121.842 5.40248 121.8 5.39877C121.754 5.39464 121.708 5.39258 121.664 5.39258C120.893 5.39258 120.212 6.01667 120.146 6.7839C120.076 7.59238 120.605 8.28165 121.407 8.42272C121.452 8.43097 121.498 8.43591 121.529 8.4388C121.576 8.44293 121.623 8.445 121.67 8.445C122.035 8.445 122.363 8.32455 122.645 8.08737C122.961 7.82131 123.147 7.46162 123.183 7.04872C123.25 6.28232 122.694 5.55015 121.941 5.41692Z" fill="#0057B8"/>
<path d="M103.476 5.10817L103.33 5.10693L103.305 5.10982C102.488 5.20057 101.882 5.93191 101.953 6.73957C102.023 7.54021 102.653 8.09912 103.486 8.09912C103.546 8.09912 103.6 8.10366 103.647 8.10902L103.708 8.11645L103.768 8.10573C104.131 8.0422 104.424 7.87927 104.639 7.62229C104.904 7.3055 105.025 6.91817 104.988 6.5028C104.921 5.72113 104.255 5.10817 103.476 5.10817Z" fill="#0057B8"/>
<path d="M85.4966 8.00977C85.4142 8.00977 85.3285 8.01719 85.2519 8.0308C85.2032 8.03946 85.1542 8.05101 85.1126 8.06215C84.7195 8.16775 84.3903 8.42019 84.1863 8.77287C83.9816 9.12596 83.9272 9.5368 84.0322 9.9299C84.2172 10.6196 84.7871 11.0651 85.4838 11.0651C85.5757 11.0651 85.6692 11.0568 85.7739 11.0383C85.8143 11.0312 85.8547 11.0222 85.8975 11.0106C86.2984 10.903 86.619 10.6571 86.825 10.2995C87.0314 9.94186 87.0833 9.54051 86.9758 9.13916C86.8011 8.48454 86.1789 8.00977 85.4966 8.00977Z" fill="#0057B8"/>
<path d="M68.2946 13.9841C68.1241 13.9841 67.9592 14.0126 67.8047 14.0691C67.7586 14.086 67.7124 14.1054 67.6712 14.1244C67.3025 14.2972 67.0223 14.6033 66.8826 14.9873C66.7429 15.3705 66.7606 15.7838 66.932 16.1509C67.1912 16.7078 67.7013 17.0398 68.2967 17.0398C68.478 17.0398 68.6593 17.0056 68.848 16.9367C68.8843 16.9239 68.9197 16.9083 68.9559 16.8922C69.3321 16.716 69.6049 16.4174 69.7454 16.0297C69.8867 15.6415 69.8682 15.2373 69.6927 14.8615C69.4459 14.3282 68.8966 13.9841 68.2946 13.9841Z" fill="#0057B8"/>
<path d="M52.4028 22.8569C52.1407 22.8569 51.8878 22.9229 51.6686 23.0492C51.6269 23.0739 51.5861 23.1003 51.5482 23.1267C51.2108 23.3639 50.994 23.7054 50.9219 24.1146C50.8502 24.5221 50.9368 24.9152 51.1716 25.2506C51.4613 25.6643 51.9257 25.9118 52.4131 25.9118C52.6793 25.9118 52.9425 25.838 53.1931 25.6932C53.231 25.6718 53.2672 25.6478 53.294 25.6289C53.6335 25.3904 53.8507 25.0493 53.922 24.6422C53.9932 24.2351 53.9055 23.8399 53.6673 23.5008C53.3859 23.0978 52.9133 22.8569 52.4028 22.8569Z" fill="#0057B8"/>
<path d="M38.2991 34.3569C37.944 34.3569 37.5937 34.4803 37.337 34.6956C37.2987 34.7278 37.2617 34.7628 37.2295 34.795C36.9378 35.0866 36.7837 35.4608 36.7837 35.8761C36.7837 36.2903 36.937 36.6627 37.227 36.9523C37.5262 37.2518 37.8995 37.4098 38.307 37.4098C38.672 37.4098 38.9955 37.2868 39.293 37.0369C39.3272 37.0092 39.3593 36.9787 39.3816 36.956C39.6749 36.6619 39.8299 36.2878 39.8294 35.8753C39.8294 35.4624 39.6737 35.0883 39.3803 34.795C39.0956 34.5083 38.7215 34.3569 38.2991 34.3569Z" fill="#0057B8"/>
<path d="M27.2726 48.4014C27.0234 48.2261 26.7251 48.1333 26.4094 48.1333C25.948 48.1333 25.5215 48.3259 25.2401 48.6621C25.2084 48.7001 25.1787 48.7401 25.154 48.7751C24.9208 49.1092 24.8309 49.5147 24.9018 49.9173C24.9727 50.3195 25.1948 50.6685 25.5264 50.9003C25.793 51.0871 26.0988 51.1857 26.4107 51.1857C26.8586 51.1857 27.2747 50.984 27.5792 50.6202C27.6056 50.5893 27.6295 50.5563 27.6488 50.529C27.8866 50.1887 27.9743 49.7932 27.9018 49.3864C27.8301 48.9797 27.6126 48.6386 27.2726 48.4014Z" fill="#0057B8"/>
<path d="M17.7066 63.9052C17.5092 63.8128 17.3053 63.7678 17.0823 63.7678C16.5269 63.7678 16.016 64.0553 15.7494 64.5177C15.7247 64.5602 15.7029 64.6048 15.6855 64.6423C15.5113 65.0164 15.494 65.4203 15.6357 65.8105C15.777 66.1999 16.0486 66.4973 16.4202 66.6705C16.6365 66.7712 16.8528 66.8202 17.0811 66.8202C17.6283 66.8202 18.1079 66.5323 18.393 66.0373C18.414 66.0027 18.4317 65.9664 18.4462 65.935C18.6213 65.5584 18.6386 65.1538 18.4969 64.7665C18.3563 64.3783 18.0828 64.0801 17.7066 63.9052Z" fill="#0057B8"/>
<path d="M10.9762 80.8374C10.853 80.804 10.7261 80.7871 10.5984 80.7871C9.95069 80.7871 9.37096 81.1843 9.15588 81.7775C9.1394 81.8233 9.12539 81.8711 9.11344 81.914C9.00672 82.3125 9.05988 82.7134 9.26755 83.0731C9.47397 83.432 9.79288 83.6778 10.1884 83.7834C10.3261 83.8206 10.4653 83.8395 10.6038 83.8395C11.2502 83.8395 11.795 83.4448 12.0228 82.8166C12.036 82.7823 12.0463 82.7477 12.057 82.7085C12.1641 82.3067 12.1114 81.9054 11.9046 81.5477C11.6985 81.1901 11.3772 80.9443 10.9762 80.8374Z" fill="#0057B8"/>
<path d="M7.01981 101.721C7.06884 101.725 7.11746 101.727 7.16567 101.727C7.90114 101.727 8.52868 101.19 8.65805 100.453C8.66588 100.409 8.67083 100.365 8.6733 100.337C8.70915 99.9229 8.5876 99.5368 8.32142 99.22C8.05648 98.9036 7.6976 98.718 7.28681 98.6825C7.24354 98.6788 7.19987 98.6768 7.15619 98.6768C6.42566 98.6768 5.78 99.2155 5.65433 99.9295C5.64609 99.9761 5.64115 100.024 5.63703 100.067C5.60159 100.472 5.72602 100.868 5.98725 101.181C6.24848 101.493 6.61519 101.685 7.01981 101.721Z" fill="#0057B8"/>
<path d="M8.40121 118.285C8.36453 117.871 8.17788 117.512 7.86144 117.246C7.58332 117.013 7.24833 116.89 6.89275 116.89C6.8466 116.89 6.80005 116.892 6.74689 116.897C5.98051 116.963 5.35669 117.638 5.35669 118.402C5.35669 118.451 5.35999 118.501 5.36369 118.547C5.43127 119.315 6.1103 119.941 6.87709 119.941C6.92489 119.941 6.97269 119.938 7.01306 119.935C7.82065 119.864 8.40615 119.216 8.40574 118.398C8.40615 118.355 8.40368 118.311 8.40121 118.285Z" fill="#0057B8"/>
<path d="M11.2443 136.009C11.1364 135.607 10.8908 135.286 10.5336 135.081C10.2995 134.945 10.0387 134.874 9.77913 134.874C9.64769 134.874 9.51213 134.892 9.3741 134.928C8.63079 135.128 8.13388 135.902 8.26656 136.657C8.27521 136.705 8.28715 136.754 8.29787 136.795C8.47669 137.462 9.08238 137.928 9.77089 137.928C9.90068 137.928 10.0321 137.91 10.1627 137.875C10.946 137.665 11.4112 136.927 11.269 136.124C11.262 136.081 11.2517 136.038 11.2443 136.009Z" fill="#0057B8"/>
<path d="M17.1186 152.969C16.9422 152.591 16.6439 152.318 16.2566 152.177C16.0848 152.115 15.9084 152.083 15.7333 152.083C15.5116 152.083 15.3011 152.132 15.0905 152.23C14.393 152.554 14.0378 153.403 14.2994 154.123C14.3155 154.167 14.3345 154.212 14.3542 154.254C14.6039 154.79 15.149 155.136 15.742 155.136C15.9645 155.136 16.1725 155.09 16.3781 154.994C17.1128 154.651 17.4416 153.841 17.161 153.07C17.1482 153.035 17.133 152.999 17.1186 152.969Z" fill="#0057B8"/>
<path d="M25.8459 168.648C25.6086 168.309 25.2666 168.091 24.8579 168.02C24.768 168.004 24.677 167.995 24.5859 167.995C24.2748 167.995 23.9835 168.09 23.7207 168.275C23.0898 168.716 22.8879 169.614 23.2715 170.278C23.2921 170.314 23.3148 170.349 23.3474 170.396C23.6321 170.804 24.1018 171.047 24.6024 171.047C24.9135 171.047 25.2126 170.952 25.4677 170.773C26.1319 170.307 26.3161 169.453 25.9073 168.746C25.8859 168.707 25.8608 168.669 25.8459 168.648Z" fill="#0057B8"/>
<path d="M37.1609 182.574C36.8675 182.282 36.4934 182.126 36.0793 182.126C35.6668 182.126 35.2944 182.282 35.003 182.574C34.4579 183.119 34.4122 184.037 34.9037 184.623C34.9351 184.66 34.9688 184.697 35.0026 184.73C35.2944 185.021 35.6677 185.175 36.0822 185.175C36.4963 185.175 36.8683 185.022 37.1572 184.732C37.7303 184.158 37.7653 183.288 37.2457 182.669C37.2165 182.633 37.1852 182.6 37.1609 182.574Z" fill="#0057B8"/>
<path d="M50.7188 194.322C50.4588 194.14 50.1589 194.043 49.8519 194.043C49.7629 194.043 49.6702 194.052 49.5767 194.069C49.1704 194.14 48.8301 194.358 48.5931 194.697C48.151 195.328 48.2652 196.24 48.8466 196.727C48.8832 196.758 48.9215 196.788 48.9677 196.82C49.2244 197 49.5252 197.095 49.8375 197.095C50.3381 197.095 50.8062 196.852 51.0888 196.447C51.554 195.783 51.4354 194.916 50.8095 194.391C50.7819 194.367 50.7534 194.346 50.7188 194.322Z" fill="#0057B8"/>
<path d="M66.2139 203.59C66.1686 203.562 66.1212 203.539 66.1101 203.534C65.8979 203.435 65.6865 203.388 65.4636 203.388C65.2893 203.388 65.1125 203.42 64.9395 203.483C64.5518 203.624 64.2543 203.898 64.0808 204.273C63.7549 204.97 64.0243 205.847 64.6811 206.226C64.7215 206.25 64.7631 206.272 64.8179 206.298C65.0244 206.394 65.2333 206.441 65.4562 206.441C66.0495 206.441 66.5934 206.096 66.8414 205.562C67.1838 204.826 66.9181 203.996 66.2139 203.59Z" fill="#0057B8"/>
<path d="M82.9767 209.966C82.935 209.951 82.8922 209.938 82.8596 209.929C82.7274 209.893 82.5918 209.876 82.4567 209.876C82.1962 209.876 81.935 209.948 81.7022 210.082C81.3442 210.289 81.0986 210.61 80.9927 211.01C80.7933 211.754 81.216 212.572 81.9404 212.837C81.9783 212.85 82.0178 212.863 82.071 212.877C82.1991 212.911 82.3306 212.929 82.4628 212.929C83.1522 212.929 83.7579 212.465 83.9355 211.8C84.1448 211.016 83.7401 210.244 82.9767 209.966Z" fill="#0057B8"/>
<path d="M100.591 213.333C100.55 213.325 100.509 213.32 100.47 213.317C100.424 213.312 100.377 213.31 100.331 213.31C99.9668 213.31 99.6384 213.431 99.3553 213.669C99.0393 213.934 98.8535 214.292 98.818 214.705C98.7505 215.472 99.31 216.206 100.062 216.338C100.101 216.345 100.141 216.351 100.207 216.356C100.251 216.36 100.294 216.361 100.337 216.361C101.106 216.361 101.787 215.738 101.853 214.972C101.924 214.163 101.391 213.473 100.591 213.333Z" fill="#0057B8"/>
<path d="M118.948 222C118.458 222 118.01 221.586 117.968 221.095C117.943 220.821 118.02 220.576 118.195 220.367C118.37 220.157 118.597 220.04 118.87 220.015C118.9 220.013 118.931 220.01 118.962 220.01C119.493 220.01 119.897 220.385 119.944 220.921C119.992 221.465 119.586 221.947 119.039 221.996C119.013 221.998 118.98 222 118.948 222Z" fill="#0057B8"/>
<path d="M137.945 218.943C137.499 218.943 137.094 218.635 136.98 218.209C136.908 217.943 136.941 217.689 137.078 217.452C137.214 217.216 137.418 217.061 137.682 216.99C137.708 216.982 137.729 216.977 137.75 216.974C137.834 216.959 137.896 216.954 137.958 216.954C138.413 216.954 138.773 217.238 138.896 217.696C138.964 217.949 138.928 218.215 138.795 218.446C138.663 218.676 138.448 218.841 138.192 218.91C138.169 218.916 138.145 218.922 138.12 218.927C138.051 218.938 137.997 218.943 137.945 218.943Z" fill="#0057B8"/>
<path d="M156.121 212.632C155.724 212.632 155.364 212.408 155.203 212.062C155.087 211.812 155.075 211.555 155.168 211.301C155.262 211.043 155.435 210.855 155.683 210.739C155.704 210.729 155.741 210.713 155.779 210.699C155.887 210.659 156.001 210.64 156.117 210.64C156.505 210.64 156.828 210.852 157 211.222C157.112 211.462 157.123 211.731 157.032 211.981C156.941 212.231 156.758 212.43 156.516 212.542C156.491 212.555 156.461 212.567 156.432 212.577C156.334 212.613 156.229 212.632 156.121 212.632Z" fill="#0057B8"/>
<path d="M172.912 203.258C172.574 203.258 172.265 203.101 172.082 202.84C171.925 202.615 171.869 202.364 171.916 202.094C171.963 201.828 172.101 201.612 172.326 201.453C172.343 201.443 172.368 201.426 172.394 201.411C172.557 201.316 172.731 201.267 172.901 201.267C173.219 201.267 173.513 201.425 173.706 201.701C173.862 201.922 173.916 202.171 173.868 202.441C173.821 202.712 173.684 202.928 173.46 203.085C173.442 203.098 173.408 203.12 173.373 203.141C173.244 203.214 173.076 203.258 172.912 203.258Z" fill="#0057B8"/>
<path d="M187.812 191.107C187.53 191.107 187.292 191.012 187.105 190.825C186.91 190.63 186.812 190.393 186.812 190.122C186.812 189.849 186.91 189.612 187.105 189.415C187.119 189.401 187.147 189.377 187.174 189.354C187.362 189.196 187.569 189.119 187.803 189.119C188.07 189.119 188.306 189.221 188.508 189.422C188.693 189.607 188.796 189.856 188.795 190.121C188.795 190.387 188.692 190.638 188.504 190.827C188.488 190.842 188.465 190.865 188.441 190.885C188.27 191.029 188.047 191.107 187.812 191.107Z" fill="#0057B8"/>
<path d="M200.375 176.551C200.17 176.551 199.977 176.492 199.817 176.38C199.592 176.223 199.454 176.007 199.407 175.738C199.359 175.47 199.415 175.219 199.572 174.993C199.586 174.973 199.605 174.947 199.626 174.924C199.817 174.695 200.09 174.564 200.373 174.564C200.577 174.564 200.778 174.629 200.954 174.753C201.17 174.904 201.314 175.133 201.36 175.394C201.405 175.656 201.347 175.919 201.195 176.137C201.179 176.161 201.159 176.186 201.139 176.211C200.959 176.427 200.679 176.551 200.375 176.551Z" fill="#0057B8"/>
<path d="M210.228 160.033C210.083 160.033 209.956 160.005 209.831 159.946C209.581 159.829 209.406 159.64 209.312 159.384C209.22 159.128 209.232 158.872 209.348 158.623C209.356 158.604 209.368 158.58 209.383 158.557C209.573 158.226 209.873 158.045 210.229 158.045C210.381 158.045 210.521 158.078 210.668 158.145C211.162 158.377 211.377 158.969 211.145 159.468C211.137 159.487 211.119 159.52 211.102 159.55C210.929 159.849 210.596 160.033 210.228 160.033Z" fill="#0057B8"/>
<path d="M217.079 142.052C216.998 142.052 216.918 142.041 216.843 142.02C216.574 141.949 216.37 141.793 216.233 141.556C216.097 141.32 216.064 141.065 216.135 140.801C216.141 140.78 216.151 140.748 216.162 140.718C216.31 140.308 216.652 140.063 217.074 140.063C217.166 140.063 217.259 140.076 217.351 140.101C217.879 140.242 218.193 140.789 218.051 141.32C218.045 141.345 218.036 141.375 218.025 141.405C217.885 141.792 217.504 142.052 217.079 142.052Z" fill="#0057B8"/>
<path d="M220.714 123.151C220.687 123.151 220.661 123.15 220.634 123.147C220.36 123.124 220.132 123.005 219.956 122.796C219.781 122.588 219.706 122.343 219.729 122.069C219.731 122.043 219.735 122.013 219.74 121.984C219.824 121.51 220.23 121.164 220.706 121.164C220.739 121.164 220.771 121.166 220.805 121.168C221.068 121.192 221.306 121.316 221.477 121.52C221.647 121.724 221.729 121.982 221.705 122.247C221.703 122.277 221.699 122.304 221.694 122.332C221.612 122.799 221.191 123.151 220.714 123.151Z" fill="#0057B8"/>
<path d="M220.996 103.907C220.766 103.907 220.55 103.827 220.369 103.674C220.161 103.5 220.043 103.272 220.018 102.997C220.016 102.972 220.014 102.946 220.015 102.92C220.015 102.379 220.388 101.971 220.923 101.924C220.954 101.921 220.983 101.92 221.013 101.92C221.503 101.92 221.953 102.336 221.996 102.829C221.999 102.856 222 102.888 222 102.92C222 103.41 221.587 103.859 221.097 103.901C221.057 103.905 221.026 103.907 220.996 103.907Z" fill="#0057B8"/>
<path d="M217.946 84.9062C217.78 84.9062 217.611 84.8596 217.458 84.7709C217.222 84.6348 217.066 84.4314 216.995 84.1662C216.991 84.1505 216.983 84.1216 216.979 84.0932C216.885 83.5611 217.182 83.0904 217.7 82.951C217.784 82.9283 217.869 82.9167 217.954 82.9167C218.403 82.9167 218.797 83.2208 218.914 83.6559C218.92 83.679 218.927 83.7112 218.933 83.7434C219.019 84.2268 218.689 84.7416 218.214 84.8691C218.122 84.8942 218.033 84.9062 217.946 84.9062Z" fill="#0057B8"/>
<path d="M211.653 66.7238C211.54 66.7238 211.425 66.7028 211.311 66.6615C211.056 66.5687 210.867 66.395 210.751 66.1455C210.745 66.1331 210.733 66.1075 210.725 66.0824C210.537 65.5676 210.747 65.0549 211.233 64.8284C211.368 64.7653 211.499 64.7356 211.644 64.7356C212.032 64.7356 212.389 64.9616 212.552 65.3114C212.563 65.3366 212.576 65.3679 212.588 65.3997C212.754 65.8559 212.518 66.4194 212.072 66.6269C211.93 66.6928 211.798 66.7238 211.653 66.7238Z" fill="#0057B8"/>
<path d="M202.299 49.9114C202.24 49.9114 202.179 49.9061 202.118 49.8953C201.849 49.8483 201.633 49.7101 201.475 49.4845C201.464 49.4684 201.452 49.4498 201.441 49.43C201.167 48.9553 201.284 48.4104 201.723 48.1027C201.893 47.983 202.076 47.9253 202.282 47.9253C202.612 47.9253 202.918 48.0837 203.105 48.3493C203.122 48.3737 203.138 48.3997 203.153 48.4256C203.398 48.8493 203.264 49.4465 202.861 49.7287C202.685 49.8516 202.502 49.9114 202.299 49.9114Z" fill="#0057B8"/>
<path d="M190.154 35.0615C189.89 35.0615 189.668 34.9142 189.528 34.7983L189.498 34.6882L189.382 34.5822C189.37 34.5644 189.353 34.5393 189.332 34.5195L189.326 34.5104C189.062 34.1157 189.119 33.6108 189.457 33.2729C189.638 33.0919 189.886 32.9912 190.155 32.9912C190.421 32.9912 190.671 33.0952 190.86 33.2845C190.878 33.3026 190.899 33.3208 190.921 33.3393C191.236 33.7386 191.211 34.3755 190.859 34.7265C190.77 34.8185 190.534 35.0615 190.156 35.0615H190.154Z" fill="#0057B8"/>
<path d="M175.608 22.3908C175.411 22.3908 175.217 22.3277 175.046 22.2081C175.028 22.1957 175.006 22.1792 174.985 22.1615C174.57 21.8129 174.499 21.2652 174.806 20.8242C174.99 20.5615 175.296 20.4043 175.623 20.4043C175.825 20.4043 176.021 20.4662 176.188 20.5833C176.206 20.5957 176.233 20.6159 176.259 20.6374C176.634 20.9525 176.713 21.5597 176.432 21.9627C176.273 22.1883 176.057 22.3269 175.788 22.3743C175.727 22.3855 175.666 22.3908 175.608 22.3908Z" fill="#0057B8"/>
<path d="M159.111 12.5177C158.966 12.5177 158.832 12.4872 158.691 12.4212C158.67 12.4113 158.65 12.4018 158.631 12.3907C158.159 12.1176 157.989 11.5872 158.214 11.1C158.376 10.7539 158.731 10.5295 159.119 10.5295C159.266 10.5295 159.398 10.5592 159.534 10.6228C159.558 10.6335 159.586 10.6483 159.614 10.664C160.038 10.909 160.221 11.4931 160.012 11.9394C159.896 12.189 159.708 12.3618 159.452 12.455C159.338 12.4967 159.224 12.5177 159.111 12.5177Z" fill="#0057B8"/>
<path d="M141.156 5.66317C141.069 5.66317 140.979 5.65079 140.89 5.62687C140.873 5.62233 140.851 5.61655 140.83 5.60872C140.313 5.42062 140.052 4.9277 140.19 4.40879C140.306 3.9765 140.7 3.67456 141.15 3.67456C141.235 3.67456 141.321 3.68611 141.407 3.70921C141.433 3.71663 141.468 3.72653 141.5 3.73808C141.956 3.90431 142.234 4.44632 142.107 4.92234C142.036 5.1888 141.88 5.39258 141.643 5.52911C141.491 5.61656 141.323 5.66317 141.156 5.66317Z" fill="#0057B8"/>
<path d="M122.275 2.034C122.244 2.034 122.212 2.03276 122.18 2.02987C122.163 2.02822 122.134 2.02492 122.103 2.01997C121.573 1.92634 121.234 1.48704 121.28 0.95163C121.323 0.460769 121.775 0.0466309 122.268 0.0466309C122.298 0.0466309 122.328 0.0482752 122.359 0.0511626C122.388 0.0536375 122.423 0.0581773 122.459 0.0639521C122.933 0.147687 123.301 0.632777 123.257 1.12323C123.234 1.39836 123.116 1.62604 122.907 1.80176C122.721 1.95769 122.514 2.034 122.275 2.034Z" fill="#0057B8"/>
<path d="M103.307 1.68419C103.236 1.67511 103.153 1.66851 103.061 1.66851C102.842 1.66851 102.121 1.61201 102.058 0.88314C102.035 0.626572 102.12 0.413727 102.29 0.227694C102.448 0.0548618 102.662 0 102.893 0H103.049C103.586 0 103.991 0.297403 104.032 0.781252C104.056 1.04648 103.988 1.23251 103.806 1.4499C103.698 1.57859 103.547 1.65202 103.334 1.70069L103.307 1.68419Z" fill="#0057B8"/>
<path d="M84.0419 4.80219C83.5866 4.80219 83.2277 4.51799 83.1053 4.06095C83.0369 3.80604 83.0723 3.53874 83.2054 3.3094C83.3389 3.07882 83.5532 2.91424 83.8095 2.84576C83.8354 2.83916 83.8688 2.8305 83.9026 2.82473C83.9516 2.81607 84.0048 2.81152 84.0559 2.81152C84.5017 2.81152 84.9075 3.12048 85.0213 3.54575C85.093 3.81222 85.06 4.06672 84.924 4.30226C84.7881 4.53861 84.5845 4.69412 84.3191 4.76548C84.2924 4.77291 84.2693 4.77786 84.2466 4.78198C84.1692 4.7956 84.1053 4.80219 84.0419 4.80219Z" fill="#0057B8"/>
<path d="M65.8824 11.1149C65.4942 11.1149 65.1729 10.9028 65.0006 10.5328C64.8894 10.294 64.8783 10.0259 64.9689 9.77675C65.0604 9.52595 65.2429 9.3259 65.4835 9.2137C65.5099 9.20133 65.542 9.18771 65.5746 9.17575C65.6694 9.1411 65.772 9.12378 65.8799 9.12378C66.2767 9.12378 66.6364 9.34693 66.7967 9.69218C66.9141 9.94256 66.9256 10.1983 66.8325 10.4541C66.7394 10.711 66.5659 10.9004 66.3171 11.0175C66.2981 11.0258 66.2796 11.034 66.2602 11.041C66.1209 11.0918 66.0023 11.1149 65.8824 11.1149Z" fill="#0057B8"/>
<path d="M49.0994 20.4884C48.7854 20.4884 48.4846 20.3259 48.2943 20.0536C48.1394 19.8333 48.0854 19.585 48.1324 19.3157C48.1802 19.0447 48.3174 18.8277 48.5407 18.671C48.5633 18.6557 48.5951 18.6347 48.628 18.6153C48.7587 18.5398 48.9193 18.4985 49.0887 18.4985C49.4261 18.4985 49.7364 18.6536 49.9185 18.9143C50.0763 19.1395 50.1328 19.3899 50.0854 19.6589C50.0384 19.9278 49.9004 20.144 49.6754 20.3023C49.6635 20.3106 49.6416 20.3255 49.6186 20.3387C49.4447 20.4385 49.2712 20.4884 49.0994 20.4884Z" fill="#0057B8"/>
<path d="M34.1965 32.637C33.9299 32.637 33.693 32.5351 33.4928 32.3346C33.302 32.144 33.2056 31.9089 33.2056 31.6354C33.2056 31.3603 33.3032 31.1235 33.4956 30.9309C33.5171 30.9099 33.5426 30.8851 33.5694 30.8624C33.7284 30.7288 33.9596 30.6492 34.1883 30.6492C34.4709 30.6492 34.7083 30.7436 34.8937 30.9301C35.089 31.1252 35.1874 31.362 35.1874 31.6346C35.1879 31.9073 35.089 32.1444 34.8949 32.3391C34.8805 32.354 34.8644 32.3692 34.8475 32.3829C34.639 32.5573 34.4334 32.637 34.1965 32.637Z" fill="#0057B8"/>
<path d="M21.6265 47.1915C21.4246 47.1915 21.2239 47.1259 21.0467 47.0017C20.8312 46.8512 20.687 46.6243 20.6409 46.3624C20.5947 46.1004 20.6532 45.836 20.8053 45.6182C20.8209 45.5964 20.8411 45.5679 20.8638 45.5411C21.043 45.327 21.3207 45.2041 21.6256 45.2041C21.8308 45.2041 22.0236 45.2635 22.1827 45.3753C22.4085 45.5333 22.5465 45.7486 22.5935 46.0163C22.6413 46.2861 22.5857 46.5364 22.4287 46.7617C22.42 46.774 22.4068 46.793 22.3924 46.8099C22.1843 47.0574 21.9141 47.1915 21.6265 47.1915Z" fill="#0057B8"/>
<path d="M11.7705 63.7104C11.6185 63.7104 11.4792 63.6787 11.3329 63.6102C11.0886 63.4964 10.9172 63.3083 10.8241 63.0509C10.7305 62.7927 10.7408 62.5365 10.8562 62.2898C10.869 62.2614 10.8826 62.2333 10.8982 62.2065C11.0705 61.9079 11.405 61.7227 11.7717 61.7227C11.9168 61.7227 12.0429 61.7503 12.1689 61.8093C12.4195 61.9256 12.5929 62.1141 12.6852 62.3699C12.7796 62.6277 12.7685 62.8838 12.6523 63.1329C12.6453 63.1482 12.6374 63.1655 12.6279 63.1812C12.4298 63.5252 12.1273 63.7104 11.7705 63.7104Z" fill="#0057B8"/>
<path d="M4.92703 81.6921C4.83515 81.6921 4.74203 81.6793 4.65056 81.6546C4.3885 81.5845 4.18743 81.4294 4.05105 81.1926C3.91343 80.9538 3.87923 80.6997 3.94969 80.4369C3.95751 80.4081 3.96699 80.3738 3.97894 80.3408C4.11697 79.9609 4.49604 79.7043 4.92168 79.7043C5.00161 79.7043 5.08195 79.7151 5.16024 79.7361C5.42683 79.8071 5.63078 79.9626 5.76675 80.1981C5.90355 80.4349 5.93651 80.6898 5.86564 80.9558C5.86111 80.9719 5.85617 80.9901 5.84957 81.0078C5.693 81.4389 5.34895 81.6921 4.92703 81.6921Z" fill="#0057B8"/>
<path d="M1.29405 100.591C1.26191 100.591 1.22977 100.59 1.19722 100.587C0.931459 100.564 0.693306 100.439 0.523548 100.236C0.352966 100.031 0.271792 99.7736 0.294866 99.5088C0.297751 99.482 0.300635 99.4494 0.306403 99.4173C0.387986 98.9544 0.808672 98.6055 1.28498 98.6055C1.313 98.6055 1.34143 98.6067 1.36945 98.6092C1.6418 98.6327 1.86801 98.7498 2.04271 98.9582C2.21865 99.1677 2.2957 99.4131 2.27221 99.6874C2.27098 99.7002 2.26809 99.7274 2.26356 99.7543C2.17745 100.239 1.76995 100.591 1.29405 100.591Z" fill="#0057B8"/>
<path d="M0.988469 119.835C0.498561 119.835 0.0482052 119.42 0.00494168 118.927C0.00288152 118.9 0 118.864 0 118.829C0 118.343 0.413682 117.896 0.903177 117.855C0.945617 117.85 0.974872 117.85 1.00454 117.85C1.23322 117.85 1.44953 117.929 1.63082 118.082C1.83973 118.258 1.95798 118.486 1.98229 118.76C1.98352 118.774 1.98518 118.798 1.98476 118.822C1.98476 119.371 1.61146 119.785 1.07705 119.832C1.05192 119.834 1.0202 119.835 0.988469 119.835Z" fill="#0057B8"/>
<path d="M4.0457 138.839C3.59782 138.839 3.20309 138.535 3.08648 138.1C3.07948 138.073 3.07041 138.038 3.06423 138.003C2.98059 137.527 3.31104 137.014 3.78653 136.887C3.87882 136.862 3.96906 136.85 4.05435 136.85C4.21999 136.85 4.38892 136.896 4.54261 136.985C4.77788 137.121 4.93363 137.325 5.00532 137.591C5.00862 137.604 5.0148 137.629 5.01892 137.654C5.11451 138.193 4.81826 138.665 4.29909 138.805C4.21586 138.827 4.13016 138.839 4.0457 138.839Z" fill="#0057B8"/>
<path d="M10.3548 157.021C9.96712 157.021 9.61154 156.796 9.44878 156.447C9.43519 156.417 9.422 156.386 9.41046 156.355C9.24482 155.9 9.48092 155.337 9.92674 155.13C10.0693 155.063 10.202 155.032 10.3454 155.032C10.4583 155.032 10.5736 155.053 10.6878 155.094C10.9436 155.187 11.1323 155.36 11.2502 155.612C11.2572 155.627 11.2663 155.647 11.2741 155.668C11.4616 156.183 11.2527 156.701 10.766 156.928C10.6301 156.991 10.4991 157.021 10.3548 157.021Z" fill="#0057B8"/>
<path d="M19.7153 173.832C19.3874 173.832 19.0808 173.673 18.8954 173.408C18.8723 173.375 18.8567 173.35 18.8422 173.326C18.5996 172.905 18.7339 172.31 19.1369 172.029C19.3132 171.905 19.4961 171.845 19.6976 171.845C19.7561 171.845 19.8151 171.849 19.8727 171.86C20.148 171.909 20.3655 172.047 20.5221 172.27C20.5332 172.287 20.5444 172.303 20.5538 172.32C20.8311 172.8 20.7149 173.346 20.2749 173.654C20.1097 173.77 19.916 173.832 19.7153 173.832Z" fill="#0057B8"/>
<path d="M31.8459 188.758C31.571 188.758 31.3341 188.661 31.1417 188.468C31.1203 188.447 31.0956 188.421 31.0729 188.394C30.7622 188.024 30.7935 187.415 31.1425 187.066C31.3362 186.873 31.5715 186.775 31.8434 186.775C32.1174 186.775 32.3551 186.873 32.5496 187.067C32.5579 187.076 32.5768 187.094 32.5937 187.116C32.9464 187.537 32.9237 188.091 32.5447 188.47C32.3543 188.662 32.1195 188.758 31.8459 188.758Z" fill="#0057B8"/>
<path d="M46.3789 201.352C46.1762 201.352 45.9813 201.29 45.8144 201.173C45.7803 201.149 45.7535 201.128 45.7279 201.107C45.3608 200.799 45.2879 200.196 45.5705 199.792C45.7275 199.568 45.943 199.43 46.2112 199.382C46.2763 199.37 46.3369 199.365 46.3946 199.365C46.5911 199.365 46.7856 199.428 46.9562 199.547C46.9706 199.558 46.9875 199.57 47.0032 199.584C47.4255 199.938 47.5025 200.491 47.1943 200.932C47.0106 201.194 46.7057 201.352 46.3789 201.352Z" fill="#0057B8"/>
<path d="M62.8806 211.226C62.7348 211.226 62.6033 211.197 62.4661 211.133C62.4282 211.115 62.4002 211.1 62.3734 211.084C61.9548 210.843 61.7793 210.263 61.9873 209.816C62.1027 209.567 62.2902 209.394 62.5461 209.302C62.6618 209.259 62.7768 209.238 62.8889 209.238C63.0347 209.238 63.1691 209.269 63.3112 209.335C63.3223 209.34 63.3434 209.351 63.3631 209.363C63.8407 209.638 64.0108 210.167 63.7842 210.655C63.6231 211.002 63.2684 211.226 62.8806 211.226Z" fill="#0057B8"/>
<path d="M80.8495 218.081C80.7642 218.081 80.6789 218.07 80.5957 218.048C80.5529 218.036 80.5248 218.027 80.4976 218.019C80.0452 217.853 79.7651 217.309 79.8928 216.834C79.9628 216.568 80.1182 216.365 80.3538 216.229C80.5075 216.14 80.6765 216.093 80.8425 216.093C80.9319 216.093 81.0209 216.105 81.1075 216.129C81.1252 216.134 81.1503 216.14 81.175 216.15C81.688 216.337 81.9472 216.829 81.8083 217.348C81.693 217.78 81.2986 218.081 80.8495 218.081Z" fill="#0057B8"/>
<path d="M99.7344 221.708C99.7072 221.708 99.68 221.708 99.6524 221.705C99.6066 221.702 99.5819 221.699 99.558 221.694C99.0714 221.609 98.7014 221.122 98.7447 220.631C98.7681 220.358 98.8856 220.132 99.0941 219.956C99.2819 219.799 99.4892 219.722 99.7274 219.722C99.7554 219.722 99.7834 219.723 99.8114 219.726C99.8423 219.729 99.8658 219.731 99.8893 219.736C100.427 219.83 100.767 220.27 100.72 220.806C100.678 221.295 100.227 221.708 99.7344 221.708Z" fill="#0057B8"/>
<path d="M129.641 129.667H129.667M129.641 129.667C127.981 131.313 124.971 130.903 122.861 130.903C120.271 130.903 119.023 131.41 117.174 133.259C115.6 134.833 113.49 137.667 111 137.667C108.51 137.667 106.4 134.833 104.825 133.259C102.977 131.41 101.729 130.903 99.1387 130.903C97.0284 130.903 94.0191 131.313 92.3586 129.667C90.6847 128.007 91.0967 124.985 91.0967 122.861C91.0967 120.177 90.5097 118.943 88.5983 117.031C85.755 114.188 84.3333 112.766 84.3333 111C84.3333 109.233 85.7549 107.812 88.5982 104.968C90.3045 103.262 91.0967 101.571 91.0967 99.1387C91.0967 97.0283 90.6866 94.019 92.3333 92.3584C93.9931 90.6847 97.0149 91.0966 99.1388 91.0966C101.571 91.0966 103.262 90.3045 104.968 88.5982C107.812 85.7549 109.233 84.3333 111 84.3333C112.767 84.3333 114.188 85.7549 117.031 88.5982C118.737 90.3041 120.428 91.0966 122.861 91.0966C124.971 91.0966 127.981 90.6865 129.642 92.3333C131.315 93.9931 130.903 97.0148 130.903 99.1387C130.903 101.823 131.49 103.057 133.402 104.968C136.245 107.812 137.667 109.233 137.667 111C137.667 112.766 136.245 114.188 133.402 117.031C131.49 118.943 130.903 120.177 130.903 122.861C130.903 124.985 131.315 128.007 129.641 129.667Z" stroke="#0057B8" stroke-width="4"/>
<path d="M103 113.381C103 113.381 106.2 115.119 107.8 117.667C107.8 117.667 112.6 107.667 119 104.333" stroke="#0057B8" stroke-width="4" stroke-linecap="round" stroke-linejoin="round"/>
</svg>
