<svg width="166" height="165" viewBox="0 0 166 165" fill="none" xmlns="http://www.w3.org/2000/svg">
<path d="M133.542 98.2228C133.542 98.2228 125.757 97.1328 127.576 87.734C127.576 87.734 136.275 89.6866 133.542 98.2228Z" fill="#D0D0D0"/>
<path opacity="0.1" d="M133.542 98.2228C133.542 98.2228 125.757 97.1328 127.576 87.734C127.576 87.734 136.275 89.6866 133.542 98.2228Z" fill="#D0D0D0"/>
<path d="M133.149 96.2604C132.996 95.7852 132.817 95.3183 132.618 94.8596C132.612 94.7995 132.603 94.7395 132.598 94.6817C132.587 94.5524 132.576 94.423 132.566 94.2936C132.544 94.0131 132.526 93.7326 132.51 93.4518C132.477 92.8905 132.441 92.3285 132.432 91.7662C132.432 91.7355 132.385 91.7368 132.385 91.7675C132.38 92.3305 132.371 92.8921 132.393 93.4548C132.404 93.7356 132.42 94.0164 132.438 94.2969C132.443 94.3593 132.447 94.4217 132.452 94.4837C132.017 93.5472 131.49 92.6519 130.891 91.8144C130.624 91.4405 130.342 91.0811 130.04 90.7349C129.729 90.3798 129.401 90.0416 129.087 89.6898C129.067 89.667 129.033 89.702 129.055 89.7241C129.627 90.3211 130.101 91.0303 130.555 91.719C130.791 92.077 131.015 92.4447 131.228 92.8182C131.204 92.8086 131.179 92.7994 131.155 92.7898C131.063 92.7516 130.971 92.7136 130.878 92.6776C130.666 92.5961 130.454 92.5159 130.242 92.4371C129.824 92.282 129.406 92.1295 128.99 91.9711C128.965 91.9615 128.948 92.0051 128.973 92.015C129.387 92.18 129.796 92.3546 130.205 92.5311C130.406 92.6179 130.607 92.7037 130.808 92.7905C130.909 92.8341 131.01 92.8746 131.112 92.9159C131.18 92.9436 131.247 92.9776 131.319 92.9888C131.476 93.2706 131.631 93.5535 131.774 93.8422C132.135 94.5692 132.455 95.3203 132.726 96.0852C132.745 96.139 132.763 96.1928 132.782 96.2466C132.59 96.1169 132.344 96.0321 132.144 95.939C131.876 95.8149 131.606 95.6948 131.338 95.5717C130.792 95.3209 130.25 95.0665 129.726 94.7708C129.7 94.7556 129.677 94.7979 129.703 94.8124C130.238 95.1048 130.763 95.4156 131.299 95.7064C131.567 95.8519 131.836 95.9931 132.11 96.1261C132.335 96.235 132.589 96.3872 132.841 96.4192C133.085 97.1379 133.289 97.8656 133.351 98.6272C133.438 99.6898 133.429 100.762 133.453 101.827C133.454 101.846 133.481 101.844 133.482 101.826C133.559 100.86 133.603 99.8845 133.608 98.9146C133.612 97.9933 133.428 97.1353 133.149 96.2604Z" fill="#D0D0D0"/>
<path d="M131.95 90.7335C131.889 91.2807 131.834 91.8407 131.872 92.3911C131.873 92.4066 131.895 92.4057 131.896 92.3905C131.928 91.8407 131.932 91.2929 131.996 90.7451C131.999 90.7147 131.953 90.7032 131.95 90.7335Z" fill="#D0D0D0"/>
<path d="M129.724 91.2041C129.379 91.0579 129.037 90.9206 128.723 90.7124C128.697 90.6956 128.674 90.7378 128.7 90.754C129.014 90.95 129.35 91.1414 129.711 91.2371C129.73 91.242 129.743 91.2123 129.724 91.2041Z" fill="#D0D0D0"/>
<path d="M133.791 113.144C133.784 112.283 133.768 111.423 133.758 110.563C133.742 107.706 133.718 104.848 133.667 101.991C133.626 99.7229 133.573 97.4555 133.508 95.1877C133.508 95.1745 133.5 95.1656 133.489 95.1587C133.486 94.5393 133.483 93.9199 133.479 93.3004C133.479 93.2846 133.46 93.2773 133.442 93.2773C133.423 93.2777 133.404 93.2856 133.404 93.3014C133.401 93.9218 133.397 94.5422 133.393 95.163C133.384 95.1699 133.375 95.1778 133.375 95.1897C133.261 99.2263 133.158 103.264 133.135 107.301C133.13 108.122 133.13 108.943 133.127 109.764C133.099 112.397 133.087 115.029 133.097 117.661C133.094 118.08 133.089 118.5 133.087 118.919C133.079 121.327 133.112 123.736 133.113 126.144C133.113 126.274 133.257 126.338 133.41 126.344C133.585 126.351 133.771 126.281 133.771 126.133C133.772 123.478 133.789 120.821 133.789 118.166C133.797 116.492 133.803 114.818 133.791 113.144Z" fill="#D0D0D0"/>
<path d="M130.539 110.53C130.539 110.53 126.794 107.756 123.24 109.63C119.686 111.504 119.129 118.732 119.129 118.732C119.129 118.732 124.348 119.478 127.634 116.35C130.801 113.336 130.539 110.53 130.539 110.53Z" fill="#D0D0D0"/>
<path opacity="0.1" d="M130.539 110.53C130.539 110.53 126.794 107.756 123.24 109.63C119.686 111.504 119.129 118.732 119.129 118.732C119.129 118.732 124.348 119.478 127.634 116.35C130.801 113.336 130.539 110.53 130.539 110.53Z" fill="#D0D0D0"/>
<path d="M131.56 110.701C130.882 110.417 130.127 110.346 129.39 110.418C129.241 110.385 129.083 110.384 128.931 110.373C128.755 110.361 128.579 110.348 128.404 110.334C128.04 110.305 127.676 110.284 127.312 110.257C126.573 110.201 125.832 110.156 125.095 110.082C125.068 110.079 125.063 110.126 125.089 110.129C125.819 110.222 126.545 110.326 127.277 110.4C127.653 110.438 128.03 110.477 128.407 110.503C128.496 110.51 128.588 110.52 128.681 110.53C128.57 110.555 128.458 110.582 128.349 110.613C127.762 110.779 127.196 111.017 126.652 111.302C126.357 111.355 126.064 111.438 125.775 111.506C125.311 111.615 124.85 111.735 124.389 111.855C123.48 112.094 122.58 112.362 121.678 112.624C121.648 112.633 121.662 112.677 121.692 112.67C122.594 112.449 123.5 112.246 124.403 112.031C124.842 111.926 125.282 111.823 125.72 111.715C125.833 111.687 125.949 111.662 126.064 111.636C125.056 112.257 124.149 113.053 123.403 113.95C122.658 114.845 122.064 115.825 121.553 116.867C121.54 116.894 121.577 116.92 121.593 116.893C122.199 115.832 122.96 114.834 123.832 113.955C123.815 114.005 123.799 114.055 123.783 114.104C123.713 114.325 123.644 114.545 123.575 114.766C123.436 115.207 123.296 115.647 123.164 116.091C123.155 116.12 123.2 116.13 123.21 116.102C123.368 115.675 123.518 115.245 123.669 114.815C123.743 114.604 123.817 114.393 123.891 114.183C123.929 114.073 123.966 113.964 124.003 113.854C124.015 113.82 124.028 113.787 124.039 113.753C124.46 113.347 124.902 112.965 125.368 112.621C125.982 112.168 126.653 111.785 127.355 111.482C127.343 111.547 127.331 111.612 127.317 111.674C127.281 111.844 127.243 112.015 127.207 112.186C127.134 112.54 127.065 112.896 126.996 113.251C126.855 113.976 126.768 114.71 126.632 115.435C126.626 115.465 126.671 115.476 126.678 115.446C126.846 114.717 127.062 114 127.225 113.269C127.306 112.904 127.388 112.539 127.464 112.173C127.5 112.002 127.534 111.83 127.568 111.659C127.588 111.564 127.61 111.468 127.621 111.372C127.689 111.345 127.755 111.314 127.824 111.288C128.806 110.925 129.892 110.66 130.94 110.862C131.942 111.054 132.8 111.726 133.194 112.668C133.228 112.749 133.356 112.699 133.337 112.615C133.134 111.715 132.382 111.047 131.56 110.701Z" fill="#D0D0D0"/>
<path d="M125.827 113.787C125.721 114.261 125.616 114.736 125.511 115.211C125.411 115.664 125.288 116.132 125.25 116.596C125.248 116.614 125.275 116.614 125.28 116.599C125.433 116.153 125.507 115.666 125.598 115.204C125.69 114.736 125.782 114.267 125.873 113.799C125.879 113.769 125.834 113.757 125.827 113.787Z" fill="#D0D0D0"/>
<path d="M122.205 114.994C121.728 115.235 121.265 115.51 120.767 115.708C120.736 115.721 120.756 115.767 120.787 115.751C121.266 115.512 121.763 115.3 122.216 115.012C122.228 115.004 122.217 114.987 122.205 114.994Z" fill="#D0D0D0"/>
<path d="M131.381 105.434C131.381 105.434 126.804 105.726 124.675 102.708C122.546 99.6901 123.023 95.3803 123.023 95.3803C123.023 95.3803 127.831 95.9644 129.74 98.1319C131.65 100.299 131.381 105.434 131.381 105.434Z" fill="#D0D0D0"/>
<path d="M133.529 109.951C133.37 109.46 133.174 108.977 132.989 108.496C132.811 108.034 132.621 107.577 132.42 107.125C132.008 106.203 131.555 105.302 131.048 104.428C130.725 103.872 130.379 103.332 130.023 102.8C130.015 102.719 129.999 102.638 129.987 102.556C129.965 102.415 129.945 102.273 129.923 102.131C129.878 101.841 129.827 101.552 129.778 101.263C129.673 100.631 129.543 100.004 129.442 99.3707C129.437 99.341 129.39 99.3414 129.395 99.3717C129.487 99.9961 129.55 100.624 129.637 101.249C129.68 101.556 129.72 101.864 129.767 102.17C129.784 102.281 129.801 102.392 129.819 102.502C129.12 101.484 128.367 100.503 127.555 99.5657C127.445 99.4394 127.332 99.3163 127.221 99.1919C127.21 99.1569 127.192 99.1229 127.178 99.0873C127.144 99.0001 127.111 98.913 127.079 98.8252C127.012 98.6437 126.946 98.4616 126.881 98.2794C126.752 97.921 126.637 97.5594 126.54 97.1911C126.532 97.1614 126.487 97.1752 126.494 97.2049C126.587 97.5805 126.684 97.9557 126.794 98.3266C126.847 98.5058 126.906 98.6827 126.969 98.8586C126.98 98.8879 126.991 98.9173 127.002 98.9467C126.417 98.3091 125.806 97.6947 125.19 97.0871C125.168 97.0657 125.136 97.0997 125.157 97.1214C126.353 98.3461 127.411 99.6984 128.401 101.094C128.289 101.058 128.174 101.03 128.062 101.008C127.709 100.94 127.354 100.89 126.998 100.844C126.252 100.749 125.509 100.655 124.766 100.538C124.736 100.534 124.724 100.579 124.754 100.584C125.464 100.724 126.166 100.884 126.871 101.046C127.203 101.122 127.537 101.187 127.871 101.253C128.15 101.308 128.408 101.393 128.674 101.482C128.748 101.588 128.825 101.692 128.898 101.799C129.234 102.288 129.556 102.786 129.872 103.289C129.717 103.258 129.561 103.228 129.405 103.198C129.052 103.129 128.697 103.065 128.342 103.007C127.643 102.892 126.945 102.771 126.255 102.614C126.225 102.607 126.214 102.653 126.243 102.66C126.943 102.824 127.637 103.016 128.331 103.201C128.666 103.29 129.004 103.372 129.343 103.447C129.512 103.484 129.682 103.522 129.852 103.557C129.925 103.572 129.993 103.591 130.058 103.592C130.726 104.676 131.354 105.786 131.934 106.918C132.19 107.416 132.435 107.919 132.673 108.426C132.918 108.945 133.128 109.476 133.353 110.003C133.399 110.109 133.566 110.066 133.529 109.951Z" fill="#D0D0D0"/>
<path d="M128.844 99.4318C128.757 98.9952 128.665 98.5596 128.568 98.1253C128.561 98.0953 128.517 98.1095 128.523 98.1392C128.609 98.5682 128.692 98.9978 128.77 99.4285C128.847 99.8555 128.909 100.293 129.029 100.711C129.032 100.718 129.044 100.717 129.043 100.709C129.02 100.28 128.928 99.8512 128.844 99.4318Z" fill="#D0D0D0"/>
<path d="M126.175 99.3045C125.962 99.1989 125.738 99.1131 125.517 99.0277C125.401 98.9828 125.285 98.9379 125.17 98.8917C125.111 98.8683 125.052 98.8445 124.993 98.8211C124.931 98.796 124.854 98.7769 124.8 98.7363C124.765 98.7105 124.743 98.7709 124.777 98.7765C124.845 98.7877 124.911 98.8287 124.973 98.8567C125.031 98.8825 125.089 98.9082 125.146 98.9343C125.258 98.9838 125.369 99.0339 125.48 99.0831C125.701 99.1808 125.926 99.2788 126.156 99.3507C126.184 99.359 126.2 99.3171 126.175 99.3045Z" fill="#D0D0D0"/>
<path d="M136.066 101.836C136.066 101.836 138.837 96.662 143.051 95.8607C147.264 95.0595 149.844 99.3954 149.844 99.3954C149.844 99.3954 146.77 103.321 142.903 104.006C139.036 104.691 136.066 101.836 136.066 101.836Z" fill="#D0D0D0"/>
<path d="M145.874 98.1797C144.782 98.0299 143.664 98.0474 142.569 98.219C142.632 98.1843 142.695 98.1497 142.757 98.118C143.07 97.9592 143.381 97.7982 143.692 97.6365C144.339 97.2999 144.993 96.9415 145.671 96.6703C145.702 96.6577 145.683 96.6125 145.651 96.6274C144.992 96.9346 144.309 97.1917 143.647 97.4956C143.317 97.6477 142.991 97.8061 142.67 97.9767C142.462 98.087 142.232 98.1912 142.028 98.3229C141.102 98.5127 140.198 98.807 139.349 99.2126C139.525 99.0215 139.701 98.8304 139.876 98.639C140.269 98.2091 140.655 97.7576 141.087 97.3659C141.109 97.3454 141.075 97.3128 141.052 97.3332C140.611 97.7339 140.146 98.1044 139.718 98.5209C139.511 98.7229 139.312 98.9324 139.119 99.1479C139.022 99.2552 138.926 99.3664 138.834 99.4812C137.001 100.477 135.442 101.981 134.414 103.798C133.83 104.831 133.422 105.948 133.184 107.11C133.178 107.139 133.22 107.155 133.229 107.125C133.808 105.172 134.9 103.337 136.327 101.883C137.875 100.307 139.83 99.1674 141.972 98.6169C143.244 98.2902 144.559 98.1764 145.869 98.2629C145.922 98.2662 145.927 98.1866 145.874 98.1797Z" fill="#D0D0D0"/>
<path opacity="0.1" d="M149.844 99.3958C149.844 99.3958 146.77 103.321 142.901 104.006C139.952 104.529 137.525 102.99 136.54 102.233L136.327 101.883C136.327 101.883 138.322 100.202 142.096 99.2315C145.87 98.2616 149.844 99.3958 149.844 99.3958Z" fill="#D0D0D0"/>
<path d="M143.427 96.3349C143.107 96.5299 142.789 96.7243 142.491 96.9527C142.198 97.1774 141.925 97.4216 141.678 97.6961C141.656 97.7206 141.69 97.7513 141.714 97.7305C141.994 97.4876 142.275 97.2444 142.565 97.0144C142.85 96.7883 143.141 96.5646 143.452 96.3752C143.478 96.3593 143.453 96.3187 143.427 96.3349Z" fill="#D0D0D0"/>
<path d="M145.739 97.2108C145.583 97.2759 145.424 97.3323 145.268 97.397C145.111 97.462 144.955 97.5266 144.799 97.5917C144.765 97.6055 144.781 97.66 144.815 97.6461C144.972 97.5824 145.129 97.5191 145.286 97.4554C145.443 97.3917 145.596 97.3194 145.753 97.256C145.781 97.2448 145.768 97.199 145.739 97.2108Z" fill="#D0D0D0"/>
<path d="M135.514 108.347C135.514 108.347 136.254 113.479 140.113 115.275C143.973 117.071 148.678 115.275 148.678 115.275C148.678 115.275 146.828 104.17 135.514 108.347Z" fill="#D0D0D0"/>
<path opacity="0.1" d="M135.514 108.347C135.514 108.347 136.254 113.479 140.113 115.275C143.973 117.071 148.678 115.275 148.678 115.275C148.678 115.275 146.828 104.17 135.514 108.347Z" fill="#D0D0D0"/>
<path d="M146.019 111.937C145.662 111.896 145.309 111.835 144.956 111.771C144.783 111.739 144.61 111.707 144.437 111.673C144.35 111.656 144.258 111.635 144.167 111.619C144.063 111.522 143.96 111.423 143.854 111.329C143.123 110.686 142.331 110.115 141.493 109.618C141.037 109.348 140.564 109.106 140.079 108.891C140.103 108.892 140.127 108.894 140.151 108.895C140.575 108.913 140.998 108.93 141.421 108.95C142.269 108.989 143.116 109.008 143.962 109.063C143.992 109.065 143.991 109.017 143.961 109.015C143.111 108.957 142.266 108.864 141.417 108.791C141.006 108.756 140.594 108.718 140.183 108.681C139.971 108.662 139.759 108.644 139.547 108.626C139.492 108.621 139.438 108.614 139.384 108.608C139.164 108.526 138.942 108.449 138.718 108.379C137.663 108.051 136.53 107.922 135.449 108.198C134.478 108.447 133.509 109.083 133.258 110.107C133.249 110.142 133.304 110.167 133.319 110.131C133.681 109.276 134.631 108.845 135.488 108.667C136.064 108.547 136.654 108.554 137.235 108.633C137.259 108.896 137.358 109.166 137.43 109.409C137.537 109.77 137.642 110.132 137.751 110.492C137.97 111.213 138.211 111.927 138.425 112.649C138.433 112.678 138.477 112.665 138.47 112.635C138.291 111.915 138.139 111.188 137.966 110.466C137.881 110.112 137.792 109.758 137.704 109.405C137.647 109.178 137.6 108.91 137.509 108.675C137.848 108.734 138.184 108.815 138.511 108.911C139.103 109.085 139.688 109.302 140.26 109.552C140.316 109.918 140.398 110.28 140.482 110.641C140.587 111.094 140.705 111.543 140.848 111.986C140.858 112.014 140.898 112.001 140.892 111.973C140.886 111.945 140.88 111.917 140.874 111.889C140.874 111.888 140.874 111.888 140.873 111.887C140.787 111.468 140.694 111.049 140.606 110.63C140.535 110.292 140.469 109.952 140.396 109.615C140.875 109.83 141.346 110.066 141.802 110.327C141.812 110.432 141.837 110.539 141.852 110.634C141.88 110.81 141.912 110.986 141.944 111.161C142.017 111.557 142.096 111.951 142.191 112.343C142.373 113.096 142.579 113.85 142.854 114.575C142.849 114.584 142.847 114.595 142.855 114.605C142.862 114.613 142.87 114.622 142.877 114.63C142.894 114.65 142.921 114.627 142.916 114.606C142.737 113.846 142.533 113.092 142.366 112.328C142.283 111.947 142.199 111.566 142.122 111.183C142.084 110.992 142.049 110.8 142.013 110.609C142.002 110.555 141.995 110.496 141.986 110.437C142.507 110.745 143.011 111.079 143.489 111.439C144.312 112.061 145.101 112.771 145.789 113.539C145.817 113.57 145.871 113.527 145.846 113.494C145.552 113.107 145.259 112.729 144.926 112.371C144.732 112.163 144.53 111.962 144.325 111.765C144.346 111.769 144.368 111.773 144.389 111.777C144.57 111.807 144.751 111.834 144.932 111.858C145.29 111.906 145.648 111.941 146.005 111.982C146.037 111.986 146.049 111.94 146.019 111.937Z" fill="#D0D0D0"/>
<path d="M143.306 113.677C143.3 113.632 143.293 113.588 143.284 113.544C143.273 113.487 143.245 113.433 143.237 113.376C143.237 113.375 143.236 113.375 143.236 113.374C143.156 113.031 143.089 112.685 143.027 112.338C143.023 112.314 142.985 112.321 142.985 112.345C143.002 112.803 143.115 113.258 143.279 113.685C143.284 113.698 143.308 113.697 143.306 113.68C143.307 113.679 143.306 113.678 143.306 113.677Z" fill="#D0D0D0"/>
<path d="M140.076 113.594C140.075 113.58 140.064 113.573 140.053 113.572C139.945 113.118 139.84 112.663 139.747 112.206C139.698 111.965 139.647 111.725 139.601 111.484C139.576 111.354 139.552 111.224 139.529 111.094C139.509 110.981 139.499 110.862 139.446 110.76C139.437 110.742 139.406 110.747 139.403 110.766C139.371 110.982 139.46 111.243 139.5 111.455C139.547 111.706 139.596 111.956 139.651 112.205C139.763 112.711 139.89 113.216 140.032 113.714C140.04 113.742 140.086 113.736 140.084 113.706C140.081 113.669 140.078 113.632 140.076 113.594Z" fill="#D0D0D0"/>
<path d="M145.666 110.458C144.961 110.361 144.257 110.259 143.551 110.174C143.521 110.17 143.509 110.215 143.539 110.22C144.243 110.324 144.949 110.411 145.655 110.504C145.685 110.508 145.697 110.462 145.666 110.458Z" fill="#D0D0D0"/>
<path d="M133.536 96.3098C133.536 96.3098 131.174 85.9488 142.306 81.7561C142.306 81.7561 145.391 95.3941 133.536 96.3098Z" fill="#D0D0D0"/>
<path d="M135.939 90.4336C135.981 90.4069 136.021 90.3815 136.058 90.361C136.269 90.2452 136.478 90.1267 136.688 90.0092L137.979 89.2869C138.829 88.8117 139.667 88.3173 140.523 87.852C140.55 87.8375 140.525 87.7969 140.498 87.8118C139.641 88.2777 138.769 88.714 137.906 89.1697L136.63 89.8442C136.457 89.936 136.283 90.0277 136.109 90.1198C136.481 89.4156 136.877 88.7249 137.313 88.0603C137.895 87.1729 138.532 86.3274 139.196 85.5001C139.226 85.4622 139.177 85.4133 139.141 85.4476C138.159 86.3872 137.309 87.4616 136.567 88.6034C136.568 88.5671 136.569 88.5302 136.57 88.4955C136.583 88.2378 136.589 87.9801 136.593 87.722C136.601 87.2164 136.577 86.7099 136.592 86.2047C136.593 86.174 136.546 86.1753 136.544 86.206C136.523 86.7036 136.464 87.1999 136.435 87.6973C136.421 87.9457 136.411 88.1939 136.403 88.4424C136.399 88.5767 136.386 88.7298 136.391 88.877C136.162 89.2417 135.942 89.6119 135.733 89.9871C135.362 90.6557 135.03 91.3556 134.738 92.0737C134.727 91.8156 134.712 91.5579 134.697 91.2999C134.663 90.7326 134.594 90.1676 134.57 89.6C134.569 89.5693 134.522 89.5707 134.523 89.601C134.534 90.1686 134.508 90.7359 134.526 91.3038C134.534 91.5876 134.543 91.8711 134.562 92.1542C134.569 92.2582 134.574 92.3644 134.581 92.4707C134.227 93.4006 133.941 94.3573 133.741 95.3179C133.523 96.3558 133.435 97.3953 133.326 98.4467C133.325 98.4543 133.337 98.4539 133.338 98.4463C133.435 97.5091 133.673 96.5624 133.928 95.6565C134.066 95.1675 134.211 94.681 134.368 94.1983C134.831 93.9801 135.274 93.7079 135.722 93.46C136.186 93.2026 136.653 92.9512 137.119 92.6958C138.047 92.1866 138.975 91.6678 139.933 91.218C139.961 91.2052 139.936 91.1652 139.908 91.1778C138.937 91.6173 137.96 92.0354 137.007 92.5139C136.532 92.7522 136.065 93.007 135.603 93.2677C135.216 93.4855 134.819 93.7036 134.45 93.9537C134.558 93.6313 134.67 93.3102 134.794 92.9928C135.132 92.1222 135.514 91.2669 135.939 90.4336Z" fill="#D0D0D0"/>
<path d="M135.001 88.0649C134.998 88.0345 134.951 88.0355 134.953 88.0662C134.993 88.6573 135.013 89.248 135.076 89.8373C135.08 89.8703 135.129 89.87 135.128 89.836C135.107 89.2437 135.044 88.6559 135.001 88.0649Z" fill="#D0D0D0"/>
<path d="M140.338 90.0434C139.64 90.3239 138.938 90.5902 138.245 90.8806C138.225 90.8889 138.234 90.9202 138.254 90.9123C138.958 90.6489 139.652 90.3618 140.352 90.0889C140.38 90.0777 140.366 90.0318 140.338 90.0434Z" fill="#D0D0D0"/>
<path d="M141.395 85.2648C140.714 85.5806 140.054 85.9301 139.416 86.3267C139.383 86.3469 139.414 86.3967 139.447 86.3772C140.093 85.9997 140.75 85.6374 141.421 85.3051C141.448 85.2915 141.423 85.2523 141.395 85.2648Z" fill="#D0D0D0"/>
<path d="M141.228 118.715H125.173V135.638H141.228V118.715Z" fill="#D0D0D0"/>
<path d="M124.89 124.703H124.068V153.689H124.89V124.703Z" fill="#D0D0D0"/>
<path d="M142.246 124.703H141.425V153.689H142.246V124.703Z" fill="#D0D0D0"/>
<path d="M134.005 124.703H133.184V153.689H134.005V124.703Z" fill="#D0D0D0"/>
<path d="M141.835 134.553H124.479V136.896H141.835V134.553Z" fill="#D0D0D0"/>
<path d="M143.765 22.0691H22.2358V101.263H143.765V22.0691Z" fill="white"/>
<path d="M143.765 101.263C143.745 101.283 22.2096 101.299 22.1855 101.313C22.1429 101.314 22.1835 22.0855 22.1528 22.069V21.9869H22.235C22.2485 21.9747 143.78 22.0459 143.796 22.037C143.824 22.0545 143.746 101.239 143.765 101.263ZM143.765 101.263C143.772 101.279 143.689 21.9281 143.765 22.101L22.2357 22.1512L22.3178 22.069C22.3083 22.0446 22.3522 101.482 22.236 101.213C22.2357 101.213 143.765 101.263 143.765 101.263Z" fill="#263238"/>
<path d="M143.765 22.0691H22.2358V32.6453H143.765V22.0691Z" fill="#0057B8"/>
<path d="M143.765 22.0691H22.2358V26.0176H143.765V22.0691Z" fill="#263238"/>
<path d="M25.0889 23.9421C25.0889 24.2711 24.822 24.5381 24.493 24.5381C24.1639 24.5381 23.897 24.2711 23.897 23.9421C23.897 23.6131 24.1639 23.3461 24.493 23.3461C24.8223 23.3461 25.0889 23.6131 25.0889 23.9421Z" fill="#0057B8"/>
<path d="M27.5225 23.942C27.5225 24.271 27.2556 24.538 26.9265 24.538C26.5972 24.538 26.3306 24.271 26.3306 23.942C26.3306 23.613 26.5972 23.346 26.9265 23.346C27.2556 23.346 27.5225 23.613 27.5225 23.942Z" fill="white"/>
<path d="M29.9566 23.942C29.9566 24.271 29.6896 24.538 29.3606 24.538C29.0316 24.538 28.7646 24.271 28.7646 23.942C28.7646 23.613 29.0316 23.346 29.3606 23.346C29.6896 23.346 29.9566 23.613 29.9566 23.942Z" fill="#455A64"/>
<path d="M50.1463 23.3462H33.7166L32.7266 26.0175H51.1363L50.1463 23.3462Z" fill="#0057B8"/>
<path opacity="0.1" d="M49.4947 25.1259L49.3455 25.2751L48.9838 24.9134L48.6221 25.2751L48.475 25.1282L48.8367 24.7666L48.4727 24.4026L48.6221 24.2531L48.9861 24.6171L49.3478 24.2554L49.4947 24.4026L49.133 24.7643L49.4947 25.1259Z" fill="black"/>
<path d="M53.8572 24.4477V24.6589H53.3457V25.17H53.1378V24.6589H52.623V24.4477H53.1378V23.9362H53.3457V24.4477H53.8572Z" fill="white"/>
<path d="M118.865 28.5687H34.7944V30.8949H118.865V28.5687Z" fill="white"/>
<path d="M118.913 30.9183H34.7466V28.545H118.912V30.9183H118.913Z" fill="#EBEBEB"/>
<path d="M36.3228 29.7061C36.3228 29.5715 36.2132 29.4807 36.0786 29.4807C35.9456 29.4807 35.8357 29.5715 35.8357 29.7061V30.1338V30.1384C35.8357 30.1417 35.834 30.1431 35.834 30.1447C35.8324 30.1477 35.8324 30.1493 35.8311 30.151C35.8264 30.1605 35.8185 30.1668 35.8076 30.1698C35.8076 30.1698 35.806 30.1714 35.8043 30.1714H35.801H35.7964C35.7855 30.1714 35.7746 30.1668 35.7667 30.1589C35.7634 30.1543 35.7621 30.151 35.7604 30.1464C35.7588 30.1417 35.7588 30.1384 35.7588 30.1338V29.7061V29.6936V29.1125C35.7588 29.0923 35.7759 29.0748 35.7964 29.0748C35.8182 29.0748 35.8357 29.092 35.8357 29.1125V29.5164C35.8934 29.4474 35.9815 29.4039 36.0786 29.4039C36.2554 29.4039 36.3996 29.5293 36.3996 29.7061V30.1338C36.3996 30.1539 36.3825 30.1714 36.3604 30.1714C36.3399 30.1714 36.3228 30.1543 36.3228 30.1338V29.7061Z" fill="#C7C7C7"/>
<path d="M36.9865 29.4416C36.9865 29.4604 36.9677 29.4792 36.9489 29.4792H36.8502V30.0382C36.8502 30.0758 36.8878 30.0946 36.9066 30.0946C36.9254 30.0946 36.9459 30.1148 36.9459 30.1339C36.9459 30.1527 36.9254 30.1715 36.9066 30.1715C36.8301 30.1715 36.772 30.1151 36.772 30.0385V29.4795H36.6763C36.6387 29.4795 36.6387 29.4607 36.6387 29.4419C36.6387 29.4231 36.6387 29.4043 36.6763 29.4043H36.772V29.1188C36.772 29.1 36.7908 29.0812 36.8096 29.0812C36.8301 29.0812 36.8502 29.1 36.8502 29.1188V29.4039H36.9489C36.968 29.4039 36.9865 29.4227 36.9865 29.4416Z" fill="#C7C7C7"/>
<path d="M37.5143 29.4416C37.5143 29.4604 37.4955 29.4792 37.4767 29.4792H37.378V30.0382C37.378 30.0758 37.4157 30.0946 37.4345 30.0946C37.4533 30.0946 37.4737 30.1148 37.4737 30.1339C37.4737 30.1527 37.4533 30.1715 37.4345 30.1715C37.3579 30.1715 37.2998 30.1151 37.2998 30.0385V29.4795H37.2041C37.1665 29.4795 37.1665 29.4607 37.1665 29.4419C37.1665 29.4231 37.1665 29.4043 37.2041 29.4043H37.2998V29.1188C37.2998 29.1 37.3186 29.0812 37.3374 29.0812C37.3579 29.0812 37.378 29.1 37.378 29.1188V29.4039H37.4767C37.4955 29.4039 37.5143 29.4227 37.5143 29.4416Z" fill="#C7C7C7"/>
<path d="M37.873 29.8V29.7845V29.7689V29.4416C37.873 29.4211 37.8902 29.404 37.9107 29.404C37.9324 29.404 37.9499 29.4211 37.9499 29.4416V29.5528C38.0159 29.4634 38.1222 29.404 38.2413 29.404C38.4479 29.404 38.6126 29.5746 38.6126 29.7845C38.6126 29.9927 38.4482 30.1666 38.2413 30.1666C38.1222 30.1666 38.0159 30.1072 37.9499 30.0161V30.4547C37.9499 30.4751 37.9328 30.4923 37.9107 30.4923C37.8902 30.4923 37.873 30.4751 37.873 30.4547V29.8ZM37.9496 29.7845C37.9496 29.9534 38.0826 30.0897 38.241 30.0914C38.404 30.0897 38.5354 29.9534 38.5354 29.7845C38.5354 29.6155 38.4037 29.4805 38.241 29.4805C38.0859 29.4805 37.9559 29.6089 37.9496 29.7716V29.7845Z" fill="#C7C7C7"/>
<path d="M38.9752 29.3567C39.0191 29.3567 39.0534 29.3913 39.0534 29.4349C39.0534 29.4788 39.0187 29.5131 38.9752 29.5131C38.9313 29.5131 38.897 29.4788 38.897 29.4349C38.8966 29.3913 38.9313 29.3567 38.9752 29.3567ZM38.9752 30.0147C39.0191 30.0147 39.0534 30.0493 39.0534 30.0929C39.0534 30.1368 39.0187 30.1711 38.9752 30.1711C38.9313 30.1711 38.897 30.1365 38.897 30.0929C38.8966 30.049 38.9313 30.0147 38.9752 30.0147Z" fill="#C7C7C7"/>
<path d="M39.2587 30.1179L39.6863 29.1032C39.6956 29.0844 39.716 29.0748 39.7365 29.0827C39.7566 29.0907 39.7662 29.1124 39.7566 29.1329L39.3293 30.1476C39.323 30.1635 39.3088 30.1711 39.2946 30.1711C39.2884 30.1711 39.2837 30.1711 39.2791 30.1694C39.2603 30.1602 39.2507 30.1384 39.2587 30.1179Z" fill="#C7C7C7"/>
<path d="M39.6532 30.1179L40.0809 29.1032C40.0901 29.0844 40.1106 29.0748 40.131 29.0827C40.1512 29.0907 40.1607 29.1124 40.1512 29.1329L39.7238 30.1476C39.7175 30.1635 39.7033 30.1711 39.6892 30.1711C39.6829 30.1711 39.6783 30.1711 39.6736 30.1694C39.6548 30.1602 39.6453 30.1384 39.6532 30.1179Z" fill="#C7C7C7"/>
<path d="M133.333 40.3629H49.8545V35.6159H133.333V40.3629Z" fill="#EBEBEB"/>
<path d="M46.6445 40.363H32.667V35.6159H46.6445V40.363Z" fill="#0057B8"/>
<path d="M52.7633 38.4247C52.7788 38.4052 52.8062 38.4033 52.8237 38.4188C52.925 38.5006 53.0946 38.5963 53.2719 38.5943C53.3907 38.5943 53.4979 38.5593 53.5722 38.5049C53.6481 38.4501 53.689 38.3782 53.689 38.3023C53.689 38.2244 53.652 38.1657 53.5781 38.1152C53.5038 38.0663 53.3949 38.0294 53.2623 38.004H53.2583C53.1316 37.9805 53.0204 37.9455 52.9366 37.8891C52.8528 37.8343 52.7963 37.7528 52.7963 37.6512C52.7963 37.5479 52.8528 37.4585 52.9386 37.3961C53.0244 37.3337 53.1392 37.2968 53.2679 37.2968C53.4471 37.2968 53.5817 37.3845 53.6886 37.4548C53.7081 37.4687 53.7141 37.4938 53.7005 37.5152C53.6886 37.5347 53.6616 37.5406 53.6421 37.5268C53.5349 37.4568 53.418 37.3826 53.2679 37.3826C53.1567 37.3826 53.0574 37.4156 52.9894 37.4644C52.9211 37.5149 52.8821 37.5812 52.8821 37.6512C52.8841 37.7195 52.9155 37.77 52.9834 37.8168C53.0517 37.8637 53.1531 37.8967 53.2758 37.9201H53.2798C53.4161 37.9455 53.5368 37.9845 53.6266 38.0449C53.7164 38.1033 53.7768 38.193 53.7768 38.3023C53.7768 38.4115 53.7144 38.5089 53.623 38.5752C53.5316 38.6415 53.4088 38.6824 53.2722 38.6824C53.0636 38.6805 52.8825 38.5752 52.7696 38.4858C52.7514 38.4696 52.7498 38.4422 52.7633 38.4247Z" fill="#A6A6A6"/>
<path d="M54.0352 38.2046C54.0352 37.9396 54.2417 37.7251 54.4991 37.7251C54.7447 37.7251 54.9397 37.9198 54.9592 38.1693V38.1712V38.1772C54.9592 38.2026 54.9377 38.2201 54.9123 38.2201H54.1289C54.1384 38.4286 54.3021 38.5864 54.4991 38.5864C54.6259 38.5864 54.7427 38.5201 54.807 38.4128C54.8206 38.3894 54.8499 38.3854 54.8694 38.3973C54.8908 38.4128 54.8984 38.4402 54.8849 38.4636C54.8031 38.5943 54.6608 38.6798 54.4991 38.6798C54.2417 38.6801 54.0352 38.4656 54.0352 38.2046ZM54.1345 38.1283H54.8575C54.8265 37.9492 54.6744 37.8188 54.4991 37.8188C54.3196 37.8188 54.1698 37.9472 54.1345 38.1283Z" fill="#A6A6A6"/>
<path d="M56.0912 37.7719V38.6332C56.0912 38.6587 56.0698 38.6801 56.0443 38.6801C56.0189 38.6801 55.9975 38.6587 55.9975 38.6332V38.491C55.9156 38.6039 55.7853 38.6801 55.6391 38.6801C55.3877 38.6801 55.187 38.464 55.187 38.2026C55.187 37.9412 55.3877 37.7251 55.6391 37.7251C55.7853 37.7251 55.9156 37.7993 55.9975 37.9122V37.7719C55.9975 37.7446 56.0189 37.7251 56.0443 37.7251C56.0701 37.7251 56.0912 37.7446 56.0912 37.7719ZM55.9978 38.2026C55.9978 37.9884 55.8361 37.8168 55.6394 37.8168C55.4444 37.8168 55.2807 37.9884 55.2807 38.2026C55.2807 38.4168 55.4444 38.5867 55.6394 38.5867C55.8361 38.5864 55.9978 38.4168 55.9978 38.2026Z" fill="#A6A6A6"/>
<path d="M56.4966 37.7737C56.4966 37.7466 56.518 37.7268 56.5451 37.7268C56.5685 37.7268 56.59 37.7463 56.59 37.7737V37.9842C56.5939 37.9763 56.5979 37.9687 56.6038 37.9608C56.6758 37.8479 56.8025 37.7268 56.9856 37.7268C57.0111 37.7268 57.0325 37.7463 57.0325 37.7737C57.0325 37.7991 57.0111 37.8205 56.9856 37.8205C56.8609 37.8205 56.7751 37.8905 56.7091 37.9763C56.6448 38.0621 56.6078 38.1595 56.5939 38.1984C56.59 38.206 56.59 38.2099 56.59 38.2139V38.633C56.59 38.6604 56.5685 38.6799 56.5451 38.6799C56.5177 38.6799 56.4966 38.6604 56.4966 38.633V37.7737Z" fill="#A6A6A6"/>
<path d="M57.2349 38.2006C57.2349 37.9356 57.4533 37.7251 57.7259 37.7251C57.8391 37.7251 57.946 37.764 58.0298 37.8304C58.0493 37.8439 58.0533 37.8733 58.0358 37.8947C58.0203 37.9122 57.9929 37.9181 57.9714 37.9026C57.9034 37.8482 57.8173 37.8168 57.7259 37.8168C57.5038 37.8168 57.3283 37.9904 57.3283 38.2009C57.3283 38.4151 57.5035 38.5867 57.7259 38.5867C57.8173 38.5867 57.9034 38.5554 57.9714 38.5029C57.9929 38.4874 58.0199 38.4933 58.0358 38.5108C58.0533 38.5323 58.0496 38.5613 58.0259 38.5791C57.946 38.6415 57.8391 38.6804 57.7259 38.6804C57.453 38.6801 57.2349 38.4696 57.2349 38.2006Z" fill="#A6A6A6"/>
<path d="M59.1173 38.1012C59.1173 37.9336 58.981 37.8207 58.8133 37.8207C58.6477 37.8207 58.5114 37.9336 58.5114 38.1012V38.6332V38.6391C58.5114 38.6431 58.5094 38.6451 58.5094 38.6467C58.5074 38.6507 58.5074 38.6527 58.5054 38.6546C58.4995 38.6662 58.4899 38.6741 58.4764 38.6781C58.4764 38.6781 58.4744 38.6801 58.4724 38.6801H58.4685H58.4625C58.449 38.6801 58.4355 38.6741 58.4256 38.6645C58.4216 38.6586 58.4196 38.655 58.418 38.649C58.416 38.6431 58.416 38.6395 58.416 38.6335V38.1016V38.0861V37.3634C58.416 37.3379 58.4375 37.3165 58.4629 37.3165C58.4903 37.3165 58.5117 37.3379 58.5117 37.3634V37.8659C58.584 37.7801 58.6929 37.7257 58.8137 37.7257C59.0338 37.7257 59.213 37.8818 59.213 38.1019V38.6339C59.213 38.6593 59.1915 38.6807 59.1645 38.6807C59.139 38.6807 59.1176 38.6593 59.1176 38.6339L59.1173 38.1012Z" fill="#A6A6A6"/>
<path d="M133.334 35.6145H128.584V40.3638H133.334V35.6145Z" fill="#0057B8"/>
<path d="M132.139 39.0332L131.796 39.2939L131.158 38.4527L130.925 38.1452C130.972 38.127 131.017 38.1016 131.059 38.0696C131.14 38.0079 131.199 37.9284 131.235 37.8406L131.483 38.167L132.139 39.0332Z" fill="white"/>
<path d="M131.463 37.0525C131.147 36.6413 130.558 36.5635 130.147 36.8789C129.736 37.1944 129.658 37.7838 129.973 38.195C130.256 38.5646 130.761 38.6649 131.158 38.4524C131.204 38.428 131.247 38.4006 131.289 38.3686C131.365 38.3095 131.43 38.2412 131.483 38.1666C131.715 37.8399 131.719 37.3878 131.463 37.0525ZM131.059 38.0693C131.017 38.1013 130.972 38.1267 130.925 38.1448C130.697 38.2359 130.429 38.1696 130.272 37.9656C130.084 37.7198 130.13 37.367 130.376 37.1786C130.622 36.9902 130.974 37.0367 131.163 37.2825C131.29 37.4479 131.311 37.661 131.236 37.8402C131.199 37.928 131.14 38.0075 131.059 38.0693Z" fill="white"/>
<path d="M143.765 30.9417H141.605V101.263H143.765V30.9417Z" fill="#DBDBDB"/>
<path d="M142.686 56.9137C142.378 56.9137 142.128 56.6639 142.128 56.356V32.2337C142.128 31.9258 142.378 31.676 142.686 31.676C142.994 31.676 143.243 31.9255 143.243 32.2337V56.3557C143.243 56.6639 142.994 56.9137 142.686 56.9137Z" fill="#A6A6A6"/>
<path d="M49.0908 47.8434H32.6914V60.6566H49.0908V47.8434Z" fill="#0057B8"/>
<path opacity="0.1" d="M49.0908 47.8434H32.6914V60.6566H49.0908V47.8434Z" fill="black"/>
<path d="M48.0617 59.3893H38.8071L43.4869 53.7348L48.0617 59.3893Z" fill="#0057B8"/>
<path d="M41.0393 59.3893H33.7192L37.4208 55.2238L41.0393 59.3893Z" fill="#0057B8"/>
<path d="M39.3247 52.5661C39.3247 53.1033 38.8891 53.5389 38.3522 53.5389C37.815 53.5389 37.3794 53.1033 37.3794 52.5661C37.3794 52.0288 37.815 51.5932 38.3522 51.5932C38.8891 51.5932 39.3247 52.0288 39.3247 52.5661Z" fill="#0057B8"/>
<path d="M71.6278 44.8422H32.6914V45.8299H71.6278V44.8422Z" fill="#DBDBDB"/>
<path d="M133.309 47.936H52.0317V48.4884H133.309V47.936Z" fill="#EBEBEB"/>
<path d="M133.309 50.3697H52.0317V50.9221H133.309V50.3697Z" fill="#EBEBEB"/>
<path d="M133.309 52.8035H52.0317V53.3559H133.309V52.8035Z" fill="#EBEBEB"/>
<path d="M133.309 55.237H52.0317V55.7894H133.309V55.237Z" fill="#EBEBEB"/>
<path d="M133.309 57.6707H52.0317V58.2232H133.309V57.6707Z" fill="#EBEBEB"/>
<path d="M122.342 60.1042H52.0317V60.6567H122.342V60.1042Z" fill="#EBEBEB"/>
<path d="M133.31 60.1042H132.386V60.6567H133.31V60.1042Z" fill="#EBEBEB"/>
<path d="M130.603 60.1042H129.679V60.6567H130.603V60.1042Z" fill="#EBEBEB"/>
<path d="M127.896 60.1042H126.973V60.6567H127.896V60.1042Z" fill="#EBEBEB"/>
<path d="M125.189 60.1042H124.266V60.6567H125.189V60.1042Z" fill="#EBEBEB"/>
<path d="M49.0663 66.2094H32.667V79.0227H49.0663V66.2094Z" fill="#0057B8"/>
<path opacity="0.1" d="M49.0663 66.2094H32.667V79.0227H49.0663V66.2094Z" fill="black"/>
<path d="M48.0385 77.755H38.7837L43.4634 72.1004L48.0385 77.755Z" fill="#0057B8"/>
<path d="M41.0159 77.7548H33.6958L37.3974 73.5889L41.0159 77.7548Z" fill="#0057B8"/>
<path d="M38.328 71.9045C38.8651 71.9045 39.3005 71.4691 39.3005 70.932C39.3005 70.3949 38.8651 69.9595 38.328 69.9595C37.7909 69.9595 37.3555 70.3949 37.3555 70.932C37.3555 71.4691 37.7909 71.9045 38.328 71.9045Z" fill="#0057B8"/>
<path d="M71.6034 63.208H32.667V64.1957H71.6034V63.208Z" fill="#DBDBDB"/>
<path d="M133.285 66.3018H52.0078V66.8542H133.285V66.3018Z" fill="#EBEBEB"/>
<path d="M133.285 68.7355H52.0078V69.2879H133.285V68.7355Z" fill="#EBEBEB"/>
<path d="M133.285 71.1693H52.0078V71.7217H133.285V71.1693Z" fill="#EBEBEB"/>
<path d="M133.285 73.6028H52.0078V74.1552H133.285V73.6028Z" fill="#EBEBEB"/>
<path d="M133.285 76.0365H52.0078V76.589H133.285V76.0365Z" fill="#EBEBEB"/>
<path d="M122.318 78.4703H52.0078V79.0227H122.318V78.4703Z" fill="#EBEBEB"/>
<path d="M133.286 78.4703H132.362V79.0227H133.286V78.4703Z" fill="#EBEBEB"/>
<path d="M130.579 78.4703H129.655V79.0227H130.579V78.4703Z" fill="#EBEBEB"/>
<path d="M127.872 78.4703H126.948V79.0227H127.872V78.4703Z" fill="#EBEBEB"/>
<path d="M125.165 78.4703H124.242V79.0227H125.165V78.4703Z" fill="#EBEBEB"/>
<path d="M49.0663 84.5752H32.667V97.3885H49.0663V84.5752Z" fill="#0057B8"/>
<path opacity="0.1" d="M49.0663 84.5752H32.667V97.3885H49.0663V84.5752Z" fill="black"/>
<path d="M48.0385 96.1208H38.7837L43.4634 90.4663L48.0385 96.1208Z" fill="#0057B8"/>
<path d="M41.0159 96.1207H33.6958L37.3974 91.9548L41.0159 96.1207Z" fill="#0057B8"/>
<path d="M38.328 90.2704C38.8651 90.2704 39.3005 89.835 39.3005 89.2979C39.3005 88.7608 38.8651 88.3254 38.328 88.3254C37.7909 88.3254 37.3555 88.7608 37.3555 89.2979C37.3555 89.835 37.7909 90.2704 38.328 90.2704Z" fill="#0057B8"/>
<path d="M71.6034 81.5737H32.667V82.5614H71.6034V81.5737Z" fill="#DBDBDB"/>
<path d="M133.285 84.6676H52.0078V85.22H133.285V84.6676Z" fill="#EBEBEB"/>
<path d="M133.285 87.1013H52.0078V87.6538H133.285V87.1013Z" fill="#EBEBEB"/>
<path d="M133.285 89.5351H52.0078V90.0875H133.285V89.5351Z" fill="#EBEBEB"/>
<path d="M133.285 91.9686H52.0078V92.521H133.285V91.9686Z" fill="#EBEBEB"/>
<path d="M133.285 94.4021H52.0078V94.9545H133.285V94.4021Z" fill="#EBEBEB"/>
<path d="M122.318 96.8361H52.0078V97.3885H122.318V96.8361Z" fill="#EBEBEB"/>
<path d="M133.286 96.8361H132.362V97.3885H133.286V96.8361Z" fill="#EBEBEB"/>
<path d="M130.579 96.8361H129.655V97.3885H130.579V96.8361Z" fill="#EBEBEB"/>
<path d="M127.872 96.8361H126.948V97.3885H127.872V96.8361Z" fill="#EBEBEB"/>
<path d="M125.165 96.8361H124.242V97.3885H125.165V96.8361Z" fill="#EBEBEB"/>
<path d="M58.6153 103.517H28.144V143.689H58.6153V103.517Z" fill="#EBEBEB"/>
<path d="M26.6676 103.517H60.0913V101.952H26.6676V103.517Z" fill="#DBDBDB"/>
<path d="M16.1557 103.517H26.6675V101.952H16.1557V103.517Z" fill="#EBEBEB"/>
<path d="M28.144 103.517H17.8203V143.689H28.144V103.517Z" fill="#DBDBDB"/>
<path d="M31.4625 120.172H55.2964V106.735H31.4625V120.172Z" stroke="#C7C7C7" stroke-width="0.0825" stroke-miterlimit="10"/>
<path d="M42.0621 113.322H46.7168V110.647H42.0621V113.322Z" fill="#C7C7C7"/>
<path d="M40.6857 113.12H45.3403V110.848H40.6857V113.12Z" stroke="#C7C7C7" stroke-width="0.0825" stroke-miterlimit="10"/>
<path d="M31.4625 137.149H55.2964V123.711H31.4625V137.149Z" stroke="#C7C7C7" stroke-width="0.0825" stroke-miterlimit="10"/>
<path d="M42.0617 130.298H46.7163V127.623H42.0617V130.298Z" fill="#C7C7C7"/>
<path d="M40.6857 130.096H45.3403V127.824H40.6857V130.096Z" stroke="#C7C7C7" stroke-width="0.0825" stroke-miterlimit="10"/>
<path d="M34.4664 132.566H22.8643V136.259H34.4664V132.566Z" fill="#EBEBEB"/>
<path d="M101.682 69.2271H90.0796V72.9198H101.682V69.2271Z" fill="#EBEBEB"/>
<path d="M27.9945 140.915C26.0614 140.948 21.1873 141.031 19.3192 141.052L16.3927 141.066L16.2429 141.067L16.2422 140.915L16.2277 137.223L16.2271 137.057L16.3924 137.058L22.1935 137.081C23.6379 137.093 26.5501 137.124 27.9945 137.145L28.0747 137.146L28.0731 137.223L27.9945 140.915ZM27.9945 140.915L27.9163 137.223L27.9945 137.301C26.5471 137.321 23.6402 137.352 22.1935 137.365L16.3924 137.387L16.5571 137.223L16.5425 140.915L16.3921 140.765L19.2667 140.779C21.1058 140.8 26.0924 140.883 27.9945 140.915Z" fill="#EBEBEB"/>
<path d="M96.1928 119.066L90.432 119.163L87.5174 119.202L84.591 119.216L84.4411 119.217L84.4405 119.066L84.426 115.373L84.4253 115.208L84.5906 115.209L90.3917 115.231L93.2921 115.259L96.1924 115.295L96.2723 115.296L96.2706 115.373L96.1928 119.066ZM96.1928 119.066L96.1146 115.373L96.1928 115.451L93.2924 115.487L90.392 115.515L84.591 115.538L84.7556 115.373L84.7411 119.066L84.5906 118.915L87.4653 118.93L90.3518 118.969L96.1928 119.066Z" fill="#EBEBEB"/>
<path d="M89.7209 123.722L83.9598 123.819L81.0452 123.859L78.1188 123.873L77.969 123.873L77.9683 123.722L77.9538 120.03L77.9531 119.864L78.1185 119.865L83.9195 119.887L86.8199 119.915L89.7203 119.951L89.8001 119.952L89.7985 120.03L89.7209 123.722ZM89.7209 123.722L89.6427 120.03L89.7209 120.108L86.8206 120.144L83.9202 120.172L78.1191 120.194L78.2838 120.03L78.2693 123.722L78.1188 123.572L80.9934 123.586L83.8799 123.626L89.7209 123.722Z" fill="#EBEBEB"/>
<path d="M83.2745 115.373H71.6724V119.066H83.2745V115.373Z" fill="#EBEBEB"/>
<path d="M149.607 137.223H138.005V140.916H149.607V137.223Z" fill="#EBEBEB"/>
<path d="M143.135 14.8282H131.533V18.5209H143.135V14.8282Z" fill="#EBEBEB"/>
<path d="M149.607 23.177L143.847 23.2737L140.932 23.3133L138.005 23.3275L137.856 23.3282L137.855 23.177L137.84 19.4843L137.84 19.3187L138.005 19.3193L143.806 19.3418L146.707 19.3698L149.607 19.4058L149.687 19.4068L149.685 19.4843L149.607 23.177ZM149.607 23.177L149.529 19.4843L149.607 19.5625L146.707 19.5985L143.807 19.6266L138.005 19.649L138.17 19.4843L138.156 23.177L138.005 23.0265L140.879 23.0407L143.766 23.0803L149.607 23.177Z" fill="#EBEBEB"/>
<path d="M34.4662 18.5206L28.7054 18.6173L25.7908 18.6569L22.8644 18.6711L22.7146 18.6718L22.7139 18.5206L22.6994 14.8279L22.6987 14.6626L22.8644 14.6632L28.6655 14.6857L31.5658 14.7137L34.4662 14.7497L34.5464 14.7507L34.5447 14.8282L34.4662 18.5206ZM34.4662 18.5206L34.388 14.8279L34.4662 14.9061L31.5658 14.9424L28.6655 14.9705L22.8644 14.9929L23.0291 14.8282L23.0145 18.5209L22.8641 18.3705L25.7387 18.3847L28.6252 18.4243L34.4662 18.5206Z" fill="#EBEBEB"/>
<path d="M16.1562 153.689L32.8671 153.609L49.578 153.58L83.0001 153.524L116.422 153.579L133.133 153.608L149.844 153.689L133.133 153.77L116.422 153.799L83.0001 153.853L49.578 153.798L32.8671 153.769L16.1562 153.689Z" fill="#263238"/>
<path d="M72.138 56.172L73.9346 54.245L64.157 45.1291L62.3604 47.0562L72.138 56.172Z" fill="#C7C7C7"/>
<path d="M78.1538 62.7068L80.8707 59.7926V59.7923L73.0167 52.4702L70.2998 55.3848L78.1538 62.7068Z" fill="#263238"/>
<path d="M43.1363 36.8743C43.4729 33.7789 44.9876 31.0036 47.4032 29.0566C47.5649 28.9246 47.7299 28.7992 47.8982 28.6804C50.228 26.9974 53.0627 26.245 55.9502 26.5552C57.9929 26.7763 59.8937 27.5089 61.5107 28.6804C62.3456 29.281 63.1046 30.0004 63.7679 30.8221C64.5797 31.8319 65.1968 32.9341 65.6192 34.0891C66.6587 36.904 66.5564 40.0093 65.3915 42.7318C64.6655 44.4181 63.5336 45.9559 62.0057 47.1835C59.5901 49.1305 56.5541 50.0215 53.4587 49.6882C50.3633 49.3549 47.588 47.8402 45.641 45.4213C43.694 43.0057 42.8063 39.9697 43.1363 36.8743Z" fill="white"/>
<path d="M43.1363 36.8743C43.9815 28.6286 53.0449 23.9099 60.3099 27.8617C69.4367 32.908 67.9946 46.3585 57.9949 49.3424C50.0472 51.6524 42.2097 45.1144 43.1363 36.8743ZM43.1363 36.8743C42.2483 45.0781 50.0597 51.5768 57.9659 49.243C67.8055 46.272 69.2377 32.9522 60.2604 27.9518C53.04 23.9865 44.0108 28.6718 43.1363 36.8743Z" fill="#263238"/>
<path d="M61.5109 28.6804H47.8984C50.2282 26.9974 53.0629 26.245 55.9504 26.5552C57.9931 26.7763 59.8939 27.5089 61.5109 28.6804Z" fill="#0057B8"/>
<path d="M65.6189 34.0891H44.1821V42.7318H65.3912C66.5561 40.0093 66.6584 36.904 65.6189 34.0891Z" fill="#EBEBEB"/>
<path d="M51.0493 38.5113C50.8876 38.4024 50.6665 38.3331 50.419 38.2869H50.4124C50.188 38.244 50.0032 38.1846 49.8811 38.0988C49.7557 38.013 49.6996 37.9206 49.6963 37.7952C49.6963 37.6698 49.7656 37.5477 49.891 37.4553C50.0131 37.3662 50.1946 37.3068 50.3992 37.3068C50.6698 37.3068 50.8843 37.4421 51.079 37.5675C51.1153 37.5939 51.1648 37.584 51.1846 37.5477C51.211 37.5081 51.2011 37.4619 51.1648 37.4388C50.9701 37.3101 50.7259 37.1517 50.3992 37.1517C50.1649 37.1517 49.9537 37.2177 49.7986 37.3299C49.6435 37.4454 49.5379 37.6071 49.5379 37.7952C49.5379 37.98 49.6435 38.1285 49.7953 38.2275C49.9471 38.3331 50.1484 38.3958 50.3794 38.4387H50.386C50.6269 38.4849 50.8282 38.5509 50.9635 38.64C51.0955 38.7324 51.1648 38.838 51.1648 38.9799C51.1648 39.1185 51.0889 39.2505 50.9503 39.3495C50.815 39.4485 50.6203 39.5145 50.4058 39.5145C50.0824 39.5178 49.7722 39.3429 49.5874 39.1944C49.5577 39.1647 49.5082 39.168 49.4785 39.2043C49.4554 39.2373 49.4587 39.2868 49.4884 39.3165C49.6963 39.4782 50.0263 39.6696 50.4058 39.6729C50.6533 39.6729 50.8777 39.597 51.0427 39.4782C51.211 39.3561 51.3232 39.1812 51.3232 38.9799C51.3232 38.7819 51.2143 38.6202 51.0493 38.5113Z" fill="#A6A6A6"/>
<path d="M52.6397 37.9305C52.1711 37.9305 51.7949 38.3199 51.7949 38.805C51.7949 39.2802 52.1711 39.6696 52.6397 39.6696C52.9334 39.6696 53.1941 39.5145 53.3426 39.2769C53.3657 39.234 53.3525 39.1845 53.3129 39.1548C53.2799 39.135 53.2238 39.1416 53.2007 39.1845C53.0819 39.3792 52.8707 39.498 52.6397 39.498C52.28 39.498 51.983 39.2109 51.9665 38.8314H53.3921C53.4383 38.8314 53.4779 38.8017 53.4779 38.7555V38.739C53.4416 38.2869 53.0852 37.9305 52.6397 37.9305ZM51.9764 38.6664C52.0391 38.3364 52.313 38.1021 52.6397 38.1021C52.9598 38.1021 53.237 38.3397 53.2931 38.6664H51.9764Z" fill="#A6A6A6"/>
<path d="M55.4515 37.9305C55.4086 37.9305 55.369 37.9668 55.369 38.0163V38.2704C55.2205 38.0658 54.9829 37.9305 54.7156 37.9305C54.2569 37.9305 53.8906 38.3232 53.8906 38.8017C53.8906 39.2769 54.2569 39.6696 54.7156 39.6696C54.9829 39.6696 55.2205 39.531 55.369 39.3264V39.5838C55.369 39.63 55.4086 39.6696 55.4515 39.6696C55.4977 39.6696 55.5373 39.63 55.5373 39.5838V38.0163C55.5373 37.9668 55.4977 37.9305 55.4515 37.9305ZM54.7156 39.498C54.3592 39.498 54.0622 39.1911 54.0622 38.8017C54.0622 38.409 54.3592 38.0988 54.7156 38.0988C55.072 38.0988 55.369 38.409 55.369 38.8017C55.369 39.1911 55.072 39.498 54.7156 39.498Z" fill="#A6A6A6"/>
<path d="M57.1674 37.9337C56.8341 37.9337 56.6031 38.1548 56.4711 38.3594C56.4612 38.3759 56.4546 38.3891 56.4447 38.4023V38.0195C56.4447 37.97 56.4084 37.9337 56.3655 37.9337C56.316 37.9337 56.2764 37.97 56.2764 38.0195V39.5837C56.2764 39.6332 56.316 39.6695 56.3655 39.6695C56.4084 39.6695 56.4447 39.6332 56.4447 39.5837V38.8214C56.4447 38.8148 56.4447 38.8082 56.4546 38.7917C56.4777 38.7224 56.547 38.5442 56.6625 38.3891C56.7846 38.234 56.9397 38.1053 57.1674 38.1053C57.2136 38.1053 57.2532 38.0657 57.2532 38.0195C57.2532 37.97 57.2136 37.9337 57.1674 37.9337Z" fill="#A6A6A6"/>
<path d="M58.9622 39.3462C58.8368 39.4419 58.6817 39.498 58.5134 39.498C58.1108 39.498 57.7907 39.1878 57.7907 38.7984C57.7907 38.4123 58.1108 38.0988 58.5134 38.0988C58.6817 38.0988 58.8368 38.1549 58.9622 38.2539C58.9985 38.2836 59.0513 38.2704 59.0777 38.2407C59.1107 38.2011 59.1041 38.1483 59.0678 38.1219C58.916 38.0031 58.7213 37.9305 58.5134 37.9305C58.0184 37.9305 57.6191 38.3133 57.6191 38.7984C57.6191 39.2868 58.0184 39.6696 58.5134 39.6696C58.7213 39.6696 58.916 39.597 59.0612 39.4848C59.1041 39.4518 59.1107 39.399 59.0777 39.3594C59.0513 39.3297 58.9985 39.3198 58.9622 39.3462Z" fill="#A6A6A6"/>
<path d="M60.4937 37.9306C60.2726 37.9306 60.0746 38.0296 59.9426 38.188V37.2706C59.9426 37.2244 59.9063 37.1848 59.8568 37.1848C59.8106 37.1848 59.771 37.2244 59.771 37.2706V39.5839C59.771 39.5938 59.771 39.6037 59.7743 39.6136C59.7776 39.6235 59.7809 39.6301 59.7875 39.64C59.8073 39.6598 59.8304 39.6697 59.8568 39.6697H59.8733C59.8766 39.6697 59.8799 39.6664 59.8799 39.6664C59.9063 39.6598 59.9228 39.6433 59.9327 39.6235C59.936 39.6202 59.936 39.6169 59.9393 39.6103C59.9393 39.607 59.9426 39.6037 59.9426 39.5938V38.617C59.9426 38.3101 60.1934 38.1055 60.4937 38.1055C60.8006 38.1055 61.0481 38.3101 61.0481 38.617V39.5839C61.0481 39.6301 61.0877 39.6697 61.1339 39.6697C61.1834 39.6697 61.2197 39.6301 61.2197 39.5839V38.617C61.2197 38.2144 60.8963 37.9306 60.4937 37.9306Z" fill="#A6A6A6"/>
<g opacity="0.1">
<path d="M63.7681 30.8207C67.7954 35.8176 67.0027 43.1594 62.0075 47.1851C59.5896 49.1314 56.5549 50.0208 53.4592 49.6888C50.3651 49.3548 47.5878 47.8408 45.6415 45.4229C43.6935 43.007 42.8058 39.9703 43.1381 36.8746C43.4721 33.7805 44.9878 31.0049 47.404 29.0569C49.8219 27.1105 52.8566 26.2212 55.9507 26.5551C59.0444 26.8888 61.8217 28.4028 63.7681 30.8207Z" fill="white"/>
</g>
<path d="M53.248 51.6468C45.7903 50.8436 40.3764 44.1228 41.1796 36.6651C41.9828 29.2075 48.7033 23.7935 56.1613 24.5967C63.6189 25.3999 69.0329 32.1204 68.2297 39.5784C67.4265 47.036 60.7057 52.45 53.248 51.6468ZM53.415 50.0965C60.0176 50.8076 65.9682 46.0144 66.679 39.4114C67.3902 32.8087 62.5969 26.8585 55.9939 26.1474C49.3913 25.4362 43.4411 30.2295 42.7299 36.8324C42.0188 43.4351 46.812 49.3853 53.415 50.0965Z" fill="#37474F"/>
<path d="M66.49 34.1056C66.026 32.7497 65.3214 31.4683 64.3951 30.3163C62.3049 27.7225 59.3369 26.1012 56.0366 25.7444C52.7366 25.39 49.4907 26.3437 46.8992 28.4316C44.3054 30.5195 42.6815 33.4879 42.3274 36.7879C41.971 40.0902 42.927 43.3361 45.0149 45.9276C46.0587 47.2235 47.3216 48.2762 48.7373 49.052C50.1527 49.8255 51.7208 50.3199 53.3712 50.4994C60.1969 51.2323 66.3474 46.2797 67.0803 39.4536C67.2783 37.6201 67.0728 35.8032 66.49 34.1056ZM66.2751 39.3685C65.5894 45.7497 59.8375 50.3806 53.4589 49.6948C50.3731 49.3615 47.5981 47.8442 45.6442 45.4207C43.6923 42.9965 42.7993 39.9622 43.1326 36.8763C43.4636 33.7905 44.9832 31.0155 47.4067 29.0616C49.8306 27.1096 52.8653 26.219 55.9511 26.55C59.0369 26.8833 61.8119 28.4006 63.7635 30.8245C65.7155 33.248 66.6088 36.2823 66.2751 39.3685ZM66.49 34.1056C66.026 32.7497 65.3214 31.4683 64.3951 30.3163C62.3049 27.7225 59.3369 26.1012 56.0366 25.7444C52.7366 25.39 49.4907 26.3437 46.8992 28.4316C44.3054 30.5195 42.6815 33.4879 42.3274 36.7879C41.971 40.0902 42.927 43.3361 45.0149 45.9276C46.0587 47.2235 47.3216 48.2762 48.7373 49.052C50.1527 49.8255 51.7208 50.3199 53.3712 50.4994C60.1969 51.2323 66.3474 46.2797 67.0803 39.4536C67.2783 37.6201 67.0728 35.8032 66.49 34.1056ZM66.2751 39.3685C65.5894 45.7497 59.8375 50.3806 53.4589 49.6948C50.3731 49.3615 47.5981 47.8442 45.6442 45.4207C43.6923 42.9965 42.7993 39.9622 43.1326 36.8763C43.4636 33.7905 44.9832 31.0155 47.4067 29.0616C49.8306 27.1096 52.8653 26.219 55.9511 26.55C59.0369 26.8833 61.8119 28.4006 63.7635 30.8245C65.7155 33.248 66.6088 36.2823 66.2751 39.3685ZM67.9664 33.6031C67.4453 32.0748 66.6523 30.6337 65.6082 29.3378C63.2589 26.4219 59.9184 24.595 56.2039 24.1931C48.5235 23.3671 41.6047 28.9421 40.776 36.6206C40.3767 40.337 41.4499 43.9878 43.7995 46.906C46.1511 49.8219 49.4894 51.6488 53.2035 52.0484C56.918 52.4503 60.5708 51.3745 63.4866 49.0253C66.4052 46.6757 68.2317 43.3351 68.6313 39.6209C68.8538 37.5568 68.6211 35.5138 67.9664 33.6031ZM67.8265 39.5355C67.4499 43.0331 65.7277 46.1803 62.9794 48.396C60.2309 50.6093 56.7896 51.622 53.2916 51.2432C49.7916 50.867 46.6448 49.147 44.4311 46.3962C43.4477 45.1768 42.7013 43.8175 42.2089 42.3778C41.5918 40.5783 41.3717 38.653 41.5816 36.7087C42.3604 29.4731 48.8828 24.2195 56.1184 24.9983C61.377 25.5656 65.5884 29.1626 67.1968 33.8667C67.8017 35.6345 68.0403 37.5581 67.8265 39.5355ZM64.3951 30.3163C62.3049 27.7225 59.3369 26.1012 56.0366 25.7444C52.7366 25.39 49.4907 26.3437 46.8992 28.4316C44.3054 30.5195 42.6815 33.4879 42.3274 36.7879C41.971 40.0902 42.927 43.3361 45.0149 45.9276C46.0587 47.2235 47.3216 48.2762 48.7373 49.052C50.1527 49.8255 51.7208 50.3199 53.3712 50.4994C60.1969 51.2323 66.3474 46.2797 67.0803 39.4536C67.2787 37.6198 67.0728 35.8028 66.4903 34.1053C66.0263 32.7497 65.3218 31.4686 64.3951 30.3163ZM66.2751 39.3685C65.5894 45.7497 59.8375 50.3806 53.4589 49.6948C50.3731 49.3615 47.5981 47.8442 45.6442 45.4207C43.6923 42.9965 42.7993 39.9622 43.1326 36.8763C43.4636 33.7905 44.9832 31.0155 47.4067 29.0616C49.8306 27.1096 52.8653 26.219 55.9511 26.55C59.0369 26.8833 61.8119 28.4006 63.7635 30.8245C65.7155 33.248 66.6088 36.2823 66.2751 39.3685Z" fill="#37474F"/>
<path d="M46.8999 43.7503C46.1435 42.7814 45.637 41.6165 45.334 40.3985C45.1776 39.7883 45.1001 39.1564 45.0667 38.5198C45.042 37.8823 45.0872 37.2397 45.1842 36.6035C45.402 35.3333 45.8891 34.1031 46.6012 33.0342C47.3124 31.965 48.2133 31.04 49.2402 30.318C48.4344 31.2829 47.7077 32.2792 47.1332 33.3441C46.8623 33.8836 46.593 34.4219 46.4131 34.9918C46.2184 35.5544 46.0554 36.1286 45.9706 36.7154C45.769 37.8836 45.7766 39.0815 45.9429 40.2639C46.1198 41.4449 46.4339 42.6151 46.8999 43.7503Z" fill="white"/>
<path d="M63.5164 35.3696C63.9794 36.5081 64.1484 37.7671 64.1071 39.0218C64.0909 39.6514 63.9929 40.2807 63.8507 40.9021C63.7005 41.5222 63.4814 42.128 63.2141 42.7135C62.6577 43.8757 61.8529 44.9261 60.8761 45.7597C59.8996 46.5939 58.7802 47.2378 57.5952 47.6516C58.6341 46.9437 59.6052 46.1834 60.4487 45.3165C60.8569 44.8717 61.2628 44.4275 61.5918 43.9282C61.9327 43.4401 62.2466 42.9323 62.4885 42.3911C63.0016 41.3225 63.3217 40.1682 63.4847 38.9855C63.6369 37.8004 63.6543 36.589 63.5164 35.3696Z" fill="white"/>
</svg>
