<svg width="18" height="18" viewBox="0 0 18 18" fill="none" xmlns="http://www.w3.org/2000/svg">
<path d="M2.66138 15.7036H15.3364C15.4358 15.7036 15.5312 15.6641 15.6015 15.5937C15.6719 15.5234 15.7114 15.428 15.7114 15.3286C15.7114 15.2291 15.6719 15.1337 15.6015 15.0634C15.5312 14.9931 15.4358 14.9536 15.3364 14.9536H2.66138C2.56192 14.9536 2.46654 14.9931 2.39621 15.0634C2.32589 15.1337 2.28638 15.2291 2.28638 15.3286C2.28638 15.428 2.32589 15.5234 2.39621 15.5937C2.46654 15.6641 2.56192 15.7036 2.66138 15.7036ZM7.28288 12.8851C7.59968 12.7964 7.88873 12.6287 8.12288 12.3976L15.2779 5.24258C15.5229 4.99659 15.6605 4.66353 15.6605 4.31633C15.6605 3.96912 15.5229 3.63607 15.2779 3.39008L14.5729 2.69258C14.3234 2.45427 13.9916 2.32129 13.6466 2.32129C13.3016 2.32129 12.9699 2.45427 12.7204 2.69258L5.56538 9.84008C5.33388 10.0727 5.16825 10.3625 5.08538 10.6801L4.53038 12.7501C4.50405 12.8446 4.50337 12.9445 4.52841 13.0394C4.55346 13.1343 4.60332 13.2208 4.67288 13.2901C4.77904 13.3944 4.92152 13.4536 5.07038 13.4551L7.28288 12.8851ZM7.59038 11.8651C7.45211 12.0058 7.27856 12.1069 7.08788 12.1576L6.36038 12.3526L5.61038 11.6026L5.80538 10.8751C5.85784 10.6851 5.95861 10.512 6.09788 10.3726L6.38288 10.0951L7.87538 11.5876L7.59038 11.8651ZM8.40788 11.0551L6.91538 9.56258L11.9629 4.51508L13.4554 6.00758L8.40788 11.0551ZM14.7454 4.71758L13.9879 5.47508L12.4954 3.98258L13.2529 3.21758C13.305 3.16524 13.3669 3.12371 13.4352 3.09537C13.5034 3.06704 13.5765 3.05245 13.6504 3.05245C13.7242 3.05245 13.7974 3.06704 13.8656 3.09537C13.9338 3.12371 13.9958 3.16524 14.0479 3.21758L14.7454 3.92258C14.85 4.02843 14.9087 4.17125 14.9087 4.32008C14.9087 4.4689 14.85 4.61172 14.7454 4.71758Z" fill="#0057B8"/>
</svg>
