<svg width="14" height="14" viewBox="0 0 14 14" fill="none" xmlns="http://www.w3.org/2000/svg">
<path d="M7.00008 12.8334C10.2217 12.8334 12.8334 10.2217 12.8334 7.00008C12.8334 3.77842 10.2217 1.16675 7.00008 1.16675C3.77842 1.16675 1.16675 3.77842 1.16675 7.00008C1.16675 10.2217 3.77842 12.8334 7.00008 12.8334Z" stroke="#141B34" stroke-width="0.875"/>
<path d="M7.00464 6.12979C6.52141 6.12979 6.12964 6.52155 6.12964 7.00479C6.12964 7.48802 6.52141 7.87979 7.00464 7.87979C7.48787 7.87979 7.87964 7.48802 7.87964 7.00479C7.87964 6.52155 7.48787 6.12979 7.00464 6.12979ZM7.00464 6.12979V4.08276M8.75866 8.76155L7.62198 7.62487" stroke="#141B34" stroke-width="0.875" stroke-linecap="round" stroke-linejoin="round"/>
</svg>
