<svg width="22" height="22" viewBox="0 0 22 22" fill="none" xmlns="http://www.w3.org/2000/svg">
<path d="M9 21C5.68286 21 3 18.3171 3 15L4.71429 15.8571" stroke="#8F00FF" stroke-width="1.5" stroke-linecap="round" stroke-linejoin="round"/>
<path d="M13 0.999987C16.3171 0.999987 19 3.68289 19 6.99998L17.2857 6.14288" stroke="#8F00FF" stroke-width="1.5" stroke-linecap="round" stroke-linejoin="round"/>
<path d="M1.5156 5.75C0.760879 3.9197 1.01217 2.3085 1.17234 1.4349C1.21794 1.1862 1.46181 1 1.74528 1L8.20425 1C8.54281 1 8.79533 1.262 8.74277 1.5593C8.58415 2.4563 8.38825 4.0034 9.10849 5.75C9.88279 7.6279 10.0285 9.518 9.99579 10.5495C9.98769 10.8061 9.74569 11 9.45679 11L2.99467 11C2.66171 11 2.39978 10.7448 2.40549 10.4488C2.42576 9.3982 2.2654 7.5684 1.5156 5.75Z" stroke="#8F00FF" stroke-width="1.5" stroke-linecap="round" stroke-linejoin="round"/>
<path d="M12.5156 15.75C11.7609 13.9197 12.0122 12.3085 12.1723 11.4349C12.2179 11.1862 12.4618 11 12.7453 11L19.2043 11C19.5428 11 19.7953 11.262 19.7428 11.5593C19.5842 12.4563 19.3883 14.0034 20.1085 15.75C20.8828 17.6279 21.0285 19.518 20.9958 20.5495C20.9877 20.8061 20.7457 21 20.4568 21L13.9947 21C13.6617 21 13.3998 20.7447 13.4055 20.4488C13.4258 19.3982 13.2654 17.5684 12.5156 15.75Z" stroke="#8F00FF" stroke-width="1.5" stroke-linecap="round" stroke-linejoin="round"/>
<path d="M5.5 6.00023L5.5 5.99066" stroke="#8F00FF" stroke-width="2" stroke-linecap="round" stroke-linejoin="round"/>
<path d="M16.5 16.0002L16.5 15.9906" stroke="#8F00FF" stroke-width="2" stroke-linecap="round" stroke-linejoin="round"/>
</svg>
