<svg width="20" height="21" viewBox="0 0 20 21" fill="none" xmlns="http://www.w3.org/2000/svg">
<path d="M5.83325 18V15.5" stroke="black" stroke-width="1.25" stroke-linecap="round" stroke-linejoin="round"/>
<path d="M14.1667 18V13" stroke="black" stroke-width="1.25" stroke-linecap="round" stroke-linejoin="round"/>
<path d="M14.1667 5.5V3" stroke="black" stroke-width="1.25" stroke-linecap="round" stroke-linejoin="round"/>
<path d="M5.83325 8V3" stroke="black" stroke-width="1.25" stroke-linecap="round" stroke-linejoin="round"/>
<path d="M5.83325 15.5C5.05669 15.5 4.6684 15.5 4.36211 15.3732C3.95374 15.204 3.62928 14.8795 3.46012 14.4712C3.33325 14.1648 3.33325 13.7766 3.33325 13C3.33325 12.2234 3.33325 11.8352 3.46012 11.5288C3.62928 11.1205 3.95374 10.796 4.36211 10.6268C4.6684 10.5 5.05669 10.5 5.83325 10.5C6.60982 10.5 6.9981 10.5 7.30439 10.6268C7.71277 10.796 8.03723 11.1205 8.20639 11.5288C8.33325 11.8352 8.33325 12.2234 8.33325 13C8.33325 13.7766 8.33325 14.1648 8.20639 14.4712C8.03723 14.8795 7.71277 15.204 7.30439 15.3732C6.9981 15.5 6.60982 15.5 5.83325 15.5Z" stroke="black" stroke-width="1.25"/>
<path d="M14.1667 10.5C13.3902 10.5 13.0019 10.5 12.6956 10.3732C12.2872 10.204 11.9627 9.8795 11.7936 9.47117C11.6667 9.16483 11.6667 8.77657 11.6667 8C11.6667 7.22343 11.6667 6.83515 11.7936 6.52886C11.9627 6.12048 12.2872 5.79602 12.6956 5.62687C13.0019 5.5 13.3902 5.5 14.1667 5.5C14.9433 5.5 15.3316 5.5 15.6379 5.62687C16.0462 5.79602 16.3707 6.12048 16.5399 6.52886C16.6667 6.83515 16.6667 7.22343 16.6667 8C16.6667 8.77657 16.6667 9.16483 16.5399 9.47117C16.3707 9.8795 16.0462 10.204 15.6379 10.3732C15.3316 10.5 14.9433 10.5 14.1667 10.5Z" stroke="black" stroke-width="1.25"/>
</svg>
