<svg width="14" height="14" viewBox="0 0 14 14" fill="none" xmlns="http://www.w3.org/2000/svg">
<path d="M9.91659 6.99992C9.91659 8.61074 8.61074 9.91659 6.99992 9.91659C5.38909 9.91659 4.08325 8.61074 4.08325 6.99992C4.08325 5.38909 5.38909 4.08325 6.99992 4.08325C8.61074 4.08325 9.91659 5.38909 9.91659 6.99992Z" stroke="#141B34" stroke-width="0.875" stroke-linecap="round"/>
<path d="M10.877 2.64139C10.6453 2.8546 10.5001 3.16038 10.5001 3.50008C10.5001 4.14441 11.0224 4.66675 11.6667 4.66675C11.888 4.66675 12.0949 4.60515 12.2711 4.49818C12.6082 4.29364 12.8334 3.92316 12.8334 3.50008C12.8334 2.85575 12.3111 2.33341 11.6667 2.33341C11.3621 2.33341 11.0848 2.45017 10.877 2.64139ZM10.877 2.64139C9.8464 1.72407 8.48834 1.16675 7.00008 1.16675C3.77842 1.16675 1.16675 3.77842 1.16675 7.00008C1.16675 10.2217 3.77842 12.8334 7.00008 12.8334C10.2217 12.8334 12.8334 10.2217 12.8334 7.00008C12.8334 6.80321 12.8237 6.60861 12.8046 6.41675" stroke="#141B34" stroke-width="0.875" stroke-linecap="round"/>
</svg>
