<svg width="34" height="34" viewBox="0 0 34 34" fill="none" xmlns="http://www.w3.org/2000/svg">
<path d="M4.59631 8.60918C5.48513 7.98796 6.82497 8.10709 7.62301 8.76614L6.70772 7.43576C5.97114 6.38525 6.23495 5.2487 7.28639 4.51118C8.33784 3.77649 11.3173 5.75173 11.3173 5.75173C10.5741 4.69083 10.7131 3.34626 11.774 2.60212C12.8349 1.86081 14.2986 2.11705 15.0418 3.17985L24.8944 17.0983L23.6387 29.2722L13.1592 25.4503L4.01858 11.8978C3.26876 10.8303 3.52784 9.35805 4.59631 8.60918Z" fill="#90603E"/>
<path d="M2.54825 16.3524C2.54825 16.3524 1.4779 14.7922 3.03899 13.7228C4.5982 12.6534 5.66762 14.2126 5.66762 14.2126L10.6327 21.4536C10.8038 21.168 10.991 20.8863 11.2 20.6083L4.30886 10.5599C4.30886 10.5599 3.23945 9.00074 4.7996 7.93132C6.35881 6.86191 7.42823 8.42112 7.42823 8.42112L13.91 17.8738C14.1511 17.6771 14.3979 17.4795 14.6522 17.2856L7.13794 6.32579C7.13794 6.32579 6.06853 4.76658 7.62868 3.69716C9.18789 2.62775 10.2573 4.18696 10.2573 4.18696L17.7716 15.1449C18.0477 14.9757 18.3209 14.8291 18.5951 14.674L11.5716 4.43185C11.5716 4.43185 10.5022 2.87265 12.0614 1.80323C13.6206 0.733817 14.69 2.29302 14.69 2.29302L22.1164 13.1233L23.2453 14.7705C18.5668 17.9797 18.1214 24.017 20.7945 27.9155C21.3287 28.6955 22.1088 28.1613 22.1088 28.1613C18.9006 23.4818 19.8801 18.2236 24.5597 15.0154L23.1801 8.11098C23.1801 8.11098 22.6648 6.29175 24.4831 5.77548C26.3023 5.26015 26.8186 7.07939 26.8186 7.07939L28.4118 11.8109C29.0434 13.6869 29.7157 15.5562 30.6055 17.3244C33.1178 22.3169 31.6172 28.5216 26.88 31.7714C21.7126 35.3144 14.6484 33.9972 11.1045 28.8308L2.54825 16.3524Z" fill="#AF7E57"/>
<path d="M11.3466 30.2575C7.56444 30.2575 3.74254 26.4356 3.74254 22.6534C3.74254 22.1305 3.35959 21.7079 2.8367 21.7079C2.31381 21.7079 1.85144 22.1305 1.85144 22.6534C1.85144 28.3267 5.67334 32.1486 11.3466 32.1486C11.8695 32.1486 12.2922 31.6862 12.2922 31.1634C12.2922 30.6405 11.8695 30.2575 11.3466 30.2575Z" fill="#0057B8"/>
<path d="M6.61889 32.109C3.78225 32.109 1.89116 30.2179 1.89116 27.3812C1.89116 26.8583 1.4685 26.4357 0.945609 26.4357C0.422721 26.4357 6.10352e-05 26.8583 6.10352e-05 27.3812C6.10352e-05 31.1634 2.8367 34.0001 6.61889 34.0001C7.14178 34.0001 7.56444 33.5774 7.56444 33.0545C7.56444 32.5316 7.14178 32.109 6.61889 32.109ZM22.6932 1.85144C22.1713 1.85144 21.7477 2.27505 21.7477 2.79699C21.7477 3.31893 22.1713 3.74254 22.6932 3.74254C26.4754 3.74254 30.2576 7.13611 30.2576 11.3069C30.2576 11.8289 30.6812 12.2525 31.2031 12.2525C31.7251 12.2525 32.1487 11.8289 32.1487 11.3069C32.1487 6.09317 28.3665 1.85144 22.6932 1.85144Z" fill="#0057B8"/>
<path d="M27.421 0C26.899 0 26.4754 0.383892 26.4754 0.905835C26.4754 1.42778 26.899 1.8911 27.421 1.8911C30.2576 1.8911 32.109 3.99494 32.109 6.57912C32.109 7.10106 32.5713 7.52467 33.0942 7.52467C33.6171 7.52467 34.0001 7.10106 34.0001 6.57912C34.0001 2.95105 31.2031 0 27.421 0Z" fill="#0057B8"/>
</svg>
