<svg width="25" height="24" viewBox="0 0 25 24" fill="none" xmlns="http://www.w3.org/2000/svg">
<path d="M15.4805 7.01556C15.4805 7.01556 15.9805 7.51556 16.4805 8.51556C16.4805 8.51556 18.0687 6.01556 19.4805 5.51556" stroke="#6D6D6D" stroke-width="1.5" stroke-linecap="round" stroke-linejoin="round"/>
<path d="M10.4949 2.02134C7.99638 1.91556 6.06612 2.20338 6.06612 2.20338C4.84727 2.29053 2.51146 2.97385 2.51148 6.96454C2.5115 10.9213 2.48564 15.7993 2.51148 17.7439C2.51148 18.932 3.2471 21.7033 5.79326 21.8518C8.8881 22.0324 14.4627 22.0708 17.0204 21.8518C17.7051 21.8132 19.9846 21.2757 20.2731 18.7956C20.572 16.2263 20.5125 14.4407 20.5125 14.0157" stroke="#6D6D6D" stroke-width="1.5" stroke-linecap="round" stroke-linejoin="round"/>
<path d="M22.5 7.01556C22.5 9.77698 20.2593 12.0156 17.4952 12.0156C14.7311 12.0156 12.4904 9.77698 12.4904 7.01556C12.4904 4.25414 14.7311 2.01556 17.4952 2.01556C20.2593 2.01556 22.5 4.25414 22.5 7.01556Z" stroke="#141B34" stroke-width="1.5" stroke-linecap="round"/>
<path d="M7.48047 13.0156H11.4804" stroke="#141B34" stroke-width="1.5" stroke-linecap="round"/>
<path d="M7.48047 17.0156H15.4804" stroke="#141B34" stroke-width="1.5" stroke-linecap="round"/>
</svg>
