<svg width="215" height="54" viewBox="0 0 215 54" fill="none" xmlns="http://www.w3.org/2000/svg">
<path fill-rule="evenodd" clip-rule="evenodd" d="M20.3804 9.63899L10.6732 5.79663L0 32.761L9.70719 36.6033L15.4202 22.1701L22.5587 34.5342L28.5827 31.0562L31.5131 36.1317L36.4871 33.26L32.093 44.361L41.8002 48.2033L52.4735 21.239L43.1773 17.5593L43.0834 17.3966L42.9544 17.4711L42.7663 17.3966L42.6723 17.6339L29.3103 25.3485L20.3235 9.78286L20.3804 9.63899Z" fill="#0057B8"/>
<path d="M62.7482 47V15.6191L82.0699 28.1714L101.392 15.6191V47H92.1118V29.0232L82.0699 35.3891L72.1177 29.0232V47H62.7482ZM136.545 42.3825L140.58 47H105.433V15.6191H140.669L136.679 20.2366H114.847V29.0232H138.562V33.6407H114.847V42.3825H136.545ZM173.875 42.3825L169.84 47H143.346V15.6191H152.715V42.3825H173.875ZM212.169 15.6191V47H202.755V33.6407H186.168V47H176.574V15.6191H212.169ZM186.302 20.2366V28.9784H202.531V20.2366H186.302Z" fill="#0057B8"/>
</svg>
