<svg width="150" height="111" viewBox="0 0 150 111" fill="none" xmlns="http://www.w3.org/2000/svg">
<g opacity="0.4">
<path d="M12.9105 110.481C12.9105 110.481 -4.10426 100.251 2.11954 86.543C5.77924 78.4877 21.6621 81.4874 19.989 68.0795C17.8011 50.5037 0.344139 38.6666 10.419 23.6351C20.7909 8.15814 46.6827 26.6051 71.9937 10.2404C88.3287 -0.319559 117.405 -6.24306 127.945 10.5704C138.01 26.6183 117.9 44.4779 132.496 56.4899C147.092 68.5019 163.846 86.5826 126.906 107.914C125.068 108.976 123.451 110.824 121.444 110.824C90.6783 110.824 62.3181 110.732 62.3181 110.732" fill="#969696"/>
<path d="M9.59066 95.7171C5.76926 95.1 9.34646 106.32 14.8212 104.884C20.2959 103.449 12.8049 96.2319 9.59066 95.7171Z" fill="#969696"/>
<path d="M7.45229 89.3613C5.26109 90.1533 6.01019 94.9086 9.24749 93.9021C12.4848 92.8956 9.60389 88.5858 7.45229 89.3613Z" fill="#969696"/>
<path d="M121.444 110.808C87.1476 110.716 62.3184 110.716 62.3184 110.716L121.444 110.808Z" fill="#969696"/>
</g>
<path d="M128.401 20.4309C127.776 20.2868 127.191 20.0062 126.688 19.6092L126.85 19.4079C127.321 19.7858 127.872 20.053 128.46 20.19L128.401 20.4309ZM130.298 20.4309L130.239 20.1768C130.825 20.0435 131.374 19.7782 131.843 19.4013L132.004 19.6059C131.504 20.0038 130.921 20.2856 130.298 20.4309ZM125.503 18.1209C125.224 17.5448 125.079 16.9131 125.078 16.2729H125.338C125.338 16.8743 125.474 17.4679 125.738 18.0087L125.503 18.1209ZM133.189 18.1209L132.955 18.0087C133.217 17.4667 133.353 16.8719 133.351 16.2696H133.536H133.608C133.609 16.9104 133.466 17.5432 133.189 18.1209ZM125.728 14.5404L125.497 14.4282C125.774 13.8515 126.176 13.3442 126.675 12.9432L126.837 13.1445C126.369 13.5231 125.991 13.9996 125.728 14.5404ZM132.948 14.5173C132.684 13.9774 132.303 13.5029 131.833 13.128L131.991 12.9267C132.493 13.325 132.9 13.83 133.182 14.4051L132.948 14.5173ZM128.44 12.3657L128.384 12.1149C128.698 12.0423 129.019 12.0058 129.341 12.006C129.656 12.0052 129.971 12.0395 130.278 12.1083L130.219 12.3591C129.931 12.2956 129.636 12.2635 129.341 12.2634C129.038 12.2643 128.736 12.2986 128.44 12.3657Z" fill="#2E363D"/>
<path d="M8.19481 74.6399H8.11891V74.3792H8.19151C8.76072 74.3803 9.32836 74.3194 9.88441 74.1977L9.94051 74.4518C9.36681 74.5755 8.7817 74.6385 8.19481 74.6399ZM6.29731 74.4155C5.70119 74.274 5.12322 74.0648 4.57471 73.7918L4.69021 73.5608C5.22214 73.8223 5.78243 74.0216 6.36001 74.1548L6.29731 74.4155ZM11.6796 73.8578L11.5674 73.6235C12.104 73.3693 12.61 73.0549 13.0755 72.6863L13.2372 72.8909C12.7546 73.266 12.2323 73.5869 11.6796 73.8479V73.8578ZM3.03361 72.7952C2.55861 72.4047 2.12911 71.9619 1.75321 71.4752L1.95781 71.3168C2.32247 71.7865 2.73867 72.2137 3.19861 72.5906L3.03361 72.7952ZM14.5407 71.5973L14.3394 71.4356C14.712 70.9739 15.0309 70.4712 15.2898 69.9374L15.5241 70.0496C15.255 70.5974 14.9251 71.1133 14.5407 71.5874V71.5973ZM0.802811 69.9143C0.545055 69.3572 0.351317 68.7727 0.225311 68.1719L0.476111 68.1191C0.598127 68.7008 0.786353 69.2665 1.03711 69.8054L0.802811 69.9143ZM16.1313 68.3171L15.8805 68.261C16.0128 67.6818 16.0792 67.0896 16.0785 66.4955H16.3359C16.3353 67.1051 16.2666 67.7128 16.1313 68.3072V68.3171ZM0.311111 66.3371H0.0537109C0.0630348 65.7239 0.142758 65.1138 0.291311 64.5188L0.542111 64.5815C0.398987 65.1572 0.321494 65.7473 0.311111 66.3404V66.3371ZM15.93 65.0039C15.8188 64.4214 15.6417 63.8534 15.402 63.311L15.6396 63.2054C15.8868 63.767 16.0695 64.3549 16.1841 64.9577L15.93 65.0039ZM1.15261 62.915L0.921611 62.7995C1.20062 62.2526 1.54047 61.7389 1.93471 61.2683L2.13271 61.4333C1.75477 61.8892 1.42933 62.3863 1.16251 62.915H1.15261ZM14.5176 61.7699C14.1582 61.295 13.7464 60.8622 13.29 60.4796L13.4583 60.2849C13.9252 60.6819 14.3458 61.1302 14.7123 61.6214L14.5176 61.7699ZM3.42631 60.1991L3.27121 59.9945C3.75933 59.6235 4.28729 59.308 4.84531 59.054L4.95091 59.2916C4.41002 59.5381 3.8986 59.8447 3.42631 60.2057V60.1991ZM11.8281 59.4797C11.3039 59.2067 10.7503 58.9941 10.1781 58.8461L10.2408 58.5953C10.8362 58.7487 11.412 58.9701 11.9568 59.2553L11.8281 59.4797ZM6.64381 58.7471L6.59101 58.493C7.11831 58.3901 7.65427 58.3382 8.19151 58.3379H8.41921V58.5953C8.34661 58.5953 8.26741 58.5953 8.19811 58.5953C7.67611 58.5977 7.15557 58.6507 6.64381 58.7537V58.7471Z" fill="#2E363D"/>
<path d="M15.8209 73.4651C17.1769 73.4651 18.2761 72.3659 18.2761 71.0099C18.2761 69.6539 17.1769 68.5547 15.8209 68.5547C14.465 68.5547 13.3657 69.6539 13.3657 71.0099C13.3657 72.3659 14.465 73.4651 15.8209 73.4651Z" fill="#2E363D"/>
<path d="M124.154 67.9905C125.152 67.9905 125.962 67.1808 125.962 66.1821C125.962 65.1833 125.152 64.3737 124.154 64.3737C123.155 64.3737 122.345 65.1833 122.345 66.1821C122.345 67.1808 123.155 67.9905 124.154 67.9905Z" fill="#2E363D"/>
<path d="M127.665 13.1609C127.665 13.4168 127.589 13.6669 127.447 13.8796C127.305 14.0923 127.103 14.2581 126.866 14.356C126.63 14.454 126.37 14.4796 126.119 14.4297C125.868 14.3797 125.637 14.2565 125.457 14.0756C125.276 13.8947 125.152 13.6642 125.102 13.4133C125.053 13.1623 125.078 12.9022 125.176 12.6659C125.274 12.4295 125.44 12.2275 125.653 12.0853C125.865 11.9432 126.115 11.8673 126.371 11.8673C126.541 11.8673 126.709 11.9008 126.866 11.9658C127.023 12.0308 127.166 12.1261 127.286 12.2462C127.406 12.3663 127.501 12.5089 127.566 12.6659C127.631 12.8228 127.665 12.991 127.665 13.1609Z" fill="#2E363D"/>
<path d="M61.767 11.8674C61.7677 12.2513 61.6544 12.6268 61.4416 12.9463C61.2288 13.2659 60.926 13.5151 60.5715 13.6624C60.217 13.8098 59.8267 13.8487 59.4501 13.7742C59.0735 13.6997 58.7274 13.5152 58.4557 13.2439C58.184 12.9727 57.9989 12.627 57.9238 12.2505C57.8486 11.874 57.8869 11.4837 58.0336 11.1289C58.1804 10.7741 58.4291 10.4709 58.7483 10.2575C59.0674 10.0442 59.4427 9.9303 59.8266 9.9303C60.3407 9.9303 60.8337 10.1343 61.1975 10.4975C61.5613 10.8606 61.7662 11.3533 61.767 11.8674Z" fill="#2E363D"/>
<path d="M63.3178 17.8139C63.1644 17.8141 63.0112 17.8042 62.8591 17.7842L62.8921 17.5268C63.4705 17.6018 64.0583 17.5209 64.5949 17.2925L64.6972 17.5301C64.2616 17.7179 63.7922 17.8145 63.3178 17.8139ZM61.1398 17.0582C60.6458 16.6672 60.2671 16.1494 60.0442 15.56L60.2851 15.4709C60.4926 16.0162 60.8438 16.4952 61.3015 16.8569L61.1398 17.0582ZM66.1327 16.3685L65.9248 16.2167C66.2681 15.7447 66.4758 15.1879 66.5254 14.6063L66.7828 14.6294C66.731 15.2564 66.5097 15.8576 66.1426 16.3685H66.1327ZM60.0739 14.3225H59.8198C59.8201 13.693 59.99 13.0752 60.3115 12.5339L60.5359 12.6659C60.2376 13.1669 60.0813 13.7395 60.0838 14.3225H60.0739ZM66.2251 12.9299C65.9767 12.396 65.5877 11.9398 65.0998 11.6099L65.2417 11.3954C65.768 11.7421 66.191 12.2243 66.466 12.7913L66.2251 12.9299ZM61.7998 11.4779L61.6777 11.2502C62.2322 10.952 62.8571 10.8095 63.4861 10.8377V11.0951C62.9 11.0706 62.3179 11.2027 61.7998 11.4779Z" fill="#2E363D"/>
<path d="M128.13 73.1055C127.508 73.0608 126.902 72.8866 126.351 72.594L126.474 72.363C126.992 72.6403 127.563 72.8055 128.15 72.8481L128.13 73.1055ZM129.962 72.8679L129.879 72.6237C130.433 72.4286 130.94 72.122 131.371 71.7228L131.546 71.9109C131.087 72.3378 130.544 72.6638 129.952 72.8679H129.962ZM124.929 71.4093C124.541 70.9227 124.258 70.3608 124.098 69.7593L124.348 69.6933C124.499 70.2613 124.767 70.7918 125.134 71.2509L124.929 71.4093ZM132.618 70.4193L132.381 70.3137C132.617 69.7762 132.739 69.195 132.737 68.6076H132.994C132.991 69.2273 132.86 69.8397 132.608 70.4061L132.618 70.4193ZM132.711 68.1423C132.648 67.5609 132.465 66.9989 132.173 66.4923L132.397 66.3636C132.707 66.9039 132.902 67.5029 132.968 68.1225L132.711 68.1423ZM124.253 67.9641L123.999 67.9278C124.094 67.3092 124.319 66.7177 124.659 66.192L124.876 66.3306C124.555 66.821 124.339 67.3727 124.243 67.9509L124.253 67.9641ZM131.014 65.1822C130.542 64.832 130.003 64.5827 129.43 64.4496L129.49 64.1988C130.096 64.3392 130.667 64.6032 131.166 64.9743L131.014 65.1822ZM126.064 65.0799L125.919 64.8654C126.435 64.5141 127.018 64.2736 127.632 64.1592L127.678 64.4133C127.101 64.5185 126.551 64.7421 126.064 65.07V65.0799Z" fill="#2E363D"/>
<path d="M75.9054 75.2636L77.1957 80.1146L104.124 80.2367C104.899 80.2367 105.279 80.8307 104.975 81.5567L93.0259 110.006C92.8703 110.297 92.6391 110.54 92.3569 110.71C92.0746 110.88 91.7516 110.971 91.422 110.973L47.2515 110.772C46.5915 110.772 46.1229 110.333 46.212 109.782L50.6736 82.4345L51.0729 79.9892L51.7593 75.7817C51.8372 75.3991 52.043 75.0543 52.3429 74.8042C52.6428 74.5541 53.0189 74.4135 53.4093 74.4056L74.8197 74.5013C75.0607 74.4846 75.3001 74.5512 75.4978 74.6899C75.6955 74.8287 75.8394 75.0313 75.9054 75.2636Z" fill="#0057B8"/>
<path d="M53.4229 74.4156L74.8333 74.5113C75.0707 74.4971 75.306 74.5637 75.5008 74.7004C75.6956 74.837 75.8383 75.0356 75.9058 75.2638L77.1961 80.1147L103.622 80.2336" stroke="#121D30" stroke-width="0.2475" stroke-miterlimit="10"/>
<path d="M49.4789 85.8763H88.5674V65.8387H49.4789V85.8763Z" fill="white"/>
<path d="M53.02 65.8387H80.8489" stroke="#121D30" stroke-width="0.2475" stroke-miterlimit="10"/>
<path d="M65.89 74.1416L68.1208 78.4316H91.0822C91.399 78.4316 91.7029 78.5574 91.9269 78.7814C92.151 79.0055 92.2768 79.3093 92.2768 79.6261V109.782C92.2759 110.098 92.1497 110.401 91.9258 110.624C91.7018 110.847 91.3985 110.973 91.0822 110.973H47.0437C46.7275 110.973 46.4241 110.847 46.2002 110.624C45.9762 110.401 45.85 110.098 45.8491 109.782V74.6927C45.85 74.3764 45.9762 74.0734 46.2002 73.8501C46.4241 73.6268 46.7275 73.5013 47.0437 73.5014H64.8274C65.0462 73.5005 65.261 73.5598 65.4483 73.6727C65.6357 73.7856 65.7885 73.9478 65.89 74.1416Z" fill="#006BE1"/>
<path d="M47.0439 73.5013H64.8276C65.0458 73.5011 65.2599 73.5607 65.4467 73.6736C65.6334 73.7864 65.7857 73.9483 65.8869 74.1415L68.1177 78.4315H91.0791" stroke="#121D30" stroke-width="0.2475" stroke-miterlimit="10"/>
<path d="M89.396 85.8566C92.8807 85.8566 95.7056 83.0317 95.7056 79.547C95.7056 76.0623 92.8807 73.2374 89.396 73.2374C85.9113 73.2374 83.0864 76.0623 83.0864 79.547C83.0864 83.0317 85.9113 85.8566 89.396 85.8566Z" fill="#121D30"/>
<path d="M92.0855 81.9L89.7392 79.557L92.0855 77.2107C92.1261 77.1653 92.1485 77.1066 92.1485 77.0457C92.1485 76.9848 92.1261 76.9261 92.0855 76.8807C92.0408 76.8387 91.9818 76.8153 91.9205 76.8153C91.8592 76.8153 91.8002 76.8387 91.7555 76.8807L89.4092 79.227L87.0629 76.8807C87.0167 76.8563 86.964 76.8473 86.9124 76.8551C86.8608 76.8629 86.813 76.887 86.7761 76.9239C86.7392 76.9608 86.7151 77.0086 86.7073 77.0602C86.6995 77.1118 86.7085 77.1645 86.7329 77.2107L89.0792 79.557L86.7329 81.9C86.7085 81.9461 86.6995 81.9989 86.7073 82.0505C86.7151 82.1021 86.7392 82.1498 86.7761 82.1868C86.813 82.2237 86.8608 82.2478 86.9124 82.2555C86.964 82.2633 87.0167 82.2544 87.0629 82.23L89.4092 79.887L91.7555 82.23C91.8002 82.272 91.8592 82.2954 91.9205 82.2954C91.9818 82.2954 92.0408 82.272 92.0855 82.23C92.1268 82.1849 92.1497 82.1261 92.1497 82.065C92.1497 82.0039 92.1268 81.945 92.0855 81.9Z" fill="white"/>
<path d="M63.9595 100.763C67.8337 95.5223 72.7177 97.6739 73.9585 100.763" stroke="white" stroke-width="0.2475" stroke-miterlimit="10"/>
<path d="M63.1512 89.7935C63.1512 91.163 62.5374 92.2718 61.785 92.2718C61.0326 92.2718 60.4155 91.163 60.4155 89.7935C60.4155 88.424 61.0293 87.3185 61.785 87.3185C62.5407 87.3185 63.1512 88.4273 63.1512 89.7935Z" fill="white"/>
<path d="M77.5028 89.7935C77.5028 91.163 76.889 92.2718 76.1333 92.2718C75.3776 92.2718 74.7671 91.163 74.7671 89.7935C74.7671 88.424 75.3809 87.3185 76.1333 87.3185C76.8857 87.3185 77.5028 88.4273 77.5028 89.7935Z" fill="white"/>
<path d="M38.7759 28.1429L40.9968 29.255C41.3726 29.4437 41.7873 29.542 42.2079 29.5421H42.3729" stroke="#121D30" stroke-width="0.2475" stroke-miterlimit="10"/>
<path d="M32.3135 19.4999L33.5444 27.9677H32" stroke="#121D30" stroke-width="0.2475" stroke-miterlimit="10"/>
<path d="M39.8713 48.249C39.8713 48.6879 39.6766 49.0377 39.439 49.0377C39.2014 49.0377 39.0034 48.6879 39.0034 48.249C38.991 48.1087 39.0124 47.9674 39.0658 47.8371C39.1192 47.7068 39.203 47.5911 39.3103 47.4999L39.8383 47.9685C39.8582 48.0607 39.8692 48.1546 39.8713 48.249Z" fill="#121D30"/>
<path d="M43.98 20.081C44.5839 19.6883 44.97 19.7774 44.871 20.609L43.98 20.081Z" fill="#121D30"/>
<path d="M64.0375 23.2978C63.9022 22.5949 64.1233 22.2748 64.8625 22.6741L64.0375 23.2978Z" fill="#121D30"/>
<path d="M51.0059 105.3H53.4149" stroke="#121D30" stroke-width="0.2475" stroke-miterlimit="10"/>
<path d="M48.5998 107.785C48.5985 107.824 48.6049 107.862 48.6187 107.898C48.6326 107.934 48.6535 107.967 48.6803 107.995C48.7071 108.022 48.7392 108.044 48.7747 108.059C48.8102 108.074 48.8483 108.082 48.8869 108.082C48.9663 108.081 49.0425 108.05 49.0996 107.995C49.1567 107.94 49.1904 107.865 49.1938 107.785C49.1951 107.746 49.1886 107.708 49.1745 107.671C49.1605 107.635 49.1393 107.602 49.1121 107.575C49.085 107.547 49.0525 107.525 49.0166 107.51C48.9807 107.495 48.9422 107.488 48.9034 107.488C48.8242 107.489 48.7485 107.52 48.6919 107.576C48.6353 107.631 48.6023 107.706 48.5998 107.785Z" stroke="#121D30" stroke-width="0.2475" stroke-miterlimit="10"/>
<path d="M50.065 107.785C50.0641 107.824 50.0709 107.862 50.0849 107.898C50.0989 107.933 50.1198 107.966 50.1465 107.994C50.1732 108.021 50.2052 108.043 50.2405 108.059C50.2757 108.074 50.3137 108.082 50.3521 108.082C50.4316 108.081 50.5077 108.05 50.5648 107.995C50.6219 107.94 50.6556 107.865 50.659 107.785C50.6608 107.747 50.6547 107.708 50.641 107.672C50.6274 107.636 50.6065 107.603 50.5796 107.575C50.5527 107.547 50.5204 107.525 50.4847 107.51C50.449 107.495 50.4106 107.488 50.3719 107.488C50.2925 107.489 50.2163 107.52 50.1592 107.575C50.1021 107.631 50.0684 107.706 50.065 107.785Z" stroke="#121D30" stroke-width="0.2475" stroke-miterlimit="10"/>
<path d="M46.2568 109.683H53.9227" stroke="#121D30" stroke-width="0.2475" stroke-miterlimit="10"/>
<path d="M33.1426 105.3H35.5516" stroke="#121D30" stroke-width="0.2475" stroke-miterlimit="10"/>
<path d="M33.6016 106.138H36.0073" stroke="#121D30" stroke-width="0.2475" stroke-miterlimit="10"/>
<path d="M47.531 41.8281L45.6665 38.4225L46.5245 36.558" stroke="#121D30" stroke-width="0.2475" stroke-miterlimit="10"/>
<path d="M14.0259 44.5176C14.7481 45.2448 15.5521 45.8859 16.4217 46.4283" stroke="#121D30" stroke-width="0.2475" stroke-miterlimit="10"/>
<path d="M14.3623 43.62C15.0647 44.4019 15.9177 45.0338 16.8703 45.4779" stroke="#121D30" stroke-width="0.2475" stroke-miterlimit="10"/>
<path d="M29.8429 48.4512L26.8003 47.5701" stroke="#121D30" stroke-width="0.2475" stroke-miterlimit="10"/>
<path d="M62.3415 39.3893C61.8004 40.2599 61.1603 41.065 60.4341 41.7884" stroke="#121D30" stroke-width="0.2475" stroke-miterlimit="10"/>
<path d="M61.8001 38.5841C61.2905 39.5028 60.6015 40.3096 59.7739 40.9568" stroke="#121D30" stroke-width="0.2475" stroke-miterlimit="10"/>
<path d="M47.8081 46.7747L50.5768 45.2303" stroke="#121D30" stroke-width="0.2475" stroke-miterlimit="10"/>
<path d="M29.1992 100.961L34.5584 100.756" stroke="#121D30" stroke-width="0.2475" stroke-miterlimit="10"/>
<path d="M3.69043 110.808H146.551" stroke="#121D30" stroke-width="0.33" stroke-miterlimit="10"/>
<path d="M81.7609 29.3772L99.1552 33.1722C96.5152 25.2753 106.379 20.1075 103.729 12.2106L86.3347 8.41565C88.9846 16.3158 79.111 21.4803 81.7609 29.3772Z" fill="white"/>
<path d="M101.63 22.3351C103.366 19.1868 104.993 16.0155 103.719 12.2106L86.3247 8.41565" stroke="#121D30" stroke-width="0.2475" stroke-miterlimit="10"/>
<path d="M81.7607 29.377L99.155 33.172C98.3102 30.6541 98.7359 28.4134 99.6269 26.275" stroke="#121D30" stroke-width="0.2475" stroke-miterlimit="10"/>
<path d="M69.8248 54.2723L85.15 45.2204C77.8372 41.234 81.5563 30.7301 74.2402 26.7404L58.915 35.7956C66.2278 39.7853 62.5087 50.2892 69.8248 54.2723Z" fill="white"/>
<path d="M69.8247 54.2723L85.1499 45.2204C81.8334 43.412 80.7873 40.2704 79.9491 36.9935" stroke="#121D30" stroke-width="0.2475" stroke-miterlimit="10"/>
<path d="M67.9372 30.4728L58.915 35.8023C62.7562 37.8945 63.5548 41.7885 64.5052 45.5901" stroke="#121D30" stroke-width="0.2475" stroke-miterlimit="10"/>
<path d="M101.105 62.7765L85.79 53.7213C93.1061 49.7382 89.3837 39.2343 96.6998 35.2413L112.028 44.2932C104.699 48.2862 108.421 58.8 101.105 62.7765Z" fill="white"/>
<path d="M106.877 52.2758C105.834 56.2952 105.187 60.5522 101.105 62.7764L90.9248 56.7638" stroke="#121D30" stroke-width="0.2475" stroke-miterlimit="10"/>
<path d="M91.6841 42.7256C92.4959 39.7292 93.6245 36.9176 96.6869 35.2511L104.937 40.112" stroke="#121D30" stroke-width="0.2475" stroke-miterlimit="10"/>
</svg>
