<svg width="20" height="20" viewBox="0 0 20 20" fill="none" xmlns="http://www.w3.org/2000/svg">
<path d="M17 11C17 15.1421 13.6421 18.5 9.5 18.5C5.35786 18.5 2 15.1421 2 11C2 6.85786 5.35786 3.5 9.5 3.5C13.6421 3.5 17 6.85786 17 11Z" stroke="#141B34" stroke-width="1.125"/>
<path d="M11.5326 9.54582C11.4583 8.97383 10.8015 8.04966 9.6206 8.04964C8.2484 8.04962 7.67102 8.80959 7.55386 9.18958C7.37108 9.69785 7.40764 10.7428 9.01602 10.8567C11.0265 10.9992 11.832 11.2365 11.7295 12.467C11.627 13.6974 10.5063 13.9632 9.6206 13.9347C8.73485 13.9062 7.28573 13.4994 7.22949 12.405M9.48005 7.24854V8.05236M9.48005 13.9273V14.7485" stroke="#141B34" stroke-width="1.125" stroke-linecap="round"/>
<path d="M15.5 9.375C17.9162 9.375 19.875 7.41625 19.875 5C19.875 2.58375 17.9162 0.625 15.5 0.625C13.0838 0.625 11.125 2.58375 11.125 5C11.125 7.41625 13.0838 9.375 15.5 9.375Z" fill="#F5F5F5"/>
<path d="M14.2868 6.21323L16.8125 3.6875M14.2868 6.21323C14.5078 6.4343 15.5505 6.21774 15.8654 6.21323M14.2868 6.21323C14.0657 5.99216 14.2823 4.94951 14.2868 4.63464" stroke="#141B34" stroke-width="0.65625" stroke-linecap="round" stroke-linejoin="round"/>
</svg>
