<svg width="23" height="19" viewBox="0 0 23 19" fill="none" xmlns="http://www.w3.org/2000/svg">
<path d="M21.48 11.3734C21.2232 11.1756 20.9242 11.0399 20.6062 10.9768C20.2883 10.9137 19.9601 10.925 19.6472 11.0097L15.4059 11.9847C15.545 11.6158 15.5925 11.2187 15.5443 10.8275C15.4962 10.4362 15.3539 10.0625 15.1297 9.73826C14.9054 9.41407 14.6058 9.14911 14.2567 8.9661C13.9075 8.78309 13.5192 8.68749 13.125 8.6875H8.43188C8.06239 8.68645 7.69638 8.75875 7.35505 8.9002C7.01372 9.04166 6.70386 9.24946 6.44344 9.51156L4.2675 11.6875H1.5C1.1519 11.6875 0.818064 11.8258 0.571922 12.0719C0.325781 12.3181 0.1875 12.6519 0.1875 13V16.75C0.1875 17.0981 0.325781 17.4319 0.571922 17.6781C0.818064 17.9242 1.1519 18.0625 1.5 18.0625H11.25C11.2961 18.0625 11.3421 18.0568 11.3869 18.0456L17.3869 16.5456C17.4153 16.5381 17.4432 16.5287 17.4703 16.5175L21.1097 14.9688L21.1406 14.9547C21.4624 14.794 21.738 14.554 21.9414 14.2574C22.1448 13.9608 22.2694 13.6172 22.3033 13.2592C22.3373 12.9011 22.2795 12.5403 22.1355 12.2107C21.9914 11.8811 21.7658 11.5936 21.48 11.3753V11.3734ZM1.3125 16.75V13C1.3125 12.9503 1.33225 12.9026 1.36742 12.8674C1.40258 12.8323 1.45027 12.8125 1.5 12.8125H3.9375V16.9375H1.5C1.45027 16.9375 1.40258 16.9177 1.36742 16.8826C1.33225 16.8474 1.3125 16.7997 1.3125 16.75ZM20.6512 13.9375L17.07 15.4628L11.1806 16.9375H5.0625V12.4834L7.23844 10.3066C7.3948 10.1494 7.5808 10.0248 7.78566 9.93996C7.99051 9.85516 8.21016 9.81183 8.43188 9.8125H13.125C13.4731 9.8125 13.8069 9.95078 14.0531 10.1969C14.2992 10.4431 14.4375 10.7769 14.4375 11.125C14.4375 11.4731 14.2992 11.8069 14.0531 12.0531C13.8069 12.2992 13.4731 12.4375 13.125 12.4375H10.5C10.3508 12.4375 10.2077 12.4968 10.1023 12.6023C9.99676 12.7077 9.9375 12.8508 9.9375 13C9.9375 13.1492 9.99676 13.2923 10.1023 13.3977C10.2077 13.5032 10.3508 13.5625 10.5 13.5625H13.5C13.5423 13.5625 13.5844 13.5578 13.6256 13.5484L19.9069 12.1038L19.9294 12.0981C20.1658 12.0337 20.4177 12.0588 20.6367 12.1688C20.8557 12.2787 21.0263 12.4657 21.1158 12.6938C21.2053 12.9219 21.2074 13.1751 21.1217 13.4046C21.0359 13.6342 20.8684 13.824 20.6512 13.9375ZM15.375 6.8125C15.6044 6.8124 15.8332 6.78789 16.0575 6.73938C16.2262 7.33849 16.5666 7.8751 17.0367 8.283C17.5069 8.69089 18.0861 8.95223 18.703 9.03476C19.32 9.11728 19.9475 9.01739 20.5083 8.74741C21.0691 8.47742 21.5386 8.04915 21.8589 7.51545C22.1791 6.98175 22.3361 6.36597 22.3105 5.74408C22.2848 5.1222 22.0777 4.52143 21.7146 4.01591C21.3515 3.51038 20.8483 3.12222 20.2672 2.89932C19.6861 2.67642 19.0524 2.62853 18.4444 2.76156C18.2837 2.19055 17.9668 1.67569 17.5295 1.27494C17.0921 0.874177 16.5516 0.603411 15.9688 0.4931C15.3859 0.382789 14.7839 0.43731 14.2303 0.65053C13.6768 0.863749 13.1937 1.22721 12.8355 1.70001C12.4772 2.17282 12.258 2.73621 12.2025 3.3268C12.147 3.9174 12.2574 4.51176 12.5213 5.04303C12.7852 5.57429 13.1921 6.02137 13.6963 6.33398C14.2004 6.64658 14.7818 6.81231 15.375 6.8125ZM21.1875 5.875C21.1875 6.28292 21.0665 6.68169 20.8399 7.02086C20.6133 7.36004 20.2912 7.6244 19.9143 7.7805C19.5374 7.93661 19.1227 7.97745 18.7226 7.89787C18.3225 7.81829 17.955 7.62185 17.6666 7.33341C17.3781 7.04496 17.1817 6.67746 17.1021 6.27737C17.0225 5.87729 17.0634 5.46259 17.2195 5.08572C17.3756 4.70884 17.64 4.38673 17.9791 4.16009C18.3183 3.93346 18.7171 3.8125 19.125 3.8125C19.672 3.8125 20.1966 4.0298 20.5834 4.41659C20.9702 4.80339 21.1875 5.32799 21.1875 5.875ZM15.375 1.5625C15.8485 1.56194 16.3077 1.72476 16.6751 2.02348C17.0425 2.3222 17.2955 2.73853 17.3916 3.20219C16.9838 3.46658 16.6419 3.8207 16.392 4.23748C16.1421 4.65426 15.9908 5.12266 15.9497 5.60688C15.6662 5.68857 15.3684 5.70847 15.0765 5.66525C14.7847 5.62202 14.5054 5.51668 14.2578 5.35632C14.0101 5.19597 13.7997 4.98434 13.6408 4.73572C13.4819 4.4871 13.3782 4.20728 13.3367 3.91515C13.2952 3.62303 13.3168 3.3254 13.4002 3.04236C13.4835 2.75931 13.6266 2.49745 13.8198 2.27445C14.0131 2.05144 14.2519 1.87249 14.5201 1.74967C14.7884 1.62685 15.0799 1.56303 15.375 1.5625Z" fill="#FF4D00"/>
</svg>
