<svg width="16" height="16" viewBox="0 0 16 16" fill="none" xmlns="http://www.w3.org/2000/svg">
<path d="M11.9999 4.6665C12.5162 4.77356 12.9058 4.95223 13.2188 5.25043C13.9999 5.99438 13.9999 7.19177 13.9999 9.5865C13.9999 11.9812 13.9999 13.1786 13.2188 13.9226C12.4378 14.6665 11.1807 14.6665 8.66658 14.6665H7.33325C4.81909 14.6665 3.56201 14.6665 2.78096 13.9226C1.99991 13.1786 1.99991 11.9812 1.99991 9.5865C1.99991 7.19177 1.99991 5.99438 2.78096 5.25043C3.09403 4.95223 3.48358 4.77356 3.99991 4.6665" stroke="white" stroke-linecap="round"/>
<path d="M8.01678 1.33385L7.99991 9.3335M8.01678 1.33385C7.90838 1.32936 7.79931 1.36811 7.70211 1.45011C7.09785 1.96021 5.99991 3.28607 5.99991 3.28607M8.01678 1.33385C8.11398 1.33788 8.21071 1.37667 8.29778 1.45022C8.90198 1.96041 9.99991 3.28607 9.99991 3.28607" stroke="white" stroke-linecap="round" stroke-linejoin="round"/>
</svg>
