<svg width="20" height="20" viewBox="0 0 20 20" fill="none" xmlns="http://www.w3.org/2000/svg">
<path d="M10 15C12.7614 15 15 12.7614 15 10C15 7.23858 12.7614 5 10 5C7.23858 5 5 7.23858 5 10C5 12.7614 7.23858 15 10 15Z" stroke="#1BA70F" stroke-width="1.25"/>
<path d="M6.66724 18.3333L8.90415 11.9598C9.36274 10.6533 9.59199 10 10.0006 10C10.4092 10 10.6384 10.6533 11.097 11.9598L13.3339 18.3333" stroke="#1BA70F" stroke-width="1.25" stroke-linecap="round" stroke-linejoin="round"/>
<path d="M11.6671 3.33366C11.6671 4.25413 10.9209 5.00033 10.0004 5.00033C9.07991 5.00033 8.33374 4.25413 8.33374 3.33366C8.33374 2.41318 9.07991 1.66699 10.0004 1.66699C10.9209 1.66699 11.6671 2.41318 11.6671 3.33366Z" stroke="#1BA70F" stroke-width="1.25"/>
<path d="M15.8339 8.33333C14.9134 8.33333 14.1672 7.58714 14.1672 6.66667C14.1672 5.74619 14.9134 5 15.8339 5C16.7544 5 17.5006 5.74619 17.5006 6.66667C17.5006 7.58714 16.7544 8.33333 15.8339 8.33333Z" stroke="#1BA70F" stroke-width="1.25"/>
<path d="M5.83333 13.3337C5.83333 14.2542 5.08714 15.0003 4.16667 15.0003C3.24619 15.0003 2.5 14.2542 2.5 13.3337C2.5 12.4132 3.24619 11.667 4.16667 11.667C5.08714 11.667 5.83333 12.4132 5.83333 13.3337Z" stroke="#1BA70F" stroke-width="1.25"/>
<path d="M5.83333 6.45866C5.83333 7.37913 5.08714 8.12533 4.16667 8.12533C3.24619 8.12533 2.5 7.37913 2.5 6.45866C2.5 5.53818 3.24619 4.79199 4.16667 4.79199C5.08714 4.79199 5.83333 5.53818 5.83333 6.45866Z" stroke="#1BA70F" stroke-width="1.25"/>
<path d="M17.5006 13.3337C17.5006 14.2542 16.7544 15.0003 15.8339 15.0003C14.9134 15.0003 14.1672 14.2542 14.1672 13.3337C14.1672 12.4132 14.9134 11.667 15.8339 11.667C16.7544 11.667 17.5006 12.4132 17.5006 13.3337Z" stroke="#1BA70F" stroke-width="1.25"/>
</svg>
