<svg width="14" height="15" viewBox="0 0 14 15" fill="none" xmlns="http://www.w3.org/2000/svg">
<path d="M9.33337 8.6665C9.33337 9.14974 9.72514 9.5415 10.2084 9.5415C10.6916 9.5415 11.0834 9.14974 11.0834 8.6665C11.0834 8.18327 10.6916 7.7915 10.2084 7.7915C9.72514 7.7915 9.33337 8.18327 9.33337 8.6665Z" stroke="#0057B8" stroke-width="0.875"/>
<path d="M11.025 5.1665C11.0633 4.97802 11.0833 4.78294 11.0833 4.58317C11.0833 2.97234 9.77748 1.6665 8.16667 1.6665C6.55585 1.6665 5.25 2.97234 5.25 4.58317C5.25 4.78294 5.27008 4.97802 5.30835 5.1665" stroke="#0057B8" stroke-width="0.875"/>
<path d="M4.08329 5.16289H9.33329C10.9832 5.16289 11.8081 5.16289 12.3207 5.67569C12.8333 6.18851 12.8333 7.01384 12.8333 8.66456V9.8318C12.8333 11.4825 12.8333 12.3079 12.3207 12.8207C11.8081 13.3335 10.9832 13.3335 9.33329 13.3335H5.83329C3.6334 13.3335 2.53346 13.3335 1.85004 12.6498C1.16663 11.966 1.16663 10.8655 1.16663 8.66456V7.49736C1.16663 5.29639 1.16663 4.19592 1.85004 3.51217C2.40018 2.96177 3.22021 2.85443 4.66663 2.8335H5.83329" stroke="#0057B8" stroke-width="0.875" stroke-linecap="round"/>
</svg>
