<svg width="154" height="78" viewBox="0 0 154 78" fill="none" xmlns="http://www.w3.org/2000/svg">
<path d="M14.8949 -6.51166C-4.15093 -23.2928 -3.105 49.9884 14.895 58.4883C30.9625 66.0757 59.4564 26.2589 69.395 40.9883C76.614 51.6872 61.4884 76.9883 74.395 76.9883C131.895 76.9883 65.395 0.988342 112.395 -4.51166C124.619 -5.94216 138.895 105.488 189.452 51.9883C210.545 29.6668 149.578 2.17031 136.895 -6.51166C115.019 -21.4865 125.118 61.1906 107.952 40.9883C102.223 34.2462 63.609 2.24299 57.895 -4.51166C48.0021 -16.2063 46.22 45.833 24.395 25.9883C10.2392 13.117 29.2503 6.13678 14.8949 -6.51166Z" fill="white" fill-opacity="0.25" stroke="white" stroke-opacity="0.11"/>
</svg>
