<svg width="18" height="17" viewBox="0 0 18 17" fill="none" xmlns="http://www.w3.org/2000/svg">
<path d="M7.32532 1.27148C8.04056 -0.0678282 9.95944 -0.0678282 10.6747 1.27148L17.2757 13.6204C17.4304 13.9098 17.5075 14.2343 17.4994 14.5623C17.4914 14.8903 17.3985 15.2107 17.2299 15.4921C17.0612 15.7736 16.8226 16.0065 16.5371 16.1683C16.2516 16.3301 15.9291 16.4151 15.601 16.4152H2.39898C2.07087 16.4151 1.74837 16.3301 1.46291 16.1683C1.17745 16.0065 0.938762 15.7736 0.770111 15.4921C0.601461 15.2107 0.508596 14.8903 0.500569 14.5623C0.492541 14.2343 0.569623 13.9098 0.724304 13.6204L7.32532 1.27148ZM9.23877 2.03881C9.21553 1.99574 9.18106 1.95975 9.13902 1.93467C9.09699 1.90959 9.04895 1.89635 9 1.89635C8.95105 1.89635 8.90302 1.90959 8.86098 1.93467C8.81894 1.95975 8.78448 1.99574 8.76123 2.03881L2.16021 14.3878C2.13809 14.4291 2.12705 14.4754 2.12815 14.5223C2.12926 14.5691 2.14248 14.6149 2.16652 14.6551C2.19057 14.6953 2.22461 14.7286 2.26535 14.7517C2.30609 14.7749 2.35212 14.7871 2.39898 14.7872H15.601C15.6479 14.7871 15.6939 14.7749 15.7347 14.7517C15.7754 14.7286 15.8094 14.6953 15.8335 14.6551C15.8575 14.6149 15.8707 14.5691 15.8718 14.5223C15.873 14.4754 15.8619 14.4291 15.8398 14.3878L9.23877 2.03881ZM9.814 6.37582V9.08916C9.814 9.30505 9.72824 9.51209 9.57559 9.66475C9.42293 9.8174 9.21589 9.90316 9 9.90316C8.78411 9.90316 8.57707 9.8174 8.42441 9.66475C8.27176 9.51209 8.186 9.30505 8.186 9.08916V6.37582C8.186 6.15993 8.27176 5.95289 8.42441 5.80023C8.57707 5.64758 8.78411 5.56182 9 5.56182C9.21589 5.56182 9.42293 5.64758 9.57559 5.80023C9.72824 5.95289 9.814 6.15993 9.814 6.37582ZM10.0853 12.0738C10.0853 12.3617 9.97099 12.6377 9.76745 12.8413C9.56391 13.0448 9.28785 13.1592 9 13.1592C8.71215 13.1592 8.43609 13.0448 8.23255 12.8413C8.02901 12.6377 7.91466 12.3617 7.91466 12.0738C7.91466 11.786 8.02901 11.5099 8.23255 11.3064C8.43609 11.1028 8.71215 10.9885 9 10.9885C9.28785 10.9885 9.56391 11.1028 9.76745 11.3064C9.97099 11.5099 10.0853 11.786 10.0853 12.0738Z" fill="#FC0000"/>
</svg>
