<svg width="20" height="20" viewBox="0 0 20 20" fill="none" xmlns="http://www.w3.org/2000/svg">
<path d="M16.5 11C16.5 15.1421 13.1421 18.5 9 18.5C4.85786 18.5 1.5 15.1421 1.5 11C1.5 6.85786 4.85786 3.5 9 3.5C13.1421 3.5 16.5 6.85786 16.5 11Z" stroke="#141B34" stroke-width="1.125"/>
<path d="M11.0326 9.54582C10.9583 8.97383 10.3015 8.04966 9.1206 8.04964C7.7484 8.04962 7.17102 8.80959 7.05386 9.18958C6.87108 9.69785 6.90764 10.7428 8.51602 10.8567C10.5265 10.9992 11.332 11.2365 11.2295 12.467C11.127 13.6974 10.0063 13.9632 9.1206 13.9347C8.23485 13.9062 6.78573 13.4994 6.72949 12.405M8.98005 7.24854V8.05236M8.98005 13.9273V14.7485" stroke="#141B34" stroke-width="1.125" stroke-linecap="round"/>
<path d="M15 0.625C12.5838 0.624999 10.625 2.58375 10.625 5C10.625 7.41625 12.5838 9.375 15 9.375C17.4162 9.375 19.375 7.41625 19.375 5C19.375 2.58375 17.4162 0.625 15 0.625Z" fill="#F5F5F5"/>
<path d="M16.2132 3.78677L13.6875 6.3125M16.2132 3.78677C15.9922 3.5657 14.9495 3.78226 14.6346 3.78677M16.2132 3.78677C16.4343 4.00784 16.2177 5.05049 16.2132 5.36536" stroke="#141B34" stroke-width="0.65625" stroke-linecap="round" stroke-linejoin="round"/>
</svg>
